<svg width="40" height="36" viewBox="0 0 40 36" fill="none" xmlns="http://www.w3.org/2000/svg">
<g clip-path="url(#clip0_23_2)">
<path d="M21.3133 8.74285C21.1686 8.54658 20.9359 8.43018 20.688 8.43018H18.741C18.4931 8.43018 18.2604 8.54658 18.1157 8.74285L9.97696 19.7826C9.18058 20.8628 9.18519 22.3111 9.98835 23.3865L14.6787 29.6665H14.4483C14.023 29.6665 13.6782 30.0027 13.6782 30.4173C13.6782 30.832 14.023 31.1681 14.4483 31.1681H14.8812L13.4374 34.9899C13.3504 35.2202 13.3844 35.4776 13.5284 35.6788C13.6724 35.8801 13.9083 36.0002 14.16 36.0002H25.269C25.5208 36.0002 25.7567 35.8802 25.9007 35.6788C26.0447 35.4775 26.0787 35.2202 25.9916 34.9899L24.5479 31.1681H24.9808C25.4061 31.1681 25.7509 30.832 25.7509 30.4173C25.7509 30.0027 25.4061 29.6665 24.9808 29.6665H24.7503L29.4407 23.3865C30.2439 22.3111 30.2485 20.8628 29.4521 19.7826L21.3133 8.74285ZM15.2643 34.4985L16.5223 31.1681H22.9065L24.1646 34.4985H15.2643ZM28.1955 22.5026L22.845 29.6665H16.5838L11.2333 22.5026C10.8225 21.9525 10.8201 21.2116 11.2274 20.6589L19.1357 9.93183H20.293L28.2013 20.6589C28.6088 21.2115 28.6064 21.9525 28.1955 22.5026Z" fill="#4E6575"/>
<path d="M17.5125 3.21174C17.9334 3.15205 18.2249 2.77101 18.1638 2.36069C18.1438 2.22705 18.0888 2.10677 18.0093 2.00736C17.8945 1.73339 17.6185 1.54028 17.2962 1.54028H4.00399C3.57868 1.54028 3.23393 1.87642 3.23393 2.29109C3.23393 2.70577 3.57868 3.0419 4.00399 3.0419H12.7378C10.5915 4.00527 8.65692 5.41169 7.07753 7.1845C4.46117 10.1213 3.00013 13.8733 2.95062 17.7704C1.67933 18.1028 0.740234 19.2396 0.740234 20.5868C0.740234 22.1941 2.0766 23.5017 3.71937 23.5017C5.36215 23.5017 6.69851 22.1941 6.69851 20.5868C6.69851 19.2406 5.76089 18.1045 4.49097 17.7711C4.59316 10.4948 10.1568 4.25507 17.5125 3.21174ZM5.15831 20.5868C5.15831 21.3661 4.51276 22 3.71929 22C2.92583 22 2.28028 21.3661 2.28028 20.5868C2.28028 19.8076 2.92583 19.1736 3.71929 19.1736C4.51276 19.1736 5.15831 19.8076 5.15831 20.5868Z" fill="#4E6575"/>
<path d="M36.4771 17.7704C36.4277 13.8877 34.9762 10.1463 32.3769 7.21446C30.7933 5.42821 28.8485 4.01098 26.6895 3.0419H35.4237C35.849 3.0419 36.1938 2.70577 36.1938 2.29109C36.1938 1.87642 35.849 1.54028 35.4237 1.54028H22.1765C21.8072 1.54028 21.4986 1.79384 21.4237 2.13215C21.3851 2.20415 21.3578 2.28359 21.3446 2.36843C21.2813 2.77844 21.5708 3.16098 21.9913 3.2227C29.3037 4.29711 34.8346 10.5318 34.9367 17.7711C33.6668 18.1045 32.7292 19.2405 32.7292 20.5868C32.7292 22.1941 34.0656 23.5017 35.7083 23.5017C37.3511 23.5017 38.6875 22.1941 38.6875 20.5868C38.6875 19.2396 37.7483 18.1028 36.4771 17.7704ZM35.7083 22C34.9149 22 34.2693 21.3661 34.2693 20.5868C34.2693 19.8076 34.9149 19.1736 35.7083 19.1736C36.5018 19.1736 37.1473 19.8076 37.1473 20.5868C37.1473 21.3661 36.5018 22 35.7083 22Z" fill="#4E6575"/>
<path d="M4.67643 4.58134H0V0.00012207H4.67643V4.58134Z" fill="#8EE26B"/>
<path d="M39.4284 4.58128H34.752V6.10352e-05H39.4284V4.58128Z" fill="#8EE26B"/>
<path d="M22.0515 4.58128H17.375V6.10352e-05H22.0515V4.58128Z" fill="#8EE26B"/>
<path d="M19.7141 23.5974C21.2324 23.5974 22.4632 22.3916 22.4632 20.9041C22.4632 19.4167 21.2324 18.2109 19.7141 18.2109C18.1957 18.2109 16.9648 19.4167 16.9648 20.9041C16.9648 22.3916 18.1957 23.5974 19.7141 23.5974Z" fill="#8EE26B"/>
</g>
<defs>
<clipPath id="clip0_23_2">
<rect width="40" height="36" fill="white"/>
</clipPath>
</defs>
</svg>
