<svg width="50" height="36" viewBox="0 0 50 36" fill="none" xmlns="http://www.w3.org/2000/svg">
<g clip-path="url(#clip0_23_19)">
<path d="M38.1787 20.7513H37.2266V13.3885H38.1787C40.282 13.3885 41.9871 15.0367 41.9871 17.07C41.9871 19.1031 40.2819 20.7513 38.1787 20.7513Z" fill="#8EE26B"/>
<path d="M14.7281 11.0874H13.4238V23.0519H14.7281C21.2527 23.0519 27.5554 25.3411 32.4658 29.4943V4.6449C27.5556 8.79814 21.2527 11.0874 14.7281 11.0874Z" fill="#8EE26B"/>
<path d="M47.6981 16.1536H45.7939C45.2703 16.1536 44.8457 16.564 44.8457 17.0702C44.8457 17.5764 45.2703 17.9869 45.7939 17.9869H47.6981C48.2218 17.9869 48.6464 17.5764 48.6464 17.0702C48.6464 16.564 48.2218 16.1536 47.6981 16.1536Z" fill="#4E6575"/>
<path d="M46.4644 13.1169L47.811 11.8153C48.1812 11.4574 48.1812 10.877 47.811 10.519C47.4408 10.1611 46.8405 10.1611 46.47 10.519L45.1234 11.8206C44.7531 12.1784 44.7531 12.7589 45.1234 13.1168C45.4937 13.4748 46.0939 13.4748 46.4644 13.1169Z" fill="#4E6575"/>
<path d="M46.4643 21.024C46.0942 20.6661 45.4937 20.6661 45.1234 21.024C44.7531 21.3821 44.7531 21.9623 45.1235 22.3203L46.4701 23.6218C46.8402 23.9798 47.4407 23.9798 47.8111 23.6218C48.1813 23.2639 48.1813 22.6835 47.8109 22.3256L46.4643 21.024Z" fill="#4E6575"/>
<path d="M34.846 0.967773C33.0107 0.967773 31.5176 2.41116 31.5176 4.18526V29.9551C31.5176 31.7292 33.0107 33.1726 34.846 33.1726C36.6813 33.1726 38.1745 31.7292 38.1745 29.9551C38.1745 28.7035 38.1745 5.48033 38.1745 4.18526C38.1745 2.41116 36.6814 0.967773 34.846 0.967773ZM36.278 29.9551C36.278 30.7184 35.6357 31.3394 34.846 31.3394C34.0564 31.3394 33.414 30.7184 33.414 29.9551V4.18526C33.414 3.422 34.0564 2.801 34.846 2.801C35.6356 2.801 36.278 3.422 36.278 4.18526V29.9551Z" fill="#4E6575"/>
<path d="M12.7109 23.9694H13.4231C13.9468 23.9694 14.3713 23.559 14.3713 23.0528V11.0882C14.3713 10.582 13.9468 10.1716 13.4231 10.1716H7.23454C3.29923 10.1716 0.0976562 13.2665 0.0976562 17.0705C0.0976562 20.1082 2.13993 22.6917 4.9662 23.6101L7.24089 33.138C7.63381 34.7842 9.12883 35.9339 10.8767 35.9339C13.2744 35.9339 15.0526 33.7782 14.5125 31.5159L12.7109 23.9694ZM1.9941 17.0705C1.9941 14.2773 4.34493 12.0049 7.23454 12.0049H12.4749V22.1362H7.23454C4.34493 22.1362 1.9941 19.8637 1.9941 17.0705ZM10.8767 34.1008C10.0173 34.1008 9.28203 33.5354 9.08889 32.7259L6.99692 23.9637C7.36569 23.9754 6.8067 23.9659 10.7645 23.9695L12.6645 31.9282C12.9297 33.0386 12.0578 34.1008 10.8767 34.1008Z" fill="#4E6575"/>
</g>
<defs>
<clipPath id="clip0_23_19">
<rect width="48.9825" height="34.9658" fill="white" transform="translate(0.0976562 0.967773)"/>
</clipPath>
</defs>
</svg>
