<svg width="45" height="32" viewBox="0 0 45 32" fill="none" xmlns="http://www.w3.org/2000/svg">
<path d="M38.5127 4.32422H6.09961V25.081H15.7713L18.3852 26.8107H25.3557L27.9697 25.081H38.5127V4.32422Z" fill="#8EE26B"/>
<path d="M43.7402 24.2162H42.8689V0.864867C42.8689 0.387287 42.4788 0 41.9976 0H2.61396C2.13272 0 1.74264 0.387287 1.74264 0.864867V24.2162H0.871321C0.39009 24.2162 0 24.6035 0 25.0811C0 28.8962 3.12699 32 6.97057 32H37.641C41.4846 32 44.6115 28.8962 44.6115 25.0811C44.6115 24.6035 44.2214 24.2162 43.7402 24.2162ZM3.48528 1.72973H41.1262V24.2162H27.9693C27.7974 24.2162 27.6292 24.2667 27.486 24.3615L25.0915 25.9459H18.6487L16.2542 24.3615C16.111 24.2667 15.9429 24.2162 15.7709 24.2162H3.48528V1.72973ZM37.641 30.2703H6.97057C4.38465 30.2703 2.23127 28.3971 1.81522 25.9459H2.61396H15.5071L17.9015 27.5304C18.0447 27.6252 18.2128 27.6757 18.3848 27.6757H25.3554C25.5274 27.6757 25.6955 27.6252 25.8387 27.5304L28.2332 25.9459H42.7963C42.3803 28.3971 40.2269 30.2703 37.641 30.2703Z" fill="#4E6575"/>
<path d="M15.9513 17.5505L13.0821 14.7026L15.9513 11.8547C16.2915 11.517 16.2915 10.9694 15.9513 10.6315C15.611 10.2939 15.0593 10.2939 14.7189 10.6315L11.2337 14.091C10.8935 14.4287 10.8935 14.9764 11.2337 15.3142L14.7189 18.7736C15.0593 19.1114 15.6109 19.1112 15.9513 18.7736C16.2916 18.4359 16.2916 17.8882 15.9513 17.5505Z" fill="#4E6575"/>
<path d="M28.6595 18.7736C28.9999 19.1114 29.5515 19.1112 29.8919 18.7736L33.3771 15.3142C33.7174 14.9764 33.7174 14.4288 33.3771 14.091L29.8919 10.6315C29.5516 10.2939 28.9999 10.2939 28.6595 10.6315C28.3193 10.9692 28.3193 11.5169 28.6595 11.8547L31.5287 14.7026L28.6595 17.5505C28.3192 17.8882 28.3192 18.4359 28.6595 18.7736Z" fill="#4E6575"/>
<path d="M19.7452 18.372L25.9063 12.2564C26.2466 11.9186 26.2466 11.371 25.9063 11.0332C25.5661 10.6956 25.0143 10.6956 24.674 11.0332L18.513 17.1488C18.1727 17.4865 18.1727 18.0341 18.513 18.372C18.8533 18.7097 19.4049 18.7096 19.7452 18.372Z" fill="#4E6575"/>
</svg>
