<svg width="335" height="298" viewBox="0 0 335 298" fill="none" xmlns="http://www.w3.org/2000/svg">
<g opacity="0.08">
<path opacity="0.08" d="M2.99821 186.249C2.99821 186.249 13.6484 243.606 67.6654 274.688C121.673 305.769 188.814 298.355 243.387 293.776C297.961 289.198 334.785 252.316 333.991 205.173C333.197 158.031 289.857 150.762 259.44 101.586C229.023 52.4188 228.384 34.8259 176.065 9.70883C123.745 -15.3991 52.653 15.7555 22.2451 77.0799C-8.16294 138.404 2.99821 186.249 2.99821 186.249Z" fill="#00B533"/>
<path d="M2.99821 186.249C2.99821 186.249 13.6484 243.606 67.6654 274.688C121.673 305.769 188.814 298.355 243.387 293.776C297.961 289.198 334.785 252.316 333.991 205.173C333.197 158.031 289.857 150.762 259.44 101.586C229.023 52.4188 228.384 34.8259 176.065 9.70883C123.745 -15.3991 52.653 15.7555 22.2451 77.0799C-8.16294 138.404 2.99821 186.249 2.99821 186.249Z" fill="#8EE26B"/>
</g>
<path d="M199.336 257.834V236.219H135.637V257.834C135.637 264.884 133.255 271.734 128.874 277.26L126.082 280.781H208.891L206.108 277.26C201.727 271.734 199.345 264.884 199.336 257.834Z" fill="white" stroke="#2E353A" stroke-width="1.0954" stroke-linecap="round" stroke-linejoin="round"/>
<path d="M47.9527 51.1338H287.027C291.709 51.1338 295.505 54.9278 295.505 59.6065V234.56C295.505 239.238 291.709 243.032 287.027 243.032H47.9527C43.2711 243.032 39.4746 239.238 39.4746 234.56V59.6065C39.4746 54.9278 43.2711 51.1338 47.9527 51.1338Z" fill="#2E353A" stroke="#2E353A" stroke-width="1.0954" stroke-linecap="round" stroke-linejoin="round"/>
<path d="M39.4747 213.2H295.505V234.55C295.505 239.229 291.709 243.023 287.027 243.023H47.9254C43.2437 243.023 39.4473 239.229 39.4473 234.55V213.2H39.4747Z" fill="white" stroke="#2E353A" stroke-width="1.0954" stroke-linecap="round" stroke-linejoin="round"/>
<path d="M282.619 63.0723H52.3516V198.644H282.619V63.0723Z" fill="#8EE26B"/>
<path d="M172.215 228.121C172.224 225.512 170.107 223.396 167.496 223.387C164.886 223.378 162.769 225.494 162.76 228.102C162.751 230.711 164.868 232.827 167.478 232.836H167.487C170.097 232.836 172.215 230.729 172.215 228.121Z" fill="#2E353A" stroke="#2E353A" stroke-width="1.0954" stroke-linecap="round" stroke-linejoin="round"/>
<path d="M208.909 280.781H126.082V284.639H208.909V280.781Z" fill="white" stroke="#2E353A" stroke-width="1.0954" stroke-linecap="round" stroke-linejoin="round"/>
<path d="M72.9955 78.2573H268.192C269.963 78.2573 271.404 79.6983 271.404 81.4676V95.4398C271.404 97.2091 269.963 98.6501 268.192 98.6501H72.9955C71.2251 98.6501 69.7832 97.2091 69.7832 95.4398V81.4676C69.7832 79.6983 71.2251 78.2573 72.9955 78.2573Z" fill="#2E353A" stroke="#2E353A" stroke-linecap="round" stroke-linejoin="round"/>
<path d="M72.0092 137.502H124.219C125.989 137.502 127.431 138.943 127.431 140.713V179.446C127.431 181.215 125.989 182.656 124.219 182.656H72.0092C70.2388 182.656 68.7969 181.215 68.7969 179.446V140.713C68.7969 138.943 70.2388 137.502 72.0092 137.502Z" fill="#2E353A" stroke="#2E353A" stroke-linecap="round" stroke-linejoin="round"/>
<path d="M106.69 147.452C106.69 144.634 104.408 142.354 101.588 142.354C98.7679 142.354 96.4863 144.634 96.4863 147.452C96.4863 150.271 98.7679 152.551 101.588 152.551C104.408 152.551 106.69 150.271 106.69 147.452Z" fill="white" stroke="#2E353A" stroke-linecap="round" stroke-linejoin="round"/>
<path d="M72.2098 182.656H124.009C125.898 182.656 127.431 181.124 127.431 179.236V163.203L111.068 151.584L99.4054 171.521L89.6862 161.808L70.5215 182.228C71.0417 182.51 71.6258 182.665 72.2098 182.656Z" fill="white" stroke="#2E353A" stroke-linecap="round" stroke-linejoin="round"/>
<path d="M74.4369 106.42H157.877C159.647 106.42 161.089 107.861 161.089 109.631V123.603C161.089 125.372 159.647 126.813 157.877 126.813H74.4369C72.6665 126.813 71.2246 125.372 71.2246 123.603V109.631C71.2246 107.861 72.6665 106.42 74.4369 106.42Z" fill="white" stroke="#2E353A" stroke-linecap="round" stroke-linejoin="round"/>
<path d="M184.763 106.42H268.202C269.973 106.42 271.415 107.861 271.415 109.631V123.603C271.415 125.372 269.973 126.813 268.202 126.813H184.763C182.992 126.813 181.551 125.372 181.551 123.603V109.631C181.551 107.861 182.992 106.42 184.763 106.42Z" fill="white" stroke="#2E353A" stroke-linecap="round" stroke-linejoin="round"/>
<path d="M269.926 138.469H142.244" stroke="#2E353A" stroke-linecap="round" stroke-linejoin="round"/>
<path d="M269.926 147.206H142.244" stroke="#2E353A" stroke-linecap="round" stroke-linejoin="round"/>
<path d="M269.926 155.952H142.244" stroke="#2E353A" stroke-linecap="round" stroke-linejoin="round"/>
<path d="M269.926 164.69H142.244" stroke="#2E353A" stroke-linecap="round" stroke-linejoin="round"/>
<path d="M269.926 173.427H142.244" stroke="#2E353A" stroke-linecap="round" stroke-linejoin="round"/>
<path d="M269.926 182.173H142.244" stroke="#2E353A" stroke-linecap="round" stroke-linejoin="round"/>
<path d="M71.6819 71.7818C71.6819 69.5565 69.8841 67.7598 67.6574 67.7598C65.4306 67.7598 63.6328 69.5565 63.6328 71.7818C63.6328 74.0071 65.4306 75.8038 67.6574 75.8038C69.875 75.8129 71.6728 74.0162 71.6819 71.8C71.6819 71.7909 71.6819 71.7909 71.6819 71.7818Z" fill="white"/>
<path d="M279.637 71.7818C279.637 69.5565 277.839 67.7598 275.613 67.7598C273.386 67.7598 271.588 69.5565 271.588 71.7818C271.588 74.0071 273.386 75.8038 275.613 75.8038H275.622C277.839 75.8038 279.637 74.0071 279.637 71.7909V71.7818Z" fill="white"/>
<path d="M173.791 71.7818C173.791 69.5565 171.993 67.7598 169.767 67.7598C167.54 67.7598 165.742 69.5565 165.742 71.7818C165.742 74.0071 167.54 75.8038 169.767 75.8038C171.984 75.8129 173.782 74.0162 173.791 71.8C173.791 71.7909 173.791 71.7909 173.791 71.7818Z" fill="white"/>
<path d="M173.791 192.351C173.8 190.126 172.003 188.329 169.776 188.32C167.549 188.311 165.751 190.108 165.742 192.333C165.733 194.558 167.531 196.355 169.758 196.364H169.767C171.984 196.373 173.782 194.577 173.791 192.36V192.351Z" fill="white"/>
<path d="M71.6819 192.351C71.6911 190.126 69.8933 188.329 67.6666 188.32C65.4398 188.311 63.6419 190.108 63.6328 192.333C63.6236 194.558 65.4215 196.355 67.6482 196.364H67.6574C69.875 196.373 71.6728 194.577 71.6819 192.36V192.351Z" fill="white"/>
<path d="M279.637 190.892C279.646 188.667 277.848 186.87 275.622 186.861C273.395 186.852 271.597 188.648 271.588 190.874C271.579 193.099 273.377 194.896 275.603 194.905C275.613 194.905 275.613 194.905 275.622 194.905C277.839 194.905 279.637 193.108 279.637 190.892Z" fill="white"/>
</svg>
