<svg width="438" height="292" viewBox="0 0 438 292" fill="none" xmlns="http://www.w3.org/2000/svg">
<g clip-path="url(#clip0_581_263)">
<path d="M426.815 282.05L422.489 283.89L413.32 268.106L419.705 265.39L426.815 282.05Z" fill="#FFB6B6"/>
<path d="M391.069 286.138L386.368 286.137L384.131 268.027H391.07L391.069 286.138Z" fill="#FFB6B6"/>
<path d="M391.235 291.036L376.776 291.035V290.852C376.776 289.362 377.369 287.933 378.424 286.879C379.48 285.825 380.911 285.233 382.404 285.233H382.404L385.045 283.232L389.973 285.233L391.235 285.233L391.235 291.036Z" fill="#2F2E41"/>
<path d="M429.445 285.186L416.143 290.846L416.072 290.678C415.486 289.307 415.471 287.76 416.028 286.377C416.585 284.994 417.669 283.889 419.042 283.305L419.043 283.305L420.687 280.43L426.006 280.342L427.167 279.848L429.445 285.186Z" fill="#2F2E41"/>
<path d="M386.457 178.954L379.311 222.405L381.256 228.88L378.704 233.465L382.452 273.738L380.93 277.082L385.181 279.7H393.829L394.288 243.241L396.425 237.888V234.937L400.774 212.706L401.574 238.136L402.839 243.497L401.777 247.315L403.165 249.989L415.064 275.503H424.762L424.012 269.733C425.75 268.855 421.404 266.287 420.986 264.388L422.414 261.179L420.986 255.119L419.677 243.277L421.057 218.281L420.408 184.62C417.152 180.261 413.539 176.899 409.063 175.957L386.457 178.954Z" fill="#2F2E41"/>
<path d="M403.86 121.733C409.272 121.733 413.66 117.352 413.66 111.947C413.66 106.542 409.272 102.16 403.86 102.16C398.447 102.16 394.059 106.542 394.059 111.947C394.059 117.352 398.447 121.733 403.86 121.733Z" fill="#FFB6B6"/>
<path d="M363.452 189.221C363.33 188.671 363.33 188.101 363.453 187.552C363.575 187.002 363.816 186.486 364.16 186.04C364.503 185.593 364.941 185.228 365.441 184.968C365.942 184.709 366.493 184.562 367.056 184.539L371.004 171.433L375.568 176.893L371.12 188.501C371.097 189.449 370.726 190.355 370.079 191.048C369.431 191.741 368.551 192.173 367.606 192.262C366.661 192.35 365.716 192.09 364.951 191.529C364.185 190.969 363.652 190.148 363.452 189.221Z" fill="#FFB6B6"/>
<path d="M389.062 135.352L387.293 132.124L385.013 132.884C385.013 132.884 382.496 134.505 378.972 140.628C377.342 143.46 373.818 161.618 373.818 161.618L365.582 183.395L373.979 184.813L380.985 166.866L389.106 149.691L389.062 135.352Z" fill="#8EE26B"/>
<path d="M403.496 178.817C410.397 178.817 417.359 180.174 420.21 185.024C420.136 183.969 419.949 182.141 419.755 180.463L419.041 175.955L419.764 171.822L420.72 170.868L419.008 169.159L420.176 160.531L424.029 140.207C424.331 138.608 424.095 136.954 423.359 135.502C422.622 134.051 421.426 132.883 419.956 132.181L416.254 130.403L410.253 124.845L399.397 124.764L395.856 129.361L386.533 132.523L388.098 164.851L387.072 167.241C387.302 167.452 387.787 167.902 388.05 168.192C388.421 168.603 387.948 170.717 387.633 171.94L387.2 175.198L388.564 176.172L386.79 178.263L386.436 180.918C388.197 180.502 395.808 178.817 403.496 178.817Z" fill="#8EE26B"/>
<path d="M406.367 121.254C406.409 121.162 406.45 121.07 406.492 120.977C406.476 120.978 406.46 120.98 406.444 120.98L406.367 121.254Z" fill="#2F2E41"/>
<path d="M413.933 102.605C413.467 102.167 412.863 101.906 412.224 101.868C411.59 101.888 410.948 102.46 411.079 103.079C409.915 101.021 408.062 99.4379 405.846 98.608C403.629 97.7781 401.191 97.7543 398.959 98.5407C397.384 99.0957 395.839 100.206 395.477 101.834C395.442 102.262 395.314 102.676 395.103 103.05C394.92 103.249 394.682 103.391 394.419 103.458C394.157 103.524 393.88 103.513 393.624 103.424L393.608 103.419C393.521 103.39 393.426 103.387 393.337 103.411C393.247 103.435 393.167 103.486 393.107 103.556C393.047 103.627 393.009 103.713 392.998 103.805C392.988 103.897 393.006 103.99 393.049 104.072L393.494 104.902C392.933 105.027 392.349 105.015 391.793 104.866C391.701 104.842 391.603 104.847 391.514 104.88C391.424 104.914 391.347 104.974 391.293 105.053C391.24 105.131 391.211 105.225 391.213 105.32C391.214 105.415 391.245 105.508 391.302 105.585C392.042 106.597 393.009 107.422 394.126 107.995C395.242 108.568 396.477 108.873 397.732 108.886C399.512 108.875 401.311 108.262 403.045 108.671C403.715 108.829 404.341 109.135 404.878 109.566C405.415 109.998 405.847 110.544 406.145 111.164C406.443 111.785 406.598 112.464 406.598 113.152C406.599 113.84 406.445 114.519 406.148 115.14C406.681 114.558 407.71 114.696 408.255 115.266C408.505 115.571 408.691 115.925 408.799 116.304C408.908 116.684 408.937 117.082 408.885 117.473C408.74 118.672 408.384 119.836 407.832 120.911C409.938 120.846 411.973 120.138 413.663 118.881C415.353 117.624 416.615 115.88 417.28 113.884C417.946 111.888 417.981 109.736 417.383 107.719C416.784 105.702 415.58 103.917 413.933 102.605H413.933Z" fill="#2F2E41"/>
<path d="M97.1945 66.0666C110.651 66.0666 121.56 55.1732 121.56 41.7354C121.56 28.2977 110.651 17.4043 97.1945 17.4043C83.7376 17.4043 72.8286 28.2977 72.8286 41.7354C72.8286 55.1732 83.7376 66.0666 97.1945 66.0666Z" fill="#8EE26B"/>
<path d="M28.7118 114.114C16.4859 87.1092 16.9367 52.8798 35.9109 30.0923C42.2589 61.6909 59.5951 90.0289 84.8522 110.092C94.6209 117.795 106.289 125.346 108.958 137.486C110.618 145.04 108.265 153.03 104.196 159.61C100.126 166.19 94.4541 171.603 88.8464 176.938L88.2173 178.763C63.8166 161.893 40.9378 141.118 28.7118 114.114Z" fill="#F2F2F2"/>
<path d="M36.4387 30.4216C32.072 54.2987 35.3159 79.7235 45.9297 101.599C48.2244 106.329 50.9643 110.927 54.6328 114.731C58.3028 118.537 62.6909 120.932 67.7388 122.404C72.3536 123.749 77.2301 124.592 81.437 127.034C85.8714 129.609 88.6233 133.928 89.6953 138.881C91.007 144.942 90.0596 151.112 88.9232 157.113C87.6615 163.776 86.2452 170.678 88.0736 177.376C88.2951 178.188 87.021 178.483 86.7998 177.673C83.6188 166.019 89.8036 154.525 88.9391 142.808C88.5357 137.34 86.4798 131.961 81.7853 128.794C77.6801 126.024 72.6521 125.15 67.9678 123.828C63.0491 122.44 58.6317 120.32 54.8729 116.803C51.0279 113.205 48.1021 108.704 45.6964 104.054C40.271 93.5663 36.6945 82.0117 34.8023 70.3783C32.6264 57.0073 32.7571 43.3631 35.1887 30.0361C35.3395 29.2113 36.5885 29.6022 36.4387 30.4216H36.4387Z" fill="white"/>
<path d="M42.1042 94.6702C38.1433 95.9378 33.8602 95.7582 30.0198 94.1635C26.1793 92.5687 23.0315 89.6627 21.1387 85.9644C20.7582 85.2148 21.9069 84.5892 22.2879 85.3399C24.0441 88.787 26.9765 91.4937 30.5558 92.9714C34.1351 94.4491 38.1255 94.6005 41.8067 93.3983C42.607 93.138 42.8999 94.4114 42.1042 94.6702H42.1042Z" fill="white"/>
<path d="M65.3089 122.029C69.2668 114.515 70.243 105.787 68.0428 97.5859C67.8242 96.7735 69.0982 96.4775 69.3166 97.2889C71.5902 105.827 70.5558 114.908 66.4199 122.719C66.0252 123.463 64.9163 122.769 65.3089 122.029H65.3089Z" fill="white"/>
<path d="M34.3083 57.4315C35.9432 57.26 37.5098 56.6856 38.8675 55.76C40.2251 54.8344 41.3313 53.5866 42.0867 52.1286C42.4718 51.3798 43.5803 52.0741 43.1977 52.818C42.3556 54.425 41.1323 55.8016 39.6346 56.8275C38.1368 57.8535 36.4103 58.4975 34.6058 58.7035C34.4373 58.7371 34.2624 58.7055 34.1164 58.6149C33.9705 58.5244 33.8646 58.3817 33.8202 58.216C33.7817 58.0474 33.8113 57.8704 33.9027 57.7235C33.9941 57.5766 34.1399 57.4717 34.3083 57.4315Z" fill="white"/>
<path d="M136.395 30.3564C136.168 30.8308 135.94 31.3052 135.719 31.7893C132.698 38.1831 130.203 44.8114 128.257 51.6087C128.098 52.1319 127.945 52.6644 127.802 53.1911C123.289 69.6173 121.87 86.7373 123.616 103.681C124.317 110.423 125.53 117.101 127.246 123.659C129.616 132.715 132.907 142.347 132.165 151.39C132.098 152.334 131.972 153.273 131.789 154.202L90.4961 179.388C90.3735 179.398 90.2562 179.418 90.1331 179.428L88.5305 180.509C88.4183 180.177 88.3092 179.83 88.197 179.498C88.1312 179.306 88.0745 179.108 88.0086 178.916C87.9677 178.786 87.9271 178.655 87.8827 178.54C87.8689 178.497 87.8555 178.454 87.8474 178.42C87.803 178.305 87.774 178.193 87.7353 178.088C87.1197 176.151 86.5168 174.206 85.9263 172.254C85.9206 172.245 85.9206 172.245 85.924 172.23C81.4633 157.344 78.2079 141.956 77.395 126.563C77.3707 126.1 77.3402 125.628 77.3347 125.153C77.0069 118.213 77.2476 111.257 78.0545 104.356C78.5085 100.579 79.1537 96.8266 79.9877 93.1143C82.161 83.5265 85.831 74.3396 90.8632 65.8906C100.897 49.0491 116.214 35.5996 134.959 30.7156C135.438 30.591 135.909 30.4716 136.395 30.3564Z" fill="#F2F2F2"/>
<path d="M136.622 30.9367C118.739 47.3759 106 69.6265 101.285 93.4743C100.265 98.6302 99.6807 103.949 100.316 109.192C100.952 114.437 103.011 118.987 106.155 123.197C109.028 127.046 112.414 130.651 114.3 135.13C116.289 139.851 115.882 144.955 113.751 149.554C111.144 155.182 106.668 159.538 102.142 163.647C97.1172 168.209 91.8254 172.868 89.2466 179.315C88.9341 180.096 87.7385 179.566 88.0505 178.786C92.5372 167.569 104.406 162.11 110.78 152.235C113.754 147.627 115.356 142.096 113.517 136.744C111.91 132.064 108.422 128.344 105.479 124.472C102.388 120.407 100.14 116.058 99.2591 110.99C98.3583 105.806 98.736 100.453 99.6189 95.2936C101.61 83.6582 105.721 72.2823 111.224 61.8561C117.549 49.8719 125.88 39.0563 135.856 29.8774C136.474 29.3095 137.236 30.3725 136.622 30.9367L136.622 30.9367Z" fill="white"/>
<path d="M102.408 85.6416C98.4814 84.2723 95.1699 81.5539 93.065 77.9717C90.9601 74.3894 90.199 70.1766 90.9174 66.0857C91.0657 65.2585 92.36 65.4496 92.2116 66.278C91.5355 70.0862 92.2449 74.0103 94.2118 77.3421C96.1787 80.6739 99.2735 83.1938 102.938 84.4472C103.734 84.7205 103.2 85.9133 102.408 85.6416H102.408Z" fill="white"/>
<path d="M104.441 121.437C112.131 117.817 118.173 111.435 121.361 103.564C121.676 102.784 122.872 103.314 122.557 104.093C119.224 112.278 112.923 118.906 104.912 122.656C104.148 123.013 103.681 121.792 104.441 121.437L104.441 121.437Z" fill="white"/>
<path d="M118.636 51.2213C120.045 52.0673 121.642 52.5505 123.284 52.6277C124.926 52.7049 126.561 52.3737 128.044 51.6637C128.803 51.2973 129.269 52.5181 128.515 52.8821C126.874 53.6589 125.067 54.0225 123.253 53.9412C121.438 53.86 119.671 53.3362 118.106 52.4157C117.952 52.3413 117.831 52.2108 117.769 52.0508C117.707 51.8908 117.709 51.7132 117.773 51.5542C117.844 51.3964 117.974 51.273 118.136 51.2106C118.297 51.1483 118.477 51.1521 118.636 51.2213Z" fill="white"/>
<path d="M234.149 84.5345C221.923 57.5301 222.374 23.3007 241.348 0.513184C247.696 32.1118 265.033 60.4498 290.29 80.5133C300.058 88.2158 311.727 95.767 314.395 107.907C316.056 115.461 313.702 123.451 309.633 130.031C305.564 136.611 299.892 142.024 294.284 147.359L293.655 149.184C269.254 132.314 246.375 111.539 234.149 84.5345Z" fill="#F2F2F2"/>
<path d="M241.877 0.842482C237.51 24.7196 240.754 50.1444 251.368 72.0203C253.662 76.7499 256.402 81.3482 260.071 85.152C263.741 88.9575 268.129 91.3531 273.177 92.8249C277.792 94.1704 282.668 95.013 286.875 97.4552C291.309 100.029 294.061 104.349 295.133 109.302C296.445 115.363 295.498 121.533 294.361 127.534C293.099 134.197 291.683 141.098 293.512 147.797C293.733 148.609 292.459 148.904 292.238 148.094C289.057 136.44 295.242 124.946 294.377 113.229C293.974 107.761 291.918 102.382 287.223 99.2145C283.118 96.4444 278.09 95.5712 273.406 94.2492C268.487 92.8611 264.07 90.7408 260.311 87.2236C256.466 83.6257 253.54 79.1247 251.134 74.4745C245.709 63.9872 242.132 52.4326 240.24 40.7992C238.064 27.4282 238.195 13.784 240.627 0.457001C240.777 -0.367796 242.026 0.0230949 241.877 0.842482H241.877Z" fill="white"/>
<path d="M247.542 65.0916C243.581 66.3592 239.298 66.1796 235.457 64.5849C231.617 62.9901 228.469 60.0841 226.576 56.3858C226.196 55.6362 227.344 55.0106 227.725 55.7612C229.482 59.2084 232.414 61.9151 235.993 63.3928C239.573 64.8705 243.563 65.0219 247.244 63.8197C248.045 63.5594 248.337 64.8328 247.542 65.0916Z" fill="white"/>
<path d="M270.747 92.4506C274.705 84.9363 275.681 76.2084 273.481 68.0073C273.262 67.1949 274.536 66.8989 274.755 67.7103C277.028 76.2488 275.994 85.3295 271.858 93.14C271.463 93.8842 270.354 93.1908 270.747 92.4506H270.747Z" fill="white"/>
<path d="M239.746 27.8524C241.381 27.6809 242.947 27.1065 244.305 26.1809C245.663 25.2553 246.769 24.0075 247.524 22.5495C247.909 21.8007 249.018 22.495 248.635 23.2389C247.793 24.8459 246.57 26.2225 245.072 27.2484C243.574 28.2744 241.848 28.9184 240.043 29.1244C239.875 29.158 239.7 29.1264 239.554 29.0358C239.408 28.9453 239.302 28.8026 239.258 28.6369C239.219 28.4683 239.249 28.2913 239.34 28.1444C239.432 27.9975 239.577 27.8926 239.746 27.8524V27.8524Z" fill="white"/>
<path d="M341.832 0.777344C341.605 1.25174 341.378 1.72615 341.156 2.21025C338.136 8.60403 335.64 15.2323 333.694 22.0296C333.536 22.5528 333.383 23.0853 333.239 23.612C328.727 40.0382 327.307 57.1582 329.053 74.1019C329.754 80.8435 330.968 87.5221 332.683 94.0799C335.053 103.136 338.345 112.767 337.602 121.811C337.535 122.755 337.41 123.694 337.227 124.623L295.934 149.809C295.811 149.819 295.694 149.839 295.571 149.849L293.968 150.93C293.856 150.598 293.747 150.251 293.635 149.919C293.569 149.727 293.512 149.529 293.446 149.337C293.405 149.207 293.365 149.076 293.32 148.961C293.306 148.918 293.293 148.874 293.285 148.841C293.241 148.726 293.211 148.614 293.173 148.509C292.557 146.572 291.954 144.627 291.364 142.675C291.358 142.666 291.358 142.666 291.362 142.651C286.901 127.765 283.645 112.377 282.832 96.9839C282.808 96.5208 282.778 96.0485 282.772 95.5739C282.444 88.6336 282.685 81.6781 283.492 74.777C283.946 70.9995 284.591 67.2475 285.425 63.5352C287.598 53.9474 291.269 44.7605 296.301 36.3115C306.335 19.47 321.651 6.02048 340.396 1.13645C340.876 1.01186 341.347 0.892525 341.832 0.777344Z" fill="#F0F0F0"/>
<path d="M342.059 1.35757C324.177 17.7968 311.437 40.0474 306.722 63.8952C305.703 69.0511 305.118 74.3698 305.754 79.6125C306.39 84.8575 308.449 89.4084 311.592 93.6184C314.466 97.4671 317.851 101.072 319.738 105.551C321.726 110.272 321.319 115.376 319.188 119.975C316.582 125.603 312.105 129.959 307.58 134.068C302.555 138.63 297.263 143.288 294.684 149.736C294.372 150.517 293.176 149.987 293.488 149.207C297.975 137.99 309.843 132.531 316.217 122.656C319.192 118.048 320.793 112.517 318.955 107.165C317.347 102.485 313.859 98.7651 310.916 94.8933C307.826 90.8278 305.577 86.479 304.697 81.4109C303.796 76.2265 304.173 70.8737 305.056 65.7145C307.048 54.0791 311.159 42.7032 316.662 32.277C322.986 20.2928 331.317 9.47725 341.294 0.298282C341.912 -0.269583 342.673 0.793432 342.059 1.35759L342.059 1.35757Z" fill="white"/>
<path d="M307.846 56.0629C303.919 54.6937 300.607 51.9753 298.503 48.393C296.398 44.8108 295.636 40.598 296.355 36.5071C296.503 35.6799 297.797 35.871 297.649 36.6993C296.973 40.5076 297.682 44.4317 299.649 47.7635C301.616 51.0953 304.711 53.6152 308.375 54.8685C309.171 55.1418 308.637 56.3347 307.846 56.0629H307.846Z" fill="white"/>
<path d="M309.878 91.8584C317.569 88.2381 323.611 81.8562 326.799 73.9853C327.114 73.2052 328.309 73.7348 327.995 74.514C324.662 82.6984 318.361 89.327 310.349 93.0767C309.586 93.4336 309.118 92.2133 309.878 91.8584L309.878 91.8584Z" fill="white"/>
<path d="M324.073 21.6422C325.482 22.4882 327.079 22.9714 328.721 23.0486C330.363 23.1258 331.999 22.7946 333.481 22.0846C334.24 21.7182 334.707 22.939 333.953 23.303C332.311 24.0798 330.505 24.4434 328.69 24.3621C326.876 24.2809 325.109 23.7571 323.544 22.8366C323.389 22.7622 323.268 22.6317 323.207 22.4717C323.145 22.3117 323.146 22.1341 323.211 21.9751C323.281 21.8173 323.412 21.6938 323.573 21.6315C323.735 21.5692 323.915 21.573 324.073 21.6422Z" fill="white"/>
<path d="M78.3228 284.809L82.836 288.299L100.384 291.339L119.888 242.925C119.888 242.925 131.832 205.613 165.275 213.246L272.772 211.338C272.772 211.338 305.777 207.96 311.232 223.504C312.265 226.448 340.136 291.488 340.136 291.488L359.677 288.733L357.336 233.284L310.923 125.702L230.251 120.672L147.12 126.418L78.3228 284.809Z" fill="#3F3D56"/>
<path d="M167.664 216.586C184.815 216.586 198.718 202.702 198.718 185.576C198.718 168.449 184.815 154.565 167.664 154.565C150.513 154.565 136.609 168.449 136.609 185.576C136.609 202.702 150.513 216.586 167.664 216.586Z" fill="#2F2E41"/>
<path d="M271.816 216.586C288.967 216.586 302.871 202.702 302.871 185.576C302.871 168.449 288.967 154.565 271.816 154.565C254.665 154.565 240.762 168.449 240.762 185.576C240.762 202.702 254.665 216.586 271.816 216.586Z" fill="#2F2E41"/>
<path d="M131.354 83.9571L144.141 81.4534C144.141 81.4534 240.412 67.7363 301.263 83.9571L296.66 96.8383L135.654 95.8841L131.354 83.9571Z" fill="#E6E6E6"/>
<path d="M261.157 150.51H179.455C169.535 150.51 160.962 143.651 159.069 134.2L150.128 89.5438C149.93 88.5692 149.938 87.5642 150.151 86.5929C150.364 85.6216 150.778 84.7053 151.366 83.9026C151.98 83.0605 152.762 82.3535 153.662 81.8256C154.562 81.2977 155.561 80.9602 156.596 80.834C199.687 75.4929 242.356 75.4838 283.418 80.8063C284.44 80.9312 285.425 81.2647 286.312 81.786C287.198 82.3073 287.968 83.0053 288.573 83.8365C289.157 84.6276 289.572 85.5302 289.792 86.4883C290.011 87.4463 290.031 88.4392 289.85 89.4051L281.596 133.925C279.814 143.535 271.218 150.51 261.157 150.51Z" fill="#8EE26B"/>
<path d="M95.0107 91.2275L95.3665 84.837C95.422 83.8414 95.7182 82.8741 96.2298 82.0178C96.7414 81.1615 97.4532 80.4417 98.3042 79.9201C103.463 76.7599 117.378 69.8022 135.136 73.4495C136.383 73.7072 137.52 74.3421 138.393 75.2679C139.266 76.1938 139.832 77.3655 140.015 78.624L140.49 81.9491L95.0107 91.2275Z" fill="#3F3D56"/>
<path d="M345.425 91.2275L299.945 81.9491L300.709 76.6071C300.797 75.9763 301.072 75.3862 301.499 74.9127C301.926 74.4393 302.484 74.104 303.103 73.9501C323.583 68.818 339.258 77.9319 343.575 80.8475C343.985 81.1253 344.325 81.4933 344.569 81.9232C344.814 82.3532 344.956 82.8335 344.985 83.327L345.425 91.2275Z" fill="#3F3D56"/>
<path d="M80.5705 288.976C79.4745 288.987 78.3981 288.685 77.469 288.104C65.2914 281.004 57.6995 267.991 54.9213 249.439C52.6265 234.115 53.5848 214.88 57.7695 192.269C65.1885 152.181 80.7382 112.112 87.0793 96.7448C87.9193 94.7165 89.2247 92.9136 90.8902 91.4814C92.5558 90.0491 94.535 89.0275 96.6683 88.4989C109.741 85.2881 132.561 79.9019 138.521 79.9019C146.688 79.9019 151.107 87.5792 151.151 87.6568L151.175 87.7201L158.348 118.778V119.227C162.305 132.596 159.365 142.253 156.199 148.001C152.764 154.24 148.318 157.354 148.274 157.385C141.294 162.692 129.921 179.787 118.602 201.994C106.841 225.071 98.1214 247.842 95.2791 262.907C91.8002 281.346 86.7004 286.991 83.0348 288.479C82.2536 288.803 81.4165 288.972 80.5705 288.976Z" fill="#E6E6E6"/>
<path d="M258.463 146.693H181.267C176.71 146.687 172.298 145.101 168.782 142.207C165.267 139.313 162.866 135.29 161.991 130.824L153.543 87.3928C153.356 86.4315 153.367 85.4419 153.578 84.4852C153.788 83.5286 154.193 82.6251 154.766 81.8307C155.34 81.0363 156.071 80.3678 156.913 79.8664C157.756 79.3651 158.693 79.0415 159.665 78.9158C200.382 73.7213 240.7 73.7124 279.5 78.8888C280.459 79.0192 281.382 79.3421 282.213 79.8382C283.043 80.3343 283.765 80.9933 284.334 81.7753C284.902 82.5574 285.307 83.4464 285.522 84.3887C285.738 85.331 285.76 86.3071 285.587 87.2582L277.789 130.557C276.977 135.084 274.595 139.181 271.062 142.131C267.529 145.081 263.069 146.696 258.463 146.693Z" fill="#E6E6E6"/>
<path d="M359.867 288.976C359.021 288.972 358.183 288.803 357.401 288.479C353.736 286.991 348.636 281.346 345.157 262.907C342.315 247.842 333.596 225.071 321.834 201.994C310.515 179.787 299.143 162.692 292.153 157.379C292.118 157.354 287.672 154.24 284.237 148.001C281.071 142.253 278.131 132.596 282.088 119.227L282.094 118.725L289.268 87.6866L289.285 87.6568C289.329 87.5792 293.748 79.9019 301.915 79.9019C307.875 79.9019 330.695 85.2881 343.768 88.4989C345.901 89.0276 347.88 90.0493 349.546 91.4815C351.211 92.9138 352.517 94.7166 353.357 96.7448C359.698 112.112 375.248 152.181 382.667 192.269C386.851 214.88 387.81 234.115 385.515 249.439C382.737 267.991 375.145 281.004 362.95 288.115C362.026 288.69 360.956 288.989 359.867 288.976Z" fill="#E6E6E6"/>
<path d="M167.664 198.934C177.955 198.934 186.297 190.604 186.297 180.328C186.297 170.052 177.955 161.722 167.664 161.722C157.373 161.722 149.031 170.052 149.031 180.328C149.031 190.604 157.373 198.934 167.664 198.934Z" fill="#3F3D56"/>
<path d="M167.664 192.732C174.524 192.732 180.086 187.178 180.086 180.327C180.086 173.477 174.524 167.923 167.664 167.923C160.804 167.923 155.242 173.477 155.242 180.327C155.242 187.178 160.804 192.732 167.664 192.732Z" fill="#2F2E41"/>
<path d="M271.816 198.934C282.107 198.934 290.449 190.604 290.449 180.328C290.449 170.052 282.107 161.722 271.816 161.722C261.526 161.722 253.184 170.052 253.184 180.328C253.184 190.604 261.526 198.934 271.816 198.934Z" fill="#3F3D56"/>
<path d="M271.816 192.732C278.677 192.732 284.238 187.178 284.238 180.327C284.238 173.477 278.677 167.923 271.816 167.923C264.956 167.923 259.395 173.477 259.395 180.327C259.395 187.178 264.956 192.732 271.816 192.732Z" fill="#2F2E41"/>
<path d="M208.274 157.905C209.066 157.905 209.707 157.264 209.707 156.474C209.707 155.683 209.066 155.042 208.274 155.042C207.483 155.042 206.841 155.683 206.841 156.474C206.841 157.264 207.483 157.905 208.274 157.905Z" fill="#2F2E41"/>
<path d="M214.485 157.905C215.276 157.905 215.918 157.264 215.918 156.474C215.918 155.683 215.276 155.042 214.485 155.042C213.693 155.042 213.051 155.683 213.051 156.474C213.051 157.264 213.693 157.905 214.485 157.905Z" fill="#2F2E41"/>
<path d="M211.618 163.153C212.41 163.153 213.052 162.512 213.052 161.721C213.052 160.931 212.41 160.29 211.618 160.29C210.827 160.29 210.185 160.931 210.185 161.721C210.185 162.512 210.827 163.153 211.618 163.153Z" fill="#2F2E41"/>
<path d="M217.351 163.153C218.143 163.153 218.785 162.512 218.785 161.721C218.785 160.931 218.143 160.29 217.351 160.29C216.56 160.29 215.918 160.931 215.918 161.721C215.918 162.512 216.56 163.153 217.351 163.153Z" fill="#2F2E41"/>
<path d="M223.085 163.153C223.876 163.153 224.518 162.512 224.518 161.721C224.518 160.931 223.876 160.29 223.085 160.29C222.293 160.29 221.651 160.931 221.651 161.721C221.651 162.512 222.293 163.153 223.085 163.153Z" fill="#2F2E41"/>
<path d="M228.818 163.153C229.609 163.153 230.251 162.512 230.251 161.721C230.251 160.931 229.609 160.29 228.818 160.29C228.026 160.29 227.384 160.931 227.384 161.721C227.384 162.512 228.026 163.153 228.818 163.153Z" fill="#2F2E41"/>
<path d="M220.695 157.905C221.487 157.905 222.129 157.264 222.129 156.474C222.129 155.683 221.487 155.042 220.695 155.042C219.904 155.042 219.262 155.683 219.262 156.474C219.262 157.264 219.904 157.905 220.695 157.905Z" fill="#2F2E41"/>
<path d="M226.906 157.905C227.698 157.905 228.34 157.264 228.34 156.474C228.34 155.683 227.698 155.042 226.906 155.042C226.115 155.042 225.473 155.683 225.473 156.474C225.473 157.264 226.115 157.905 226.906 157.905Z" fill="#2F2E41"/>
<path d="M233.117 157.905C233.909 157.905 234.551 157.264 234.551 156.474C234.551 155.683 233.909 155.042 233.117 155.042C232.326 155.042 231.684 155.683 231.684 156.474C231.684 157.264 232.326 157.905 233.117 157.905Z" fill="#2F2E41"/>
<path d="M226.429 200.604H214.007C213.437 200.604 212.89 200.378 212.487 199.975C212.083 199.572 211.857 199.026 211.857 198.457C211.857 197.888 212.083 197.341 212.487 196.939C212.89 196.536 213.437 196.31 214.007 196.31H226.429C226.999 196.31 227.546 196.536 227.949 196.939C228.352 197.341 228.579 197.888 228.579 198.457C228.579 199.026 228.352 199.572 227.949 199.975C227.546 200.378 226.999 200.604 226.429 200.604Z" fill="#2F2E41"/>
<path d="M144.179 107.28C143.378 107.278 142.6 107.006 141.972 106.508C141.344 106.011 140.902 105.316 140.718 104.537L138.813 96.461C138.598 95.543 138.756 94.5771 139.253 93.7755C139.75 92.974 140.546 92.4023 141.465 92.1861C142.384 91.9699 143.352 92.1269 144.155 92.6226C144.958 93.1183 145.531 93.9121 145.749 94.8297L147.654 102.906C147.776 103.429 147.779 103.972 147.661 104.496C147.544 105.02 147.309 105.511 146.975 105.931C146.641 106.352 146.216 106.692 145.732 106.926C145.248 107.159 144.717 107.28 144.179 107.28Z" fill="#3F3D56"/>
<path d="M296.734 106.803C296.197 106.803 295.666 106.682 295.182 106.448C294.698 106.215 294.273 105.875 293.938 105.454C293.604 105.034 293.37 104.543 293.252 104.019C293.135 103.495 293.137 102.952 293.26 102.429L295.165 94.3526C295.382 93.4351 295.956 92.6412 296.759 92.1455C297.562 91.6499 298.53 91.4929 299.449 91.709C300.368 91.9252 301.163 92.4969 301.66 93.2985C302.158 94.1001 302.316 95.0659 302.1 95.9839L300.195 104.06C300.011 104.839 299.57 105.534 298.942 106.031C298.314 106.529 297.536 106.801 296.734 106.803Z" fill="#3F3D56"/>
<path d="M117.895 131.118C116.722 131.119 115.578 130.758 114.618 130.086L110.62 127.291C109.867 126.765 109.253 126.065 108.829 125.252C108.405 124.438 108.183 123.534 108.183 122.617V114.056C108.185 112.337 108.869 110.689 110.087 109.474C111.304 108.258 112.954 107.575 114.676 107.573H120.8C122.522 107.575 124.172 108.258 125.389 109.474C126.606 110.689 127.291 112.337 127.293 114.056V122.701C127.291 123.595 127.08 124.475 126.677 125.273C126.273 126.07 125.688 126.762 124.969 127.294L121.284 130.005C120.302 130.728 119.115 131.119 117.895 131.118Z" fill="#3F3D56"/>
<path d="M120.8 162.437H114.676C112.954 162.435 111.304 161.752 110.087 160.536C108.869 159.321 108.185 157.672 108.183 155.954V147.393C108.183 146.476 108.405 145.572 108.829 144.758C109.253 143.945 109.867 143.245 110.62 142.719L114.618 139.924C115.598 139.238 116.768 138.877 117.964 138.892C119.16 138.907 120.321 139.296 121.284 140.005L124.969 142.716C125.688 143.247 126.273 143.94 126.677 144.737C127.08 145.535 127.291 146.415 127.293 147.309V155.954C127.291 157.672 126.606 159.321 125.389 160.536C124.172 161.752 122.522 162.435 120.8 162.437Z" fill="#3F3D56"/>
<path d="M139.911 144.547H131.338C130.419 144.546 129.514 144.325 128.7 143.901C127.885 143.478 127.184 142.864 126.657 142.113L123.858 138.12C123.172 137.142 122.81 135.973 122.825 134.779C122.839 133.585 123.229 132.425 123.939 131.464L126.654 127.784C127.186 127.066 127.88 126.482 128.678 126.079C129.477 125.676 130.359 125.465 131.254 125.463H139.911C141.632 125.465 143.282 126.149 144.5 127.365C145.717 128.58 146.402 130.228 146.404 131.947V138.063C146.402 139.782 145.717 141.43 144.5 142.645C143.282 143.861 141.632 144.545 139.911 144.547Z" fill="#3F3D56"/>
<path d="M103.66 144.547H95.0877C93.3662 144.545 91.7159 143.861 90.4986 142.645C89.2814 141.43 88.5967 139.782 88.5947 138.063V131.947C88.5967 130.228 89.2814 128.58 90.4986 127.365C91.7159 126.149 93.3662 125.465 95.0877 125.463H103.745C104.639 125.465 105.521 125.676 106.32 126.079C107.119 126.482 107.812 127.066 108.344 127.784L111.059 131.464C111.769 132.425 112.159 133.585 112.174 134.779C112.188 135.973 111.827 137.142 111.14 138.12L108.341 142.113C107.814 142.864 107.113 143.478 106.299 143.901C105.484 144.325 104.579 144.546 103.66 144.547Z" fill="#3F3D56"/>
<path d="M322.937 121.647C329.006 121.647 333.925 116.734 333.925 110.674C333.925 104.614 329.006 99.7012 322.937 99.7012C316.868 99.7012 311.948 104.614 311.948 110.674C311.948 116.734 316.868 121.647 322.937 121.647Z" fill="#3F3D56"/>
<path d="M347.302 146.932C353.371 146.932 358.291 142.019 358.291 135.959C358.291 129.899 353.371 124.986 347.302 124.986C341.234 124.986 336.314 129.899 336.314 135.959C336.314 142.019 341.234 146.932 347.302 146.932Z" fill="#3F3D56"/>
<path d="M322.937 170.786C329.006 170.786 333.925 165.873 333.925 159.813C333.925 153.753 329.006 148.84 322.937 148.84C316.868 148.84 311.948 153.753 311.948 159.813C311.948 165.873 316.868 170.786 322.937 170.786Z" fill="#3F3D56"/>
<path d="M298.571 146.455C304.64 146.455 309.56 141.542 309.56 135.482C309.56 129.422 304.64 124.509 298.571 124.509C292.502 124.509 287.583 129.422 287.583 135.482C287.583 141.542 292.502 146.455 298.571 146.455Z" fill="#3F3D56"/>
<path d="M347.303 143.115C345.885 143.115 344.5 142.695 343.321 141.909C342.143 141.123 341.224 140.005 340.682 138.698C340.139 137.39 339.997 135.951 340.274 134.563C340.55 133.175 341.233 131.9 342.235 130.899C343.237 129.898 344.514 129.216 345.905 128.94C347.295 128.664 348.736 128.806 350.045 129.347C351.355 129.889 352.474 130.806 353.261 131.983C354.049 133.16 354.469 134.544 354.469 135.959C354.467 137.856 353.711 139.675 352.368 141.017C351.024 142.358 349.203 143.113 347.303 143.115ZM347.303 129.757C346.074 129.757 344.873 130.121 343.852 130.802C342.831 131.484 342.035 132.452 341.565 133.586C341.094 134.719 340.971 135.966 341.211 137.169C341.451 138.372 342.042 139.477 342.911 140.344C343.78 141.212 344.886 141.803 346.091 142.042C347.296 142.281 348.545 142.158 349.679 141.689C350.814 141.219 351.784 140.425 352.467 139.405C353.149 138.385 353.514 137.186 353.514 135.959C353.512 134.315 352.857 132.738 351.692 131.575C350.528 130.413 348.949 129.759 347.303 129.757Z" fill="#E6E6E6"/>
<path d="M330.615 115.998L316.213 115.794L323.591 103.441L330.615 115.998ZM317.882 114.864L328.974 115.02L323.564 105.35L317.882 114.864Z" fill="#E6E6E6"/>
<path d="M304.304 141.207H292.838V129.757H304.304V141.207ZM293.793 140.253H303.349V130.711H293.793V140.253Z" fill="#E6E6E6"/>
<path d="M328.866 164.74L323.613 159.504L328.246 154.887L327.57 154.211L322.937 158.83L318.303 154.211L317.628 154.887L322.26 159.504L317.007 164.74L317.682 165.415L322.937 160.178L328.191 165.415L328.866 164.74Z" fill="#E6E6E6"/>
<path d="M117.879 35.2275C116.462 35.2275 115.076 34.8078 113.898 34.0214C112.719 33.2351 111.801 32.1175 111.258 30.8098C110.716 29.5022 110.574 28.0633 110.851 26.6752C111.127 25.287 111.81 24.0119 112.812 23.0111C113.814 22.0102 115.091 21.3287 116.481 21.0525C117.871 20.7764 119.312 20.9181 120.622 21.4598C121.931 22.0014 123.051 22.9186 123.838 24.0955C124.625 25.2723 125.046 26.6559 125.046 28.0713C125.044 29.9685 124.288 31.7875 122.944 33.1291C121.601 34.4707 119.779 35.2253 117.879 35.2275ZM117.879 21.8692C116.651 21.8692 115.45 22.233 114.429 22.9144C113.407 23.5959 112.611 24.5646 112.141 25.6978C111.671 26.8311 111.548 28.0781 111.788 29.2812C112.027 30.4843 112.619 31.5894 113.488 32.4568C114.356 33.3241 115.463 33.9148 116.668 34.1541C117.872 34.3935 119.121 34.2706 120.256 33.8012C121.391 33.3318 122.361 32.5369 123.043 31.5169C123.726 30.497 124.09 29.2979 124.09 28.0713C124.088 26.4269 123.433 24.8505 122.269 23.6878C121.105 22.525 119.526 21.871 117.879 21.8692Z" fill="#E6E6E6"/>
<path d="M101.669 23.3768L87.2676 23.1734L94.6451 10.8203L101.669 23.3768ZM88.936 22.2425L100.028 22.3993L94.6181 12.7286L88.936 22.2425Z" fill="#E6E6E6"/>
<path d="M80.4726 40.7815H69.0063V29.3315H80.4726V40.7815ZM69.9619 39.8273H79.5171V30.2857H69.9619V39.8273Z" fill="#E6E6E6"/>
<path d="M90.8429 62.099L85.5899 56.8636L90.2223 52.2468L89.5472 51.5713L84.9134 56.1894L80.2796 51.5713L79.6045 52.2468L84.2369 56.8636L78.9839 62.099L79.659 62.7746L84.9134 57.5377L90.1678 62.7746L90.8429 62.099Z" fill="#E6E6E6"/>
<path opacity="0.2" d="M414.428 164.345L395.884 178.282L416.817 169.116L414.428 164.345Z" fill="black"/>
<path d="M71.3951 181.52L47.9847 182.475L45.1182 166.731L65.1842 160.529L71.3951 181.52Z" fill="#A0616A"/>
<path d="M62.7884 142.936L57.5669 137.627L63.9692 127.852L74.9271 109.637C74.5691 108.853 74.458 107.978 74.6087 107.129C74.7593 106.28 75.1645 105.496 75.7707 104.882C76.3769 104.268 77.1555 103.852 78.0036 103.69C78.8516 103.527 79.7291 103.625 80.5199 103.972C81.3108 104.318 81.9777 104.896 82.4326 105.629C82.8874 106.362 83.1087 107.215 83.0671 108.077C83.0256 108.938 82.7231 109.766 82.1999 110.452C81.6766 111.138 80.9571 111.649 80.1366 111.918L71.0917 131.363L62.7884 142.936Z" fill="#A0616A"/>
<path d="M57.0042 155.056C56.3911 156.004 55.5176 156.756 54.488 157.222C53.4584 157.687 52.3164 157.847 51.1984 157.681C50.1343 157.556 49.13 157.123 48.3089 156.436C47.4877 155.748 46.8855 154.836 46.576 153.812C46.3481 153.085 46.2817 152.317 46.3815 151.562C46.4813 150.807 46.7449 150.082 47.154 149.439C50.647 143.559 57.0894 135.793 57.154 135.716L57.2565 135.592L68.1224 137.943L57.0042 155.056Z" fill="#8EE26B"/>
<path d="M65.8154 285.186L72.3077 285.185L75.396 260.179L65.814 260.18L65.8154 285.186Z" fill="#A0616A"/>
<path d="M64.1592 283.069L76.945 283.069H76.9455C79.1065 283.069 81.1789 283.926 82.7069 285.452C84.235 286.978 85.0935 289.047 85.0936 291.205V291.47L64.1596 291.47L64.1592 283.069Z" fill="#2F2E41"/>
<path d="M15.2637 282.38L21.6829 283.348L28.4805 259.084L20.0652 257.654L15.2637 282.38Z" fill="#A0616A"/>
<path d="M13.9428 280.04L26.585 281.948L26.5855 281.948C28.7222 282.27 30.643 283.427 31.9255 285.164C33.2079 286.901 33.747 289.075 33.4241 291.209L33.3845 291.47L12.6855 288.346L13.9428 280.04Z" fill="#2F2E41"/>
<path d="M47.0291 177.704L69.4839 173.887L76.4318 188.188L76.6966 281.523L64.3726 281.446L59.221 205.903L26.388 275.706L13.1489 274.12L42.0101 199.293C42.0101 199.293 40.4215 186.073 45.4523 179.463L47.0291 177.704Z" fill="#2F2E41"/>
<path d="M38.693 149.528C38.3498 148.498 38.3133 147.391 38.588 146.342C38.8627 145.292 39.4368 144.344 40.2404 143.614L43.4316 140.718L52.4284 139.204L58.0537 138.183L67.0951 164.345L45.1357 174.42C43.2085 174.004 42.4388 172.952 43.5601 170.859L38.693 149.528Z" fill="#8EE26B"/>
<path d="M58.8467 158.356L65.1284 154.353L73.3817 162.629L88.9609 177.103C89.8038 176.915 90.6838 176.988 91.4845 177.311C92.2852 177.633 92.9689 178.191 93.4452 178.911C93.9215 179.63 94.1679 180.477 94.1517 181.339C94.1356 182.201 93.8578 183.038 93.355 183.739C92.8522 184.44 92.1481 184.972 91.3358 185.265C90.5236 185.557 89.6415 185.597 88.8062 185.378C87.971 185.16 87.2219 184.693 86.6581 184.04C86.0943 183.386 85.7423 182.578 85.6488 181.721L68.4677 168.862L58.8467 158.356Z" fill="#A0616A"/>
<path d="M48.1678 150.197C47.3658 149.402 46.81 148.393 46.5669 147.291C46.3238 146.189 46.4037 145.04 46.797 143.982C47.1403 142.969 47.7724 142.078 48.6156 141.418C49.4589 140.757 50.4767 140.358 51.5442 140.267C52.3037 140.195 53.0698 140.289 53.7891 140.542C54.5085 140.796 55.1638 141.203 55.7093 141.736C60.7477 146.365 67.0236 154.266 67.0862 154.345L67.1859 154.47L62.635 164.6L48.1678 150.197Z" fill="#8EE26B"/>
<path d="M48.4803 136.021C53.9345 136.021 58.356 131.606 58.356 126.16C58.356 120.713 53.9345 116.298 48.4803 116.298C43.026 116.298 38.6045 120.713 38.6045 126.16C38.6045 131.606 43.026 136.021 48.4803 136.021Z" fill="#A0616A"/>
<path d="M40.4845 140.209C38.953 140.209 37.423 140.115 35.9028 139.93L35.6944 139.905L34.1036 131.281C33.429 127.625 34.1812 123.85 36.2059 120.731C38.2306 117.611 41.3743 115.384 44.9916 114.506C45.233 114.445 45.4865 114.452 45.7244 114.525C45.9623 114.599 46.1752 114.736 46.3398 114.923L46.7192 114.791C48.1717 114.285 49.7098 114.07 51.2456 114.158C52.7814 114.246 54.2849 114.635 55.6702 115.303C57.0554 115.971 58.2953 116.904 59.3191 118.051C60.343 119.198 61.1306 120.534 61.6371 121.985L61.7311 122.254L59.1993 123.136C58.4104 123.41 57.6928 123.857 57.0986 124.444C56.5044 125.03 56.0486 125.741 55.7644 126.526C55.4801 127.31 55.3745 128.148 55.4553 128.979C55.5361 129.809 55.8012 130.611 56.2314 131.326L58.82 135.629L58.5444 135.767C52.9574 138.644 46.7703 140.166 40.4845 140.209Z" fill="#2F2E41"/>
<path d="M379.771 181.477C379.886 180.925 380.119 180.406 380.457 179.954C380.794 179.503 381.226 179.131 381.723 178.865C382.219 178.598 382.768 178.444 383.331 178.412C383.894 178.381 384.457 178.473 384.981 178.682L393.963 168.345L395.884 175.193L387.06 183.959C386.65 184.814 385.94 185.489 385.065 185.856C384.189 186.223 383.21 186.257 382.311 185.951C381.413 185.645 380.658 185.02 380.19 184.196C379.722 183.371 379.573 182.404 379.771 181.477H379.771Z" fill="#FFB6B6"/>
<path d="M419.851 136.03L423.531 135.832L424.085 138.167C424.085 138.167 424.03 141.158 420.675 147.374C417.32 153.591 391.325 181.269 391.325 181.269L385.695 174.888L399.61 160.576L408.037 145.575L419.851 136.03Z" fill="#8EE26B"/>
<path d="M0.595773 292H437.404C437.562 292 437.714 291.937 437.826 291.826C437.937 291.714 438 291.563 438 291.405C438 291.247 437.937 291.096 437.826 290.984C437.714 290.873 437.562 290.81 437.404 290.81H0.595773C0.437766 290.81 0.286231 290.873 0.174502 290.984C0.062774 291.096 0 291.247 0 291.405C0 291.563 0.062774 291.714 0.174502 291.826C0.286231 291.937 0.437766 292 0.595773 292Z" fill="#CCCCCC"/>
</g>
<defs>
<clipPath id="clip0_581_263">
<rect width="438" height="292" fill="white"/>
</clipPath>
</defs>
</svg>
