<svg width="883" height="491" viewBox="0 0 883 491" fill="none" xmlns="http://www.w3.org/2000/svg">
<g filter="url(#filter0_d_805_2)">
<path d="M5.00014 0V483M588.013 0V483" stroke="black" stroke-opacity="0.45"/>
<g clip-path="url(#clip0_805_2)">
<path d="M790.843 115.272L766.551 97.9119L753.16 92.384L751.581 85.0157C755.556 82.6593 758.004 78.4688 758.004 73.9727C758.004 66.8208 751.946 61 744.488 61C737.036 61 730.971 66.8208 730.971 73.9727C730.971 78.8064 733.818 83.2771 738.27 85.4997L736.989 92.9636L726.585 97.7846H725.941L724.747 98.6379L723.048 99.4213L723.108 99.8098L671.171 110.547L677.203 117.915L725.025 113.26L725.735 150.796L729.783 239.14L729.279 253.482L742.125 253.998L740.632 239.159L747.361 165.501L757.394 239.643L757.891 253.055H769.822L767.294 149.115L767.055 143.606L766.989 142.129L765.695 142.944L765.761 144.428L765.967 149.115L763.585 196.178V196.223L768.382 251.782H759.172L758.721 239.573L746.85 156.547L739.305 239.108L739.299 239.166L740.659 252.661L730.652 252.259L731.104 239.166L727.063 150.732L726.313 110.923L677.495 116.209L673.056 110.789L724.534 100.377L724.508 100.16L725.384 99.7588L726.379 99.0583H726.89L738.184 93.8233L739.624 85.4424L740.141 84.9456L739.292 84.5572C735.045 82.6339 732.298 78.4816 732.298 73.9727C732.298 67.5214 737.766 62.2737 744.488 62.2737C751.209 62.2737 756.677 67.5214 756.677 73.9727C756.677 78.1695 754.315 82.067 750.513 84.1496L750.095 84.3788L752.006 93.2947L765.821 98.9755L789.974 116.241L791.175 117.1L791.932 116.75L792.038 116.126L790.843 115.273V115.272ZM764.248 109.815L765.177 131.086L765.244 132.62L766.537 131.697L766.471 130.162L765.688 112.247L779.39 120.928L780.883 121.87L782.27 121.227L780.983 120.412L764.248 109.815V109.815ZM764.248 109.815L765.177 131.086L766.471 130.162L765.688 112.247L779.39 120.928L779.689 120.711H780.333L780.983 120.412L764.248 109.815H764.248Z" fill="#3F3D56"/>
<path d="M864.166 187.396L784.646 129.41L783.969 128.302L782.012 65.6997C780.764 65.7252 785.608 63.5535 790.498 67.0371L854.996 112.929C858.128 115.158 860.139 118.571 860.517 122.29L866.502 181.276C866.986 186.071 863.251 189.389 864.166 187.396V187.396Z" fill="#8EE26B"/>
<path d="M842.722 126.219L870.021 103.206L877.715 96.7211C878.679 95.9081 877.267 94.5613 876.307 95.3701L849.008 118.383L841.315 124.868C840.35 125.681 841.763 127.028 842.722 126.219V126.219Z" fill="#3F3D56"/>
<path d="M858.352 98.9832L868.35 97.1459L873.511 96.1975C874.466 96.022 876.781 95.1395 877.036 96.5465C877.262 97.7967 876.718 99.3143 876.5 100.539L875.643 105.362L873.9 115.164C873.685 116.376 875.669 116.538 875.883 115.332C876.879 109.731 877.883 104.132 878.87 98.5295C879.217 96.5624 879.022 94.0785 876.397 93.8797C875.068 93.779 873.642 94.2278 872.347 94.4658L867.992 95.2659L857.994 97.1032C856.738 97.3341 857.089 99.2152 858.352 98.9832V98.9832Z" fill="#3F3D56"/>
<path d="M829.06 110.024L828.036 110.834L851.757 138.464L852.781 137.654L829.06 110.024Z" fill="#3F3D56"/>
<path d="M473.977 310.78C473.417 309.873 470.994 310.844 470.548 310.021C470.104 309.201 472.356 307.952 473.642 305.098C473.874 304.584 475.336 301.341 474.254 300.34C472.203 298.443 462.815 306.271 459.529 303.709C458.808 303.147 458.305 302.025 456.122 300.203C455.254 299.478 454.729 299.151 454.221 299.272C453.501 299.445 453.443 300.371 452.67 302.192C451.511 304.922 450.826 304.757 450.15 306.936C449.649 308.553 449.763 309.493 449.173 309.676C448.338 309.935 447.57 308.22 446.512 308.374C445.432 308.53 444.779 310.528 444.573 312.023C444.186 314.829 445.26 316.68 445.855 318.627C446.502 320.743 446.885 323.961 445.392 328.516L430.61 368.489C433.873 360.287 443.323 337.802 447.293 329.446C448.439 327.034 449.705 324.588 452.304 323.622C454.805 322.693 458.241 323.248 462.622 322.235C463.134 322.117 464.553 321.77 464.732 320.968C464.88 320.306 464.045 319.936 464.173 319.316C464.345 318.483 465.987 318.473 468.005 317.513C469.428 316.835 470.315 316.03 471.077 315.338C471.307 315.129 474.723 311.987 473.978 310.78H473.977V310.78Z" fill="#F2F2F2"/>
<path d="M415.82 331.823C415.195 331.826 414.992 333.247 414.443 333.22C413.895 333.192 413.906 331.771 412.818 330.342C412.622 330.084 411.385 328.46 410.561 328.681C408.999 329.1 410.294 335.781 408.036 336.589C407.54 336.767 406.821 336.68 405.26 337.182C404.638 337.382 404.32 337.535 404.235 337.809C404.116 338.199 404.573 338.493 405.281 339.382C406.342 340.716 406.06 340.991 406.979 341.938C407.662 342.641 408.176 342.858 408.099 343.189C407.991 343.657 406.892 343.524 406.665 344.067C406.434 344.621 407.267 345.504 407.972 346.033C409.295 347.025 410.552 347.053 411.719 347.335C412.988 347.641 414.744 348.388 416.643 350.406L432.819 368.903C429.566 364.999 420.794 354.06 417.667 349.779C416.764 348.543 415.878 347.241 416.134 345.738C416.381 344.292 417.656 342.833 418.402 340.477C418.489 340.202 418.721 339.434 418.363 339.118C418.067 338.857 417.637 339.144 417.356 338.905C416.98 338.583 417.449 337.807 417.54 336.579C417.604 335.713 417.448 335.064 417.314 334.505C417.274 334.336 416.653 331.82 415.82 331.823V331.823H415.82Z" fill="#F2F2F2"/>
<path d="M428.295 334.511L427.918 331.283L428.09 331.038C428.887 329.907 429.293 328.802 429.297 327.753C429.298 327.586 429.29 327.42 429.282 327.25C429.25 326.576 429.209 325.74 429.664 324.764C429.919 324.22 430.635 322.961 431.711 323.117C432.001 323.156 432.22 323.283 432.387 323.433C432.411 323.396 432.436 323.358 432.463 323.318C432.798 322.827 433.064 322.616 433.32 322.414C433.516 322.258 433.719 322.097 434.037 321.717C434.177 321.55 434.286 321.404 434.378 321.281C434.656 320.908 435.02 320.464 435.661 320.472C436.347 320.503 436.705 321.047 436.943 321.407C437.368 322.049 437.56 322.512 437.688 322.819C437.734 322.931 437.787 323.057 437.814 323.096C438.035 323.408 439.83 323.117 440.506 323.011C442.025 322.767 443.34 322.557 443.881 323.477C444.269 324.134 443.981 325.004 442.999 326.131C442.693 326.481 442.367 326.748 442.078 326.957C442.318 327.094 442.532 327.304 442.619 327.635C442.823 328.417 442.123 329.201 440.537 329.968C440.143 330.159 439.613 330.415 438.87 330.538C438.52 330.596 438.205 330.61 437.936 330.618C437.93 330.767 437.893 330.929 437.798 331.096C437.52 331.587 436.94 331.821 436.066 331.765C435.105 331.716 434.314 331.54 433.615 331.386C433.006 331.252 432.48 331.138 432.068 331.165C431.303 331.224 430.713 331.812 430.022 332.574L428.295 334.511H428.295H428.295Z" fill="#F2F2F2"/>
<path d="M430.042 315.293L426.885 316.461L426.594 316.364C425.252 315.911 424.035 315.815 422.977 316.076C422.809 316.118 422.643 316.168 422.474 316.218C421.803 316.419 420.97 316.669 419.872 316.494C419.259 316.396 417.808 316.05 417.692 315.011C417.658 314.732 417.731 314.496 417.839 314.304C417.795 314.291 417.751 314.277 417.704 314.262C417.124 314.076 416.845 313.882 416.575 313.696C416.369 313.554 416.155 313.406 415.691 313.207C415.488 313.119 415.313 313.056 415.165 313.002C414.719 312.838 414.179 312.613 414.024 312.015C413.882 311.371 414.339 310.9 414.642 310.588C415.181 310.031 415.599 309.735 415.876 309.538C415.977 309.467 416.091 309.386 416.124 309.351C416.382 309.067 415.633 307.474 415.354 306.873C414.724 305.525 414.178 304.358 414.968 303.622C415.532 303.095 416.482 303.142 417.867 303.768C418.298 303.963 418.649 304.198 418.933 304.413C419.01 304.156 419.168 303.904 419.479 303.739C420.215 303.351 421.183 303.802 422.358 305.08C422.651 305.397 423.043 305.824 423.356 306.483C423.503 306.793 423.597 307.082 423.673 307.33C423.825 307.298 423.998 307.29 424.19 307.336C424.756 307.47 425.138 307.949 425.303 308.775C425.498 309.679 425.522 310.459 425.543 311.146C425.563 311.746 425.582 312.263 425.713 312.639C425.967 313.334 426.708 313.732 427.652 314.181L430.042 315.293L430.042 315.293V315.293Z" fill="#F2F2F2"/>
<path d="M428.295 305.784L427.918 302.557L428.09 302.312C428.887 301.18 429.293 300.075 429.297 299.027C429.298 298.86 429.29 298.693 429.282 298.523C429.25 297.85 429.209 297.013 429.664 296.037C429.919 295.493 430.635 294.234 431.711 294.39C432.001 294.429 432.22 294.557 432.387 294.706C432.411 294.669 432.436 294.632 432.463 294.591C432.798 294.1 433.064 293.89 433.32 293.687C433.516 293.531 433.719 293.371 434.037 292.99C434.177 292.824 434.286 292.677 434.378 292.554C434.656 292.182 435.02 291.737 435.661 291.745C436.347 291.776 436.705 292.32 436.943 292.68C437.368 293.322 437.56 293.785 437.688 294.092C437.734 294.205 437.787 294.331 437.814 294.37C438.035 294.681 439.83 294.39 440.506 294.284C442.025 294.041 443.34 293.83 443.881 294.75C444.269 295.408 443.981 296.277 442.999 297.404C442.693 297.755 442.367 298.021 442.078 298.23C442.318 298.367 442.532 298.578 442.619 298.908C442.823 299.69 442.123 300.474 440.537 301.241C440.143 301.433 439.613 301.689 438.87 301.812C438.52 301.869 438.205 301.883 437.936 301.891C437.93 302.041 437.893 302.203 437.798 302.37C437.52 302.861 436.94 303.094 436.066 303.038C435.105 302.99 434.314 302.814 433.615 302.659C433.006 302.525 432.48 302.412 432.068 302.438C431.303 302.497 430.713 303.085 430.022 303.847L428.295 305.784H428.295H428.295Z" fill="#F2F2F2"/>
<path d="M431.736 368.437L431.031 368.013L430.86 367.232L431.031 368.013L430.209 368.103C430.196 368.03 430.151 367.862 430.084 367.598C429.716 366.155 428.595 361.763 427.66 354.846C427.007 350.018 426.637 345.054 426.561 340.09C426.485 335.119 426.73 331.355 426.926 328.33C427.075 326.048 427.255 323.876 427.432 321.759C427.903 316.105 428.347 310.764 428.017 304.851C427.944 303.531 427.79 300.783 426.118 297.86C425.148 296.164 423.811 294.658 422.145 293.387L423.181 292.137C425.02 293.542 426.499 295.21 427.576 297.093C429.43 300.334 429.598 303.328 429.678 304.767C430.014 310.784 429.565 316.177 429.089 321.886C428.914 323.994 428.734 326.157 428.586 328.43C428.391 331.427 428.148 335.158 428.224 340.066C428.299 344.97 428.664 349.873 429.308 354.641C430.232 361.47 431.337 365.797 431.7 367.218C431.893 367.977 431.934 368.136 431.736 368.437V368.437H431.736Z" fill="#F2F2F2"/>
<path d="M419.096 295.922C419.027 295.922 418.958 295.921 418.889 295.916C417.473 295.843 416.161 295.029 414.99 293.499C414.442 292.779 414.161 291.957 413.6 290.319C413.514 290.067 413.091 288.786 412.835 287.023C412.667 285.871 412.688 285.39 412.926 284.964C413.19 284.49 413.617 284.16 414.097 283.937C414.076 283.784 414.093 283.627 414.162 283.467C414.446 282.801 415.199 282.888 415.607 282.93C415.813 282.955 416.07 282.988 416.348 282.974C416.785 282.954 417.019 282.829 417.375 282.642C417.715 282.463 418.138 282.24 418.766 282.117C420.003 281.869 421.04 282.206 421.382 282.316C423.18 282.891 424.067 284.233 425.093 285.787C425.298 286.099 426 287.233 426.464 288.789C426.798 289.911 426.751 290.41 426.651 290.781C426.446 291.543 425.963 291.979 424.736 292.942C423.455 293.951 422.812 294.456 422.26 294.763C420.974 295.475 420.167 295.922 419.096 295.922V295.922H419.096Z" fill="#F2F2F2"/>
<path d="M750.417 367.856C750.417 368.152 750.167 368.391 749.859 368.391H363.538V367.321H749.859C750.167 367.321 750.417 367.561 750.417 367.856V367.856Z" fill="#E6E6E6"/>
<path d="M539.108 227.848H539.108C558.065 227.848 573.455 242.619 573.455 260.812V271.667H539.108V227.848V227.848Z" fill="#2F2E41"/>
<path d="M552.512 258.4C561.997 258.4 569.686 251.021 569.686 241.918C569.686 232.815 561.997 225.436 552.512 225.436C543.028 225.436 535.339 232.815 535.339 241.918C535.339 251.021 543.028 258.4 552.512 258.4Z" fill="#FFB6B6"/>
<path d="M564.031 326.139L548.114 317.295C548.114 317.295 526.333 296.356 525.705 306.24C525.077 316.124 511.882 350.776 541.936 356.146C571.989 361.516 590.838 351.064 590.838 351.064L582.042 334.983L564.031 326.139V326.139Z" fill="#2F2E41"/>
<path d="M506.843 293.533L497.933 308.605L507.604 345.88L514.976 343.578L515.71 309.793L520.221 301.086L506.843 293.533Z" fill="#FFB6B6"/>
<path d="M550.42 273.761C550.42 273.761 537.043 266.207 530.777 269.454C524.511 272.701 504.179 296.661 504.179 296.661L521.748 308.331L550.42 273.761V273.761Z" fill="#8EE26B"/>
<path d="M543.068 356.689L517.188 354.698L516.065 368.551L545.55 368.13L543.068 356.689Z" fill="#FFB6B6"/>
<path d="M561.937 259.003L544.344 261.013L541.831 269.456L529.265 273.476L536.386 316.893C536.386 316.893 556.491 319.707 564.031 329.757C571.57 339.807 584.974 341.415 584.974 341.415V309.5L584.136 267.044L566.544 264.23L561.937 259.003V259.003Z" fill="#8EE26B"/>
<path d="M579.529 341.817C579.529 341.817 608.849 339.405 614.713 345.033C620.578 350.661 622.672 361.113 615.551 365.938C608.43 370.762 589.163 369.556 589.163 369.556L585.393 349.455L579.529 341.817H579.529Z" fill="#2F2E41"/>
<path d="M593.352 347.445L539.737 355.083L539.198 369.69L589.163 369.556L593.352 347.445Z" fill="#2F2E41"/>
<path d="M599.216 305.235L596.493 319.506L568.429 348.451L563.612 342.622L582.461 314.079L583.718 304.431L599.216 305.235Z" fill="#FFB6B6"/>
<path d="M535.011 357.918C535.011 357.918 524.589 358.89 523.581 361.408C522.574 363.925 523.934 369.049 523.934 369.049L491.175 365.319C488.806 365.049 487.375 362.635 488.387 360.562C490.513 356.207 495.418 350.232 506.146 351.322C522.73 353.005 530.408 349.865 530.408 349.865L539.148 356.175L535.011 357.918V357.918Z" fill="#2F2E41"/>
<path d="M574.293 265.637C574.293 265.637 589.791 266.441 593.142 272.471C596.493 278.501 599.634 309.255 599.634 309.255L578.272 309.657L574.293 265.637V265.637Z" fill="#8EE26B"/>
<path d="M538.271 335.184L542.878 359.707L557.119 357.209L549.161 329.958L538.271 335.184Z" fill="#FFB6B6"/>
<path d="M559.005 353.877L539.737 354.279L540.993 375.184C540.993 375.184 540.575 386.833 551.046 386.837C561.518 386.842 565.706 387.646 565.706 385.636C565.706 383.626 563.612 371.795 563.612 371.795L559.005 359.104V353.877V353.877Z" fill="#2F2E41"/>
<path d="M551.046 336.993L535.129 340.209C524.708 318.235 518.356 297.097 517.537 277.094C517.537 277.094 515.861 264.632 528.846 264.23C541.831 263.828 543.506 282.32 543.506 282.32L551.046 336.993V336.993Z" fill="#2F2E41"/>
<path d="M566.314 354.145C570.382 350.56 571.809 345.699 569.501 343.287C567.194 340.876 562.027 341.828 557.959 345.413C553.892 348.998 552.465 353.859 554.772 356.27C557.079 358.681 562.247 357.73 566.314 354.145Z" fill="#FFB6B6"/>
<path d="M513.656 358.08C517.035 357.633 519.164 353.015 518.41 347.764C517.657 342.513 514.306 338.619 510.927 339.066C507.548 339.512 505.42 344.131 506.174 349.382C506.927 354.632 510.277 358.527 513.656 358.08Z" fill="#FFB6B6"/>
<path d="M585.39 255.252C584.517 252.703 582.792 250.471 582.021 247.892C580.996 244.467 578.815 252.065 578.602 248.508C578.198 241.747 567.446 224.354 561.308 221.014C555.17 217.673 551.645 218.68 545.391 221.818C545.391 221.818 542.356 222.003 538.577 223.794C534.798 225.584 531.396 228.452 529.926 232.243C528.761 235.248 528.89 238.548 528.501 241.732C527.416 250.603 522.235 259.04 523.347 267.909C523.694 270.675 524.79 273.536 527.147 275.164C529.504 276.791 533.312 276.614 534.863 274.259C535.393 273.455 535.617 272.501 536.07 271.656C536.524 270.81 537.344 270.022 538.334 270.048C539.823 270.088 540.581 272.005 539.994 273.319C539.407 274.633 538.027 275.426 536.732 276.131C539.817 277.463 543.644 277.048 546.341 275.09C549.039 273.131 550.496 269.709 550 266.498C549.3 261.972 542.431 262.909 541.621 258.4C541.032 255.118 538.964 249.626 539.527 246.34C540.091 243.054 542.797 247.033 539.946 245.134C543.082 246.585 549.791 236.658 553.075 235.546C556.358 234.434 559.142 232.026 560.635 229.007C564.118 233.852 567.182 232.537 568.429 238.3C569.676 244.063 568.523 257.157 563.387 260.375C565.442 261.721 567.081 263.645 568.045 265.847C568.592 267.094 568.946 268.458 569.853 269.494C571.584 271.472 574.782 271.592 577.331 270.761C580.491 269.729 583.194 267.464 584.683 264.597C586.173 261.73 586.433 258.296 585.39 255.252Z" fill="#2F2E41"/>
<path d="M790.843 115.273L790.737 115.89L789.974 116.241L791.175 117.1L791.932 116.75L792.038 116.126L790.843 115.273V115.273ZM780.333 120.711H779.689L779.39 120.928L778.495 121.565L776.796 122.348L776.856 122.737L766.471 130.162L765.177 131.086L734.209 153.216L740.241 160.585L746.777 156.445L765.761 144.428L765.695 142.944L740.533 158.878L736.093 153.458L765.243 132.62L766.537 131.697L778.282 123.303L778.256 123.087L779.132 122.686L780.127 121.985H780.638L780.883 121.87L782.27 121.227L780.983 120.412L780.333 120.711V120.711ZM850.006 168.182L820.299 120.839L806.908 115.311L805.329 107.942C809.303 105.586 811.752 101.396 811.752 96.8994C811.752 89.7476 805.694 83.9268 798.235 83.9268C790.784 83.9268 784.719 89.7476 784.719 96.8994C784.719 101.733 787.565 106.204 792.018 108.426L790.843 115.273L790.737 115.89L789.974 116.241L780.983 120.412L780.333 120.711H779.689L779.39 120.928L778.495 121.565L776.796 122.348L776.856 122.737L766.471 130.162L765.177 131.086L734.209 153.216L740.241 160.585L746.777 156.445L765.761 144.428L767.055 143.606L778.773 136.187L779.483 173.723L783.531 262.067L783.027 276.409L795.873 276.925L794.38 262.086L801.109 188.428L811.142 262.57L811.639 275.982H823.57L821.042 172.042L819.436 135.174L843.968 175.551L850.006 168.182V168.182ZM817.996 132.741L819.715 172.042L817.332 219.105V219.149L822.13 274.708H812.92L812.469 262.5L809.138 220.461L800.598 179.474L793.053 262.035L793.046 262.092L794.407 275.587L784.4 275.186L784.851 262.092V218.627L780.81 173.659L780.061 133.85L766.989 142.129L765.695 142.944L740.533 158.878L736.093 153.458L765.243 132.62L766.537 131.697L778.282 123.303L778.256 123.087L779.132 122.686L780.127 121.985H780.638L780.883 121.87L782.27 121.227L791.175 117.1L791.932 116.75L792.038 116.126L793.371 108.369L793.889 107.872L793.04 107.484C788.793 105.561 786.046 101.408 786.046 96.8994C786.046 90.4481 791.514 85.2005 798.235 85.2005C804.957 85.2005 810.425 90.4481 810.425 96.8994C810.425 101.096 808.063 104.994 804.26 107.076L803.842 107.306L805.753 116.221L819.569 121.902L848.121 168.424L843.682 173.844L817.996 132.741V132.741ZM780.983 120.412L780.333 120.711H779.689L779.39 120.928L778.495 121.565L776.796 122.348L776.856 122.737L766.471 130.162L765.177 131.086L765.243 132.62L766.537 131.697L778.282 123.303L778.256 123.087L779.132 122.686L780.127 121.985H780.638L780.883 121.87L782.27 121.227L780.983 120.412V120.412Z" fill="#3F3D56"/>
<path d="M549.531 245.424C549.796 246.627 549.432 247.728 548.714 247.875C547.997 248.021 547.192 247.165 546.926 245.956C546.659 244.746 547.026 243.658 547.741 243.505C548.458 243.352 549.267 244.228 549.531 245.424Z" fill="#2E353A"/>
<path d="M559.135 242.154C559.715 243.25 560.718 243.886 561.372 243.565C562.025 243.245 562.091 242.093 561.508 240.991C560.925 239.889 559.929 239.266 559.273 239.579C558.615 239.893 558.559 241.064 559.135 242.154Z" fill="#2E353A"/>
<path d="M561.538 249.557C559.662 250.846 557.564 251.809 555.352 252.407" stroke="#2E353A" stroke-width="0.5" stroke-linecap="round" stroke-linejoin="round"/>
</g>
</g>
<defs>
<filter id="filter0_d_805_2" x="0.5" y="0" width="882.5" height="491" filterUnits="userSpaceOnUse" color-interpolation-filters="sRGB">
<feFlood flood-opacity="0" result="BackgroundImageFix"/>
<feColorMatrix in="SourceAlpha" type="matrix" values="0 0 0 0 0 0 0 0 0 0 0 0 0 0 0 0 0 0 127 0" result="hardAlpha"/>
<feOffset dy="4"/>
<feGaussianBlur stdDeviation="2"/>
<feComposite in2="hardAlpha" operator="out"/>
<feColorMatrix type="matrix" values="0 0 0 0 0 0 0 0 0 0 0 0 0 0 0 0 0 0 0.25 0"/>
<feBlend mode="normal" in2="BackgroundImageFix" result="effect1_dropShadow_805_2"/>
<feBlend mode="normal" in="SourceGraphic" in2="effect1_dropShadow_805_2" result="shape"/>
</filter>
<clipPath id="clip0_805_2">
<rect width="515.463" height="326" fill="white" transform="translate(363.538 61)"/>
</clipPath>
</defs>
</svg>
