<svg width="335" height="298" viewBox="0 0 335 298" fill="none" xmlns="http://www.w3.org/2000/svg">
<g opacity="0.08">
<path opacity="0.08" d="M6.59144 183.253C6.59144 183.253 17.1116 234.109 70.4699 261.666C123.819 289.225 190.141 282.65 244.049 278.591C297.958 274.532 334.331 241.831 333.547 200.033C332.763 158.234 289.952 151.79 259.906 108.189C229.86 64.5954 229.229 48.997 177.547 26.7273C125.875 4.46569 55.6497 32.0884 25.6125 86.4607C-4.42457 140.825 6.59144 183.253 6.59144 183.253Z" fill="#00B533"/>
<path opacity="0.7" d="M6.59144 183.253C6.59144 183.253 17.1116 234.109 70.4699 261.666C123.819 289.225 190.141 282.65 244.049 278.591C297.958 274.532 334.331 241.831 333.547 200.033C332.763 158.234 289.952 151.79 259.906 108.189C229.86 64.5954 229.229 48.997 177.547 26.7273C125.875 4.46569 55.6497 32.0884 25.6125 86.4607C-4.42457 140.825 6.59144 183.253 6.59144 183.253Z" fill="#00B533"/>
</g>
<path d="M253.911 82.0782C253.144 81.7547 252.333 81.5041 251.504 81.3423C246.645 80.2992 240.966 79.4825 240.966 79.4825C240.966 79.4825 249.485 71.76 246.239 68.3961C242.995 65.0322 237.333 70.2075 237.333 70.2075C237.333 70.2075 243.003 56.2263 234.909 54.1563C226.812 52.0861 217.906 67.6199 217.906 67.6199C217.906 67.6199 217.5 61.6603 213.453 62.4365C209.405 63.2129 208.594 70.2075 208.594 70.2075C208.594 70.2075 202.518 67.1024 200.905 69.9487C199.29 72.7951 202.923 78.4878 202.923 78.4878C202.923 78.4878 196.046 74.8652 195.234 78.2291C194.928 79.4905 194.82 80.7844 194.909 82.0782H253.911Z" stroke="#2E353A" stroke-width="0.9508" stroke-linecap="round" stroke-linejoin="round"/>
<path d="M313.048 82.0779L297.272 80.1938C293.153 77.3313 288.177 75.6412 282.984 75.3421L281.181 75.2369C281.181 75.2369 285.464 70.6277 282.893 60.633C280.325 50.6384 265.765 59.0967 265.765 59.0967C265.765 59.0967 276.447 49.9915 274.735 41.5332C273.022 33.0749 258.059 39.916 258.059 39.916C258.059 39.916 259.807 17.1126 240.93 17.8808C222.053 18.649 218.609 45.2933 218.609 45.2933C218.609 45.2933 205.331 30.8108 196.325 49.1424C194.991 51.8594 194.009 54.7058 193.386 57.6169L193.008 57.2772C193.008 57.2772 185.95 49.5629 180.388 55.0778C174.826 60.5926 175.474 68.8244 175.474 68.8244C175.474 68.8244 166.874 66.0752 164.728 69.3825C162.584 72.6897 167.487 76.5389 167.487 76.5389C167.487 76.5389 162.881 74.6143 159.499 77.3475C157.381 79.0698 155.154 80.8973 153.775 82.0294L313.048 82.0779Z" stroke="#2E353A" stroke-width="0.9508" stroke-linecap="round" stroke-linejoin="round"/>
<path d="M161.077 128.963L145.328 127.079C141.209 124.232 136.233 122.558 131.04 122.267L129.237 122.162C129.237 122.162 133.519 117.553 130.95 107.558C128.381 97.5636 113.822 106.022 113.822 106.022C113.822 106.022 124.504 96.9167 122.792 88.4584C121.079 80.0001 106.114 86.8006 106.114 86.8006C106.114 86.8006 107.863 63.9892 88.9863 64.7655C70.1095 65.5418 66.6659 92.1781 66.6659 92.1781C66.6659 92.1781 53.4051 77.6956 44.3994 95.9948C43.0653 98.7118 42.0827 101.558 41.4607 104.469L41.0821 104.13C41.0821 104.13 34.0235 96.4153 28.4614 101.93C22.8994 107.445 23.5484 115.677 23.5484 115.677C23.5484 115.677 14.9483 112.928 12.7938 116.227C10.6393 119.526 15.5884 123.488 15.5884 123.488C15.5884 123.488 10.9818 121.564 7.60132 124.297C5.48285 126.019 3.25621 127.847 1.87695 128.979L161.077 128.963Z" stroke="#2E353A" stroke-width="0.9508" stroke-linecap="round" stroke-linejoin="round"/>
<path d="M144.643 177.998C144.643 175.773 142.642 172.24 140.145 172.24C137.648 172.24 135.646 175.773 135.646 177.998C135.646 180.221 139.469 184.669 140.145 184.669C140.821 184.669 144.643 180.221 144.643 177.998Z" fill="#00B533"/>
<path d="M238.009 177.998C238.009 175.773 236.007 172.24 233.511 172.24C231.023 172.24 229.013 175.773 229.013 177.998C229.013 180.221 232.835 184.669 233.511 184.669C234.186 184.669 238.009 180.221 238.009 177.998Z" fill="#00B533"/>
<path d="M140.668 151.458L172.373 126.423V147.658L142.777 160.135L140.668 151.458Z" fill="#2E353A" stroke="#2E353A" stroke-width="1.2223" stroke-miterlimit="10"/>
<path d="M147.059 172.063H133.294L130.383 123.593C130.346 123.245 130.346 122.898 130.383 122.55C130.86 118.547 135.016 105.431 140.164 105.431C145.275 105.431 149.43 118.547 149.953 122.55C149.989 122.898 149.989 123.245 149.953 123.593L147.059 172.063Z" fill="white" stroke="#2E353A" stroke-width="1.2223" stroke-miterlimit="10"/>
<path d="M132.302 115.523H148.06C146.275 110.656 143.426 105.416 140.181 105.416C136.935 105.416 134.087 110.656 132.302 115.523Z" fill="#2E353A" stroke="#2E353A" stroke-width="1.2223" stroke-miterlimit="10"/>
<path d="M132.672 161.833L133.294 172.063H147.059L147.673 161.833H132.672Z" fill="#2E353A" stroke="#2E353A" stroke-width="1.2223" stroke-miterlimit="10"/>
<path d="M233.583 151.458L201.842 126.423V147.658L231.437 160.135L233.583 151.458Z" fill="#2E353A" stroke="#2E353A" stroke-width="1.2223" stroke-miterlimit="10"/>
<path d="M227.19 172.063H240.956L243.868 123.593C243.904 123.245 243.904 122.898 243.868 122.55C243.39 118.547 239.234 105.431 234.087 105.431C228.975 105.431 224.819 118.547 224.297 122.55C224.261 122.898 224.261 123.245 224.297 123.593L227.19 172.063Z" fill="white" stroke="#2E353A" stroke-width="1.2223" stroke-miterlimit="10"/>
<path d="M241.578 161.833L240.957 172.063H227.192L226.578 161.833H241.578Z" fill="#2E353A" stroke="#2E353A" stroke-width="1.2223" stroke-miterlimit="10"/>
<path d="M226.173 115.523H241.931C240.137 110.656 237.297 105.416 234.053 105.416C230.807 105.424 227.985 110.656 226.173 115.523Z" fill="#2E353A" stroke="#2E353A" stroke-width="1.2223" stroke-miterlimit="10"/>
<path d="M194.395 179.218C194.233 175.693 190.924 172.959 186.993 173.098C183.289 173.235 180.323 175.895 180.169 179.218C180.169 182.744 186.209 189.772 187.273 189.772C188.112 189.763 194.395 182.719 194.395 179.218Z" fill="#00B533"/>
<path d="M205.313 154.993H169.308L161.681 50.0809C161.583 49.1671 161.583 48.2453 161.681 47.3235C162.953 36.8274 173.95 2.46875 187.32 2.46875C200.697 2.46875 211.66 36.8274 212.958 47.3235C213.066 48.2372 213.066 49.159 212.958 50.0809L205.313 154.993Z" fill="white" stroke="#2E353A" stroke-width="1.2223" stroke-miterlimit="10"/>
<path d="M187.382 129.1C178.684 129.1 171.624 122.776 171.624 114.973V56.0804C171.634 48.277 178.684 41.9536 187.382 41.9536C196.082 41.9616 203.123 48.277 203.131 56.0804V114.973C203.131 122.776 196.082 129.092 187.382 129.1Z" fill="#00B533" stroke="#2E353A" stroke-width="1.2223" stroke-miterlimit="10"/>
<path d="M199.976 170.057H174.636L169.308 154.321H205.358L199.976 170.057Z" fill="#2E353A" stroke="#2E353A" stroke-width="1.2223" stroke-miterlimit="10"/>
<path d="M189.702 67.8305C195.638 66.6511 199.383 61.3792 198.069 56.0556C196.753 50.7319 190.876 47.3723 184.941 48.5518C179.007 49.7312 175.261 55.0031 176.577 60.3268C177.891 65.6503 183.768 69.01 189.702 67.8305Z" fill="#2E353A"/>
<path d="M197.777 62.4924C199.683 57.3148 196.55 51.7313 190.777 50.0213C185.006 48.3112 178.781 51.1222 176.875 56.2998C174.969 61.4773 178.102 67.0608 183.873 68.7708C189.646 70.481 195.87 67.6699 197.777 62.4924Z" fill="#00B533" stroke="#2E353A" stroke-width="1.2223" stroke-miterlimit="10"/>
<path d="M187.327 66.7542C191.863 66.7542 195.54 63.456 195.54 59.3876C195.54 55.3191 191.863 52.021 187.327 52.021C182.792 52.021 179.115 55.3191 179.115 59.3876C179.115 63.456 182.792 66.7542 187.327 66.7542Z" fill="white" stroke="#2E353A" stroke-width="1.2223" stroke-miterlimit="10"/>
<path d="M198.196 84.1622C199.169 78.7797 195.095 73.7081 189.095 72.8346C183.094 71.961 177.439 75.6163 176.466 80.9989C175.493 86.3814 179.568 91.453 185.567 92.3266C191.568 93.2001 197.221 89.5448 198.196 84.1622Z" fill="#2E353A"/>
<path d="M198.199 85.3479C199.174 79.9652 195.099 74.8936 189.098 74.0201C183.097 73.1466 177.444 76.8019 176.469 82.1845C175.496 87.5671 179.57 92.6386 185.572 93.5122C191.571 94.3857 197.226 90.7304 198.199 85.3479Z" fill="#00B533" stroke="#2E353A" stroke-width="1.2223" stroke-miterlimit="10"/>
<path d="M195.441 84.9463C196.168 80.9303 193.128 77.1464 188.65 76.4947C184.174 75.843 179.955 78.5702 179.228 82.5862C178.502 86.6022 181.542 90.3861 186.019 91.0379C190.497 91.6896 194.715 88.9623 195.441 84.9463Z" fill="white" stroke="#2E353A" stroke-width="1.2223" stroke-miterlimit="10"/>
<path d="M189.703 116.607C195.637 115.428 199.383 110.156 198.068 104.832C196.754 99.5088 190.875 96.1492 184.941 97.3286C179.006 98.508 175.26 103.78 176.576 109.103C177.891 114.427 183.768 117.787 189.703 116.607Z" fill="#2E353A"/>
<path d="M197.781 111.27C199.687 106.092 196.554 100.509 190.782 98.7986C185.009 97.0886 178.786 99.8996 176.878 105.077C174.972 110.255 178.106 115.838 183.879 117.548C189.65 119.258 195.875 116.447 197.781 111.27Z" fill="#00B533" stroke="#2E353A" stroke-width="1.2223" stroke-miterlimit="10"/>
<path d="M195.122 110.485C196.559 106.626 194.234 102.453 189.932 101.165C185.629 99.8765 180.978 101.961 179.542 105.82C178.106 109.68 180.43 113.852 184.733 115.141C189.034 116.429 193.687 114.344 195.122 110.485Z" fill="white" stroke="#2E353A" stroke-width="1.2223" stroke-miterlimit="10"/>
<path d="M187.328 114.836C191.718 114.836 195.332 111.739 195.531 107.809C195.531 107.922 195.531 108.035 195.531 108.148C195.523 112.216 191.844 115.515 187.309 115.515C182.775 115.507 179.106 112.216 179.098 108.148C179.098 108.035 179.098 107.922 179.098 107.809C179.304 111.747 182.928 114.844 187.328 114.836Z" fill="#2E353A"/>
<path d="M169.091 22.9833H205.574C200.94 11.994 194.503 1.78906 187.337 1.78906C180.17 1.84567 173.697 12.0021 169.091 22.9833Z" fill="#2E353A" stroke="#2E353A" stroke-width="1.2223" stroke-miterlimit="10"/>
<path d="M60.3372 172.515C60.3372 172.515 54.1981 189.44 52.828 198.003C51.4576 206.567 48.7352 230.429 48.7352 230.429C43.9124 235.823 40.7391 242.252 39.5312 249.084C37.8273 260.001 38.3952 274.701 38.3952 274.701C38.3952 274.701 37.034 276.537 37.034 277.459C37.034 278.381 37.2594 280.419 37.2594 280.419C34.7534 282.166 32.3644 284.033 30.0927 286.023C27.5957 288.368 28.0463 292.451 28.0463 293.567C28.0463 294.683 29.5248 296.325 30.3271 296.325C31.1295 296.325 36.5743 295.402 39.3419 293.365C42.1094 291.327 42.1815 287.146 42.8666 285.279C43.5518 283.411 48.1673 277.937 48.1673 277.937C49.5916 277.799 50.7185 276.787 50.8717 275.51C51.0971 273.271 51.665 269.292 51.8904 268.476C52.1158 267.658 61.6714 253.791 63.8259 245.429C65.9805 237.068 72.6964 224.534 75.0853 219.027C77.4742 213.521 82.5855 202.306 82.5855 202.306L83.6133 201.997C83.6133 201.997 81.6751 226.257 81.1072 233.914C80.5393 241.572 80.422 243.497 80.422 253.589C80.422 263.681 84.8573 280.273 84.8573 280.273V285.472C84.8573 285.781 85.7588 286.088 87.4716 286.185C89.1844 286.281 94.1966 286.305 95.4496 286.993C96.7027 287.68 101.814 288.214 107.043 288.012C112.271 287.81 115.003 286.993 114.435 286.071C113.867 285.15 104.888 282.028 103.41 281.178C101.931 280.33 98.4966 278.301 98.4966 278.301C98.4966 278.301 98.7309 275.656 97.9286 274.427C97.1264 273.197 96.7928 273.311 96.7928 272.001C96.7928 270.691 100.092 253.337 101.003 245.082C101.913 236.826 106.799 225.092 107.142 216.327C107.484 207.561 106.574 200.826 105.772 190.831C105.303 184.854 104.122 178.944 102.256 173.195L60.3372 172.515Z" fill="#2E353A" stroke="#2E353A" stroke-width="0.9508" stroke-linecap="round" stroke-linejoin="round"/>
<path d="M117.284 186.383C117.284 186.383 119.331 194.226 118.763 199.021C118.546 200.849 115.806 206.161 115.238 206.468C114.688 206.63 114.084 206.63 113.534 206.468C113.949 205.467 114.291 204.447 114.553 203.404C114.67 202.596 114.787 200.348 114.787 200.348C114.129 201.658 113.372 202.92 112.506 204.125C111.74 204.819 110.857 205.402 109.892 205.854C109.486 205.83 109.108 205.644 108.874 205.345C108.648 205.038 109.775 204.327 110.352 203.202C110.929 202.079 111.83 199.968 111.83 199.968C111.01 200.914 110.109 201.795 109.126 202.611C108.233 203.202 107.233 203.647 106.169 203.938C105.826 203.938 105.15 202.823 105.493 202.718C105.836 202.611 108.675 201.189 109.009 200.68C109.324 200.251 109.667 199.846 110.036 199.458C108.702 199.944 107.332 200.348 105.944 200.68C105.376 200.68 105.15 199.871 105.15 199.871L108.901 198.14L109.802 196.094C109.342 194.525 109.342 192.876 109.802 191.307C110.595 188.962 110.938 187.329 110.938 187.329L117.284 186.383Z" fill="white" stroke="#2E353A" stroke-width="0.9508" stroke-linecap="round" stroke-linejoin="round"/>
<path d="M113.308 189.747C113.308 189.747 113.416 193.112 114.101 193.791C114.786 194.47 116.03 195.318 116.03 196.031C116.03 196.742 114.786 200.826 115.129 201.133C115.426 201.488 115.994 201.553 116.391 201.286C116.562 201.173 116.679 201.011 116.724 200.826C117.445 198.594 117.941 196.306 118.203 193.993" fill="white"/>
<path d="M113.308 189.747C113.308 189.747 113.416 193.112 114.101 193.791C114.786 194.47 116.03 195.318 116.03 196.031C116.03 196.742 114.786 200.826 115.129 201.133C115.426 201.488 115.994 201.553 116.391 201.286C116.562 201.173 116.679 201.011 116.724 200.826C117.445 198.594 117.941 196.306 118.203 193.993" stroke="#2E353A" stroke-width="0.9508" stroke-linecap="round" stroke-linejoin="round"/>
<path d="M107.62 130.499C107.62 130.499 110.694 147.124 111.028 152.121C111.361 157.118 111.37 160.888 111.37 160.888L117.284 186.383L110.92 187.297C110.92 187.297 103.419 173.55 101.905 171.933C100.39 170.316 99.624 167.243 100.201 162.86C100.778 158.478 100.309 134.509 101.445 131.655C102.085 129.941 104.149 129.011 106.061 129.585C106.656 129.763 107.196 130.078 107.62 130.499Z" fill="white" stroke="#2E353A" stroke-width="0.9508" stroke-linecap="round" stroke-linejoin="round"/>
<path d="M110.126 185.663L116.49 184.136" stroke="#2E353A" stroke-width="0.9508" stroke-linecap="round" stroke-linejoin="round"/>
<path d="M71.2448 113.785C71.2448 113.785 46.3461 123.052 45.2103 123.488C44.0743 123.925 43.281 123.488 42.7131 125.526C42.1451 127.564 32.7068 163.92 33.1394 166.798C33.5722 169.677 40.5496 194.647 40.5496 194.647L48.4014 193.427L49.3029 163.346L53.5128 153.755C53.5128 153.755 59.0839 166.297 58.9666 167.325C58.8495 168.351 57.4883 170.688 58.2906 172.013C58.6872 172.734 59.2732 173.365 59.9944 173.849H103.265C103.265 173.849 105.97 173.041 106.105 171.909C106.015 170.267 105.789 168.625 105.429 167.016C105.429 167.016 109.287 153.351 109.287 143.865C109.287 134.38 108.043 126.537 106.33 124.289C104.617 122.041 98.4874 119.801 92.9252 118.07C87.3631 116.34 82.6934 114.707 77.6904 114.302C72.6872 113.898 71.2448 113.785 71.2448 113.785Z" fill="white" stroke="#2E353A" stroke-width="0.9508" stroke-linecap="round" stroke-linejoin="round"/>
<path d="M90.1133 121.426C90.1133 121.426 93.9717 136.967 93.9717 145.685C93.9717 154.402 94.2331 164.833 94.7559 166.49C95.2788 168.149 96.0811 170.978 94.2331 172.871" stroke="#2E353A" stroke-width="0.9508" stroke-linecap="round" stroke-linejoin="round"/>
<path d="M53.5137 153.746L60.446 138.658" stroke="#2E353A" stroke-width="0.9508" stroke-linecap="round" stroke-linejoin="round"/>
<path d="M57.0381 146.817L63.5196 139.475" stroke="#2E353A" stroke-width="0.9508" stroke-linecap="round" stroke-linejoin="round"/>
<path d="M39.7568 191.478L48.402 190.661" stroke="#2E353A" stroke-width="0.9508" stroke-linecap="round" stroke-linejoin="round"/>
<path d="M94.8911 116.639L97.5054 121.628L91.5918 118.677L94.8911 116.639Z" fill="white" stroke="#2E353A" stroke-width="0.9508" stroke-linecap="round" stroke-linejoin="round"/>
<path d="M90.1133 121.426L94.8912 116.639L90.2305 114.593L90.1133 121.426Z" fill="white" stroke="#2E353A" stroke-width="0.9508" stroke-linecap="round" stroke-linejoin="round"/>
<path d="M90.9153 82.6845C90.9153 82.6845 93.9803 85.7411 93.9803 86.6548C93.9533 87.4069 93.8811 88.1589 93.7549 88.9029C93.7549 88.9029 98.8662 91.1428 98.2622 92.0645C97.6584 92.9864 96.901 94.7088 96.901 94.7088C96.901 94.7088 101.102 102.973 100.507 103.79C99.912 104.606 94.1426 109.596 93.1239 112.046C92.1051 114.496 90.0498 121.426 90.0498 121.426L70.4969 111.722C70.4969 111.722 72.8858 108.261 73.0029 105.916C73.1202 103.571 73.4537 101.736 73.0029 100.304C72.5523 98.8732 70.1634 95.2021 69.929 91.6361C69.6945 88.0699 74.0217 83.8894 79.71 81.4391C85.3982 78.9891 90.9153 82.6845 90.9153 82.6845Z" fill="white" stroke="#2E353A" stroke-width="0.9508" stroke-linecap="round" stroke-linejoin="round"/>
<path d="M88.1846 97.0537C89.5458 98.4446 91.7634 98.857 93.6384 98.0806" stroke="#2E353A" stroke-width="0.9508" stroke-linecap="round" stroke-linejoin="round"/>
<path d="M90.717 90.5687C91.0234 91.159 90.9152 91.7817 90.4916 91.9516C90.0679 92.1213 89.4729 91.7979 89.1665 91.2076C88.8599 90.6173 88.9772 89.9946 89.4008 89.8249C89.8245 89.655 90.4194 89.9784 90.717 90.5687Z" fill="#2E353A"/>
<path d="M86.0205 90.124C86.6876 88.6038 88.4184 87.682 90.2304 87.8841" stroke="#2E353A" stroke-width="1.9016" stroke-linecap="round" stroke-linejoin="round"/>
<path d="M77.3848 99.6089C77.3848 99.6089 80.3416 99.6089 80.3416 98.1777C80.3416 96.7464 78.0698 93.9 78.6379 92.4688C79.2058 91.0375 81.9282 90.0429 80.9095 88.4903C79.8908 86.9377 77.8355 86.9621 78.9804 85.9432C80.1253 84.9243 88.527 86.2504 91.3666 83.5173C94.2063 80.7841 95.3421 76.5873 93.2959 75.7786C91.2495 74.97 88.6352 76.9997 88.6352 76.9997C88.6352 76.9997 87.2739 74.1452 83.1813 75.1641C79.0885 76.183 73.4093 80.1614 70.2271 84.1399C67.0449 88.1183 65.8999 89.5416 67.153 92.2262C68.4061 94.9109 72.4987 99.8758 74.0853 100.693C75.672 101.509 77.3848 99.6089 77.3848 99.6089Z" fill="#2E353A" stroke="#2E353A" stroke-width="0.9508" stroke-linecap="round" stroke-linejoin="round"/>
<path d="M79.2056 100.935C79.2056 100.935 76.0234 96.8514 73.2919 97.3609C70.5605 97.8703 71.2456 101.445 73.0666 103.07C74.8876 104.695 78.0698 103.579 78.7459 103.175C78.7459 103.175 81.252 108.577 83.7491 108.787C86.2461 108.997 93.2957 106.232 93.2957 106.232" fill="white"/>
<path d="M79.2056 100.935C79.2056 100.935 76.0234 96.8514 73.2919 97.3609C70.5605 97.8703 71.2456 101.445 73.0666 103.07C74.8876 104.695 78.0698 103.579 78.7459 103.175C78.7459 103.175 81.252 108.577 83.7491 108.787C86.2461 108.997 93.2957 106.232 93.2957 106.232" stroke="#2E353A" stroke-width="0.9508" stroke-linecap="round" stroke-linejoin="round"/>
<path d="M86.5882 115.919L90.1131 121.426L83.2979 118.369L86.5882 115.919Z" fill="white" stroke="#2E353A" stroke-width="0.9508" stroke-linecap="round" stroke-linejoin="round"/>
<path d="M70.9025 109.191L86.5881 115.919L82.9551 123.876L68.4053 114.084L70.9025 109.191Z" fill="white" stroke="#2E353A" stroke-width="0.9508" stroke-linecap="round" stroke-linejoin="round"/>
<path d="M51.8735 206.251H35.5659C34.8718 206.251 34.3037 206.76 34.3037 207.383V213.351C34.3037 213.973 34.8718 214.482 35.5659 214.482H37.477C36.7829 214.482 36.2149 213.973 36.2149 213.351V209.453C36.2149 208.831 36.7829 208.321 37.477 208.321H49.9624C50.6565 208.321 51.2244 208.831 51.2244 209.453V213.351C51.2244 213.973 50.6565 214.482 49.9624 214.482H51.8735C52.5677 214.482 53.1356 213.973 53.1356 213.351V207.383C53.1356 206.752 52.5677 206.251 51.8735 206.251Z" fill="#2E353A" stroke="#2E353A" stroke-width="0.9508" stroke-linecap="round" stroke-linejoin="round"/>
<path d="M40.5494 194.647C40.5494 194.647 38.1605 203.008 38.6113 204.432C39.062 205.854 40.3241 206.68 40.4142 206.987C40.5855 207.44 40.3962 207.94 39.9545 208.207L39.3866 208.516C39.3866 208.516 38.9358 208.516 39.2784 209.122C39.4136 209.454 39.666 209.736 39.9995 209.93C40.7478 210.27 41.2076 209.582 41.8836 209.494C42.5597 209.404 42.9835 210.068 43.6235 210.028C44.2636 209.986 44.6061 209.412 45.2281 209.461C45.8502 209.509 46.2558 210.52 47.1573 210.165C47.5448 210.003 47.8244 209.656 48.2119 209.477C48.789 209.21 49.6093 209.284 50.1232 208.887C50.5377 208.499 50.7902 207.997 50.8443 207.464C51.0517 206.421 48.3743 193.402 48.3743 193.402L40.5494 194.647Z" fill="white" stroke="#2E353A" stroke-width="0.9508" stroke-linecap="round" stroke-linejoin="round"/>
<path d="M18.4542 211.887H66.8093C68.7926 211.887 70.4062 213.334 70.4062 215.113V242.672C70.4062 244.451 68.7926 245.898 66.8093 245.898H18.4542C16.4711 245.898 14.8574 244.451 14.8574 242.672V215.113C14.8574 213.327 16.462 211.887 18.4542 211.887Z" fill="#00B533" stroke="#2E353A" stroke-width="1.2223" stroke-miterlimit="10"/>
<path d="M14.9844 215.025L41.2533 231.666C42.7137 232.604 44.6698 232.604 46.1303 231.666L70.2627 215.915" stroke="#2E353A" stroke-width="0.9508" stroke-linecap="round" stroke-linejoin="round"/>
<path d="M45.896 229.426H41.4248V235.062H45.896V229.426Z" fill="white" stroke="#2E353A" stroke-width="0.9508" stroke-linecap="round" stroke-linejoin="round"/>
</svg>
