<svg width="335" height="298" viewBox="0 0 335 298" fill="none" xmlns="http://www.w3.org/2000/svg">
<g clip-path="url(#clip0_505_146)">
<g opacity="0.08">
<path opacity="0.08" d="M11.3076 168.021C11.3076 168.021 21.7228 220.045 74.5485 248.235C127.365 276.427 193.024 269.702 246.395 265.549C299.765 261.397 335.776 227.945 335.001 185.186C334.223 142.428 291.839 135.836 262.094 91.2323C232.338 46.6543 231.713 30.6976 180.548 7.91645C129.391 -14.873 59.8673 13.3843 30.13 69.0054C0.392622 124.627 11.3076 168.021 11.3076 168.021Z" fill="#8EE26B"/>
<path opacity="0.7" d="M11.3076 168.021C11.3076 168.021 21.7228 220.045 74.5485 248.235C127.365 276.427 193.024 269.702 246.395 265.549C299.765 261.397 335.776 227.945 335.001 185.186C334.223 142.428 291.839 135.836 262.094 91.2323C232.338 46.6543 231.713 30.6976 180.548 7.91645C129.391 -14.873 59.8673 13.3843 30.13 69.0054C0.392622 124.627 11.3076 168.021 11.3076 168.021Z" fill="#8EE26B"/>
</g>
<path d="M59.6797 263.58L240.468 199.496" stroke="#2E353A" stroke-width="0.495524" stroke-linecap="round" stroke-linejoin="round"/>
<path d="M66.4277 73.1165C55.5127 77.8646 42.5093 73.5135 37.3866 63.4052C32.2637 53.2885 36.9582 41.2361 47.8642 36.488C50.7111 35.2471 53.8171 34.5937 56.9585 34.5688C46.3648 40.6074 43.0537 53.4704 49.5778 63.2893C53.2548 68.8151 59.4754 72.4465 66.4277 73.1165Z" fill="#2E353A"/>
<path d="M73.9415 35.6279L73.0668 33.5516L70.7285 33.0387L72.5938 31.6324L72.3886 29.4072L74.4144 30.6151L76.6367 29.7548L76.0209 31.9055L77.5917 33.5929L75.1908 33.7253L73.9415 35.6279Z" fill="#2E353A"/>
<path d="M85.2134 56.5561L83.9549 56.8126L83.4641 57.9128L82.8125 56.8788L81.5273 56.7961L82.3841 55.9026L82.0808 54.7446L83.2588 55.2243L84.3566 54.5957L84.2316 55.7868L85.2134 56.5561Z" fill="#2E353A"/>
<path d="M43.6781 89.3384L42.4197 89.5948L41.9288 90.695L41.2774 89.6693L39.9922 89.5783L40.849 88.685L40.5456 87.5268L41.7236 88.0065L42.8214 87.3779L42.6964 88.5691L43.6781 89.3384Z" fill="#2E353A"/>
<path d="M13.0138 90.6118L11.1663 88.2294L7.99805 88.2874L9.87225 85.9215L8.82805 83.1503L11.8446 84.0686L14.3614 82.29L14.3525 85.2267L16.9496 86.9059L13.933 87.7993L13.0138 90.6118Z" fill="#2E353A"/>
<path d="M146.857 274.144C146.857 276.906 139.619 279.148 130.677 279.148C121.734 279.148 114.496 276.906 114.496 274.144C114.496 271.38 121.743 269.18 130.677 269.18C139.61 269.18 146.857 271.397 146.857 274.144Z" stroke="#2E353A" stroke-width="0.495524" stroke-linecap="round" stroke-linejoin="round"/>
<path d="M114.496 274.144C114.496 274.144 115.094 284.326 117.691 290.621C120.288 296.917 131.551 299.075 137.674 296.552C142.216 294.683 144.51 288.976 145.707 283.797" stroke="#2E353A" stroke-width="0.495524" stroke-linecap="round" stroke-linejoin="round"/>
<path d="M140.61 291.547C141.44 293.508 144.43 293.533 146.294 293.334C149.776 293.161 152.533 290.53 152.614 287.296C152.783 284.905 152.086 282.531 150.651 280.545C149.437 279.073 147.553 278.214 145.555 278.196C143.734 278.188 142.252 279.545 142.243 281.233C142.243 281.423 142.261 281.613 142.297 281.803C142.35 282.159 142.52 282.489 142.779 282.763C143.6 283.59 144.778 283.111 145.759 283.466C146.67 283.872 147.33 284.649 147.544 285.567C147.929 286.857 148.124 288.049 147.222 289.157C146.571 289.877 145.545 290.208 144.546 290.034C143.653 289.926 142.904 289.206 141.975 289.206C141.136 289.206 140.458 289.836 140.449 290.605C140.449 290.647 140.449 290.687 140.458 290.728C140.458 291.01 140.512 291.291 140.61 291.547Z" fill="white" stroke="#2E353A" stroke-width="0.495524" stroke-linecap="round" stroke-linejoin="round"/>
<path d="M130.759 278.916C138.902 278.916 145.502 277.357 145.502 275.434C145.502 273.51 138.902 271.952 130.759 271.952C122.617 271.952 116.016 273.51 116.016 275.434C116.016 277.357 122.617 278.916 130.759 278.916Z" fill="#2E353A"/>
<path d="M126.59 266.517C126.224 265.607 126.143 264.615 126.357 263.663C126.777 262.008 128.249 260.776 129.793 259.873C131.409 259.08 132.953 258.162 134.399 257.128C135.746 255.994 136.719 254.241 136.184 252.619C135.746 251.693 135.229 250.809 134.64 249.956C133.81 248.351 134.042 246.449 135.247 245.059C136.532 243.718 138.629 243.347 140.352 244.157C142.029 245.076 142.645 247.045 141.771 248.657C141.199 249.583 140.155 250.171 139.495 251.048C138.593 252.321 138.593 253.977 139.495 255.25C140.173 256.169 141.28 256.83 141.655 257.898C141.913 259.014 141.44 260.163 140.441 260.825C139.45 261.463 138.29 261.827 137.094 261.876C135.889 261.908 134.693 262.049 133.524 262.314C130.623 263.15 128.999 266.004 129.901 268.693C130.106 269.295 130.427 269.867 130.847 270.355C131.516 271.141 130.9 270.694 129.847 270.14C128.339 269.329 127.187 268.047 126.59 266.517Z" fill="#2E353A"/>
<path opacity="0.7" d="M126.599 266.509C126.233 265.599 126.153 264.605 126.367 263.655C126.787 262 128.259 260.767 129.803 259.865C131.41 259.072 132.954 258.154 134.399 257.119C135.756 255.986 136.72 254.233 136.185 252.611C135.756 251.685 135.238 250.791 134.64 249.948C133.802 248.343 134.043 246.433 135.256 245.051C136.533 243.702 138.639 243.33 140.361 244.149C142.039 245.067 142.655 247.035 141.78 248.649C141.2 249.575 140.156 250.163 139.505 251.039C138.585 252.313 138.585 253.968 139.505 255.242C140.183 256.161 141.289 256.822 141.655 257.889C141.914 258.997 141.441 260.147 140.45 260.809C139.46 261.445 138.3 261.818 137.095 261.868C135.89 261.9 134.694 262.041 133.525 262.298C130.615 263.142 129 266.012 129.91 268.709C130.116 269.305 130.428 269.859 130.847 270.346C131.526 271.133 130.901 270.686 129.848 270.124C128.34 269.313 127.197 268.031 126.599 266.509Z" fill="white"/>
<path d="M223.514 188.561V37.7124" stroke="#2E353A" stroke-width="0.520102" stroke-linecap="round" stroke-linejoin="round"/>
<path d="M98.0332 172.017V22.1113" stroke="#2E353A" stroke-width="0.520102" stroke-linecap="round" stroke-linejoin="round"/>
<path d="M3.91211 106.031H281.829" stroke="#2E353A" stroke-width="0.505732" stroke-linecap="round" stroke-linejoin="round"/>
<path d="M131.732 75.4165L127.957 77.7824" stroke="#2E353A" stroke-width="0.260051" stroke-linecap="round" stroke-linejoin="round"/>
<path d="M59.0668 148.781L0.466797 185.658" stroke="#2E353A" stroke-width="0.520102" stroke-linecap="round" stroke-linejoin="round"/>
<path d="M52.7204 143.628L38.5391 152.545" stroke="#2E353A" stroke-width="0.520102" stroke-linecap="round" stroke-linejoin="round"/>
<path d="M282.782 70.5936C299.911 70.5936 313.797 57.7239 313.797 41.8483C313.797 25.9728 299.911 13.103 282.782 13.103C265.654 13.103 251.77 25.9728 251.77 41.8483C251.77 57.7239 265.654 70.5936 282.782 70.5936Z" fill="#2E353A"/>
<path d="M282.764 64.6296C296.343 64.6296 307.351 54.4265 307.351 41.8401C307.351 29.2539 296.343 19.0508 282.764 19.0508C269.184 19.0508 258.176 29.2539 258.176 41.8401C258.176 54.4265 269.184 64.6296 282.764 64.6296Z" fill="white"/>
<path d="M284.835 41.8399C284.844 42.9071 283.916 43.7674 282.764 43.7756C281.613 43.7839 280.685 42.9236 280.676 41.8566C280.667 40.7894 281.595 39.9291 282.747 39.9209C282.755 39.9209 282.755 39.9209 282.764 39.9209C283.916 39.9209 284.835 40.7812 284.835 41.8399Z" fill="#2E353A"/>
<path d="M283.066 42.4027V23.6665" stroke="#2E353A" stroke-width="0.563163" stroke-linecap="round" stroke-linejoin="round"/>
<path d="M282.756 41.5504L278.061 27.0083" stroke="#2E353A" stroke-width="0.563163" stroke-linecap="round" stroke-linejoin="round"/>
<path d="M115.977 243.843L87.9444 141.526C86.7216 137.084 89.0956 132.46 93.5938 130.541C118.458 120.011 160.53 108.719 193.461 109.183C198.754 109.257 203.118 113.054 203.537 117.951L210.767 202.491C211.123 206.66 208.5 210.565 204.306 212.104L115.977 243.843Z" fill="#2E353A"/>
<path opacity="0.5" d="M115.977 243.843L87.9444 141.526C86.7216 137.084 89.0956 132.46 93.5938 130.541C118.458 120.011 160.53 108.719 193.461 109.183C198.754 109.257 203.118 113.054 203.537 117.951L210.767 202.491C211.123 206.66 208.5 210.565 204.306 212.104L115.977 243.843Z" fill="black"/>
<path d="M187.128 276.062L237.391 256.318C238.757 255.797 239.417 254.348 238.856 253.083C238.659 252.645 238.338 252.264 237.919 251.991L218.124 238.756C217.383 238.267 216.437 238.152 215.589 238.442L164.209 256.483C162.817 256.954 162.103 258.377 162.611 259.668C162.789 260.114 163.102 260.503 163.513 260.793L184.45 275.74C185.218 276.286 186.243 276.41 187.128 276.062Z" fill="#2E353A"/>
<path d="M209.778 244.1C209.778 244.1 225.842 246.234 227.715 254.366C229.591 262.496 193.873 262.794 190.741 256.689C187.608 250.584 204.45 244.1 209.778 244.1Z" fill="white"/>
<path d="M222.3 251.544C222.3 251.544 219.713 240.137 212.376 238.127C205.039 236.117 187.968 238.408 187.968 238.408L152.446 219.069L129.635 233.628L139.755 237.432L139.675 237.549C139.675 237.549 141.335 238.135 144.021 239.038L149.947 241.271L150.216 241.073C159.471 244.042 172.634 247.921 180.336 248.708C180.336 248.708 185.076 253.265 189.931 254.134C189.931 254.134 193.036 254.803 194.794 254.324C196.811 253.621 199.043 253.654 201.041 254.415C203.523 255.374 211.886 258.998 213.912 257.997C215.938 256.995 212.831 253.744 207.147 250.775C207.147 250.775 218.516 253.935 220.899 253.935C223.282 253.935 224.21 253.555 224.104 253.108L222.3 251.544Z" fill="white"/>
<path d="M204.359 249.37C204.359 249.37 221.201 255.159 223.396 253.712C225.592 252.264 216.373 247.508 206.34 244.314" stroke="#2E353A" stroke-width="0.495524" stroke-linecap="round" stroke-linejoin="round"/>
<path d="M211.27 241.369C214.795 242.462 217.945 244.389 220.409 246.961" stroke="#2E353A" stroke-width="0.495524" stroke-linecap="round" stroke-linejoin="round"/>
<path d="M221.932 251.173C221.932 251.173 219.513 241.866 214.185 238.673C208.857 235.481 187.563 238.458 187.563 238.458L148.963 217.017" stroke="#2E353A" stroke-width="0.495524" stroke-linecap="round" stroke-linejoin="round"/>
<path d="M130.33 234.173C134.186 235.621 139.076 237.358 145.244 239.393C167.171 246.655 180.336 248.69 180.336 248.69C180.336 248.69 188.065 256.218 195.696 253.919C200.835 252.363 210.421 259.436 213.865 257.981C217.311 256.524 208.707 250.974 198.051 246.614" stroke="#2E353A" stroke-width="0.495524" stroke-linecap="round" stroke-linejoin="round"/>
<path d="M238.712 199.836L261.532 175.632C261.532 175.632 255.383 165.018 247.735 153.19C240.087 141.361 231.01 128.423 227.146 123.543C216.383 118.671 231.609 178.635 231.609 178.635L238.712 199.836Z" fill="#8EE26B"/>
<path d="M262.007 176.731C252.279 157.11 227.146 123.245 227.146 123.245" stroke="#2E353A" stroke-width="0.495524" stroke-linecap="round" stroke-linejoin="round"/>
<path d="M146.546 192.109L166.297 226.307L229.341 203.566L231.751 176.435C235.32 153.438 227.11 123.187 227.11 123.187L186.056 115.006C186.056 115.006 127.152 133.709 126.26 137.249C125.367 140.79 146.546 192.109 146.546 192.109Z" fill="#8EE26B"/>
<path d="M146.546 192.109L166.297 226.307L229.341 203.566L231.751 176.435C235.32 153.438 227.11 123.187 227.11 123.187L186.056 115.006C186.056 115.006 127.152 133.709 126.26 137.249C125.367 140.79 146.546 192.109 146.546 192.109Z" stroke="#2E353A" stroke-width="0.495524" stroke-miterlimit="10"/>
<path opacity="0.2" d="M131.791 147.161C133.3 150.138 140.716 165.599 143.393 169.495C146.964 141.428 145.722 138.343 148.444 136.871L161.118 130.021L154.496 126.274L154.193 125C154.193 125 128.177 134.166 124 137.292C124 137.292 127.088 137.912 131.791 147.161Z" fill="black"/>
<path d="M115.451 219.069C128.544 221.095 141.958 218.109 152.632 210.796C152.632 210.796 152.159 184.45 149.401 177.775C145.831 169.197 129.829 135.695 126.393 137.39C123.957 138.59 118.932 174.921 116.576 198.934C115.621 208.894 115.121 216.802 115.451 219.069Z" fill="#8EE26B"/>
<path d="M115.451 219.069C128.544 221.095 141.958 218.109 152.632 210.796C152.632 210.796 152.159 184.45 149.401 177.775C145.831 169.197 129.829 135.695 126.393 137.39C123.957 138.59 118.932 174.921 116.576 198.934C115.621 208.894 115.121 216.802 115.451 219.069Z" stroke="#2E353A" stroke-width="0.495524" stroke-miterlimit="10"/>
<path d="M152.979 170.966C155.585 178.047 156.121 185.649 154.514 192.986" stroke="#2E353A" stroke-width="0.495524" stroke-linecap="round" stroke-linejoin="round"/>
<path d="M132.48 198.785C138.317 198.19 144.163 199.762 148.751 203.161" stroke="#2E353A" stroke-width="0.495524" stroke-linecap="round" stroke-linejoin="round"/>
<path d="M139.656 194.79C144.931 197.098 149.34 200.812 152.32 205.462" stroke="#2E353A" stroke-width="0.495524" stroke-linecap="round" stroke-linejoin="round"/>
<path d="M228.59 151.453C230.224 158.41 231.438 165.441 232.24 172.522" stroke="#2E353A" stroke-width="0.495524" stroke-linecap="round" stroke-linejoin="round"/>
<path d="M130.784 234.777C130.784 234.777 154.185 225.826 156.666 222.368C159.148 218.911 153.427 206.744 150.606 204.709C147.787 202.674 112.167 208.968 113.122 215.653C114.077 222.336 116.782 221.617 115.702 227.233C114.997 230.914 119.789 239.137 130.784 234.777Z" fill="white"/>
<path d="M131.124 234.777C131.124 234.777 154.533 225.826 157.006 222.368C159.478 218.911 153.775 206.744 150.954 204.709C148.135 202.674 112.507 208.968 113.47 215.653C114.434 222.336 117.13 221.617 116.059 227.233C115.345 230.914 120.128 239.137 131.124 234.777Z" stroke="#2E353A" stroke-width="0.495524" stroke-miterlimit="10"/>
<path d="M241.567 204.932C241.343 204.758 241.13 204.584 240.924 204.393C234.98 199.025 238.746 192.25 243.601 187.552C248.064 183.218 256.025 176.616 262.737 175.872C265.762 175.533 267.109 177.087 268.867 179.057C269.876 180.181 271.125 181.116 272.098 182.274C275.142 186.038 274.972 191.249 271.705 194.84C268.921 197.694 265.092 198.745 261.416 200.192C256.953 201.937 252.794 204.824 248.261 206.255C245.941 206.925 243.406 206.42 241.567 204.932Z" fill="white"/>
<path d="M241.567 204.932C241.343 204.758 241.13 204.584 240.924 204.393C234.98 199.025 238.746 192.25 243.601 187.552C248.064 183.218 256.025 176.616 262.737 175.872C265.762 175.533 267.109 177.087 268.867 179.057C269.876 180.181 271.125 181.116 272.098 182.274C275.142 186.038 274.972 191.249 271.705 194.84C268.921 197.694 265.092 198.745 261.416 200.192C256.953 201.937 252.794 204.824 248.261 206.255C245.941 206.925 243.406 206.42 241.567 204.932Z" stroke="#2E353A" stroke-width="0.495524" stroke-miterlimit="10"/>
<path d="M152.471 50.6913C152.007 46.6214 153.346 42.5434 156.184 39.4082C159.03 36.3062 162.734 33.9901 166.894 32.6914" stroke="#2E353A" stroke-width="0.495524" stroke-linecap="round" stroke-linejoin="round"/>
<path d="M193.098 105.204C192.535 111.4 192.32 126 192.713 132.212L167.493 121.31C168.385 115.693 168.715 105.485 167.207 99.9844L193.089 105.204" fill="white"/>
<path d="M193.098 105.204C192.535 111.4 192.32 126 192.713 132.212L167.493 121.31C168.385 115.693 168.715 105.485 167.207 99.9844L193.089 105.204" stroke="#2E353A" stroke-width="0.495524" stroke-miterlimit="10"/>
<path d="M168.385 103.549C168.385 103.549 175.846 116.388 183.682 116.627C191.34 116.851 193.053 106.279 193.053 106.279C193.053 106.279 189.876 111.871 186.423 111.747C182.968 111.623 168.385 103.549 168.385 103.549Z" fill="#2E353A"/>
<path d="M201.049 50.7158C201.049 50.7158 168.455 44.2471 159.236 52.1469C150.017 60.0467 152.319 68.8482 152.319 68.8482L153.158 71.3876C152.926 71.3876 152.694 71.4041 152.462 71.4538C150.009 71.9916 147.519 74.7627 148.339 78.725C149.16 82.6872 154.39 91.3895 158.246 90.463C158.682 90.3637 159.103 90.1983 159.494 89.9914C160.781 93.5732 161.913 96.5429 162.53 97.7506C164.984 102.548 183.664 112.533 188.045 111.151C192.427 109.77 203.922 89.0816 204.485 84.0852C205.047 79.0889 201.049 50.7158 201.049 50.7158Z" fill="white"/>
<path d="M183.279 77.8318C183.279 79.2794 182.708 80.4623 182.002 80.4623C181.297 80.4623 180.717 79.2877 180.717 77.8318C180.717 76.3759 181.288 75.2095 181.993 75.2012C182.699 75.193 183.279 76.3924 183.279 77.8318Z" fill="#2E353A"/>
<path d="M197.436 77.1617C197.436 78.6093 196.865 79.7923 196.16 79.7923C195.455 79.7923 194.884 78.6093 194.875 77.1617C194.865 75.7141 195.445 74.5312 196.16 74.5312C196.874 74.5312 197.436 75.7059 197.436 77.1617Z" fill="#2E353A"/>
<path d="M193.149 95.7903C190.945 95.5421 188.713 95.6827 186.562 96.1956" stroke="#2E353A" stroke-width="0.495524" stroke-linecap="round" stroke-linejoin="round"/>
<path d="M177.773 82.3895C178.908 84.0934 181.522 84.0934 183.075 82.9189C183.727 82.3398 184.289 81.678 184.726 80.9419" stroke="#2E353A" stroke-width="0.247762" stroke-linecap="round" stroke-linejoin="round"/>
<path d="M193.623 81.0327C194.4 82.1494 195.694 82.8774 197.131 82.9849C197.988 83.0429 198.854 82.8774 199.612 82.4969" stroke="#2E353A" stroke-width="0.247762" stroke-linecap="round" stroke-linejoin="round"/>
<path d="M176.918 72.7859C179.881 72.2317 182.638 70.9908 184.949 69.1875" stroke="#2E353A" stroke-width="0.991049" stroke-linecap="round" stroke-linejoin="round"/>
<path d="M194.533 66.4409C195.712 67.7563 197.184 68.8316 198.853 69.5761" stroke="#2E353A" stroke-width="0.991049" stroke-linecap="round" stroke-linejoin="round"/>
<path d="M189.625 75.8218C189.885 77.5341 190.143 79.2464 190.411 80.9586C190.482 81.7032 190.669 82.4311 190.982 83.1177C191.642 84.3502 192.981 85.136 194.463 85.1775C194.891 85.1278 195.329 85.1857 195.722 85.3429C196.078 85.5744 196.266 85.9633 196.229 86.3604C196.132 87.0303 195.784 87.6424 195.247 88.0975C194.347 89.0157 193.294 89.8015 192.134 90.4219" stroke="#2E353A" stroke-width="0.495524" stroke-linecap="round" stroke-linejoin="round"/>
<path d="M152.445 76.665C155.408 78.9564 156.863 82.5134 156.3 86.0456" stroke="#2E353A" stroke-width="0.495524" stroke-linecap="round" stroke-linejoin="round"/>
<path d="M151.918 80.9916C152.105 80.6029 152.489 80.3298 152.935 80.2555C153.373 80.1727 153.828 80.1727 154.264 80.2555C154.578 80.2968 154.881 80.396 155.158 80.5284C155.506 80.7352 155.764 81.0496 155.889 81.4135" stroke="#2E353A" stroke-width="0.495524" stroke-linecap="round" stroke-linejoin="round"/>
<path d="M160.782 84.3168C160.782 84.3168 162.728 89.4785 157.908 90.6284C154.062 91.5547 148.832 82.8609 148.001 78.8902C147.494 76.8719 148.046 74.746 149.475 73.1578C150.171 72.3968 151.108 71.8674 152.152 71.6274C154.999 70.9987 157.837 74.2001 159.631 76.8306C160.176 77.666 160.765 78.4767 161.416 79.246" stroke="#2E353A" stroke-width="0.495524" stroke-linecap="round" stroke-linejoin="round"/>
<path d="M159.165 90.1488C160.45 93.747 161.575 96.7085 162.19 97.9162C164.645 102.722 183.324 112.698 187.707 111.317C192.089 109.935 203.584 89.2471 204.155 84.2508C204.726 79.2544 200.746 50.8814 200.746 50.8814C200.746 50.8814 168.152 44.4126 158.933 52.3124C149.714 60.2122 151.981 69.0137 151.981 69.0137" stroke="#2E353A" stroke-width="0.495524" stroke-miterlimit="10"/>
<path d="M208.601 37.0835C208.601 37.0835 213.633 46.7948 207.208 53.4042C200.782 60.0135 186.092 54.5706 186.092 54.5706" stroke="#2E353A" stroke-width="0.495524" stroke-linecap="round" stroke-linejoin="round"/>
<path d="M202.486 32.6582C200.452 33.4275 203.932 36.7364 199.595 37.7539C195.257 38.7713 160.826 23.9561 152.159 49.7648C152.159 49.7648 136.729 59.9229 149.482 73.1582C150.178 72.3971 151.115 71.8676 152.159 71.6278C154.926 71.024 157.675 74.0185 159.479 76.5911C160.281 78.7418 161.539 80.6691 163.458 80.0157C166.957 78.841 165.778 74.7795 164.351 71.8098C163.896 70.8668 163.404 70.0396 163.039 69.444C160.843 65.9036 157.595 61.9991 159.077 57.7059C162.04 52.5525 171.044 51.7419 179.603 53.7684C193.776 57.1187 210.358 52.3209 210.1 42.8577C209.84 33.3945 204.521 31.8889 202.486 32.6582Z" fill="#2E353A"/>
<path opacity="0.5" d="M208.983 36.9101C208.965 36.8687 208.939 36.8356 208.903 36.8026C207.171 32.7575 203.968 32.0958 202.486 32.6665C200.451 33.4358 203.932 36.7446 199.594 37.7621C195.257 38.7796 162.45 24.6675 152.829 48.0111C153.115 44.9504 154.4 42.0388 156.514 39.6647C159.298 36.6122 162.931 34.3292 167.019 33.0471C167.233 32.9561 167.322 32.7162 167.224 32.5177C167.135 32.344 166.929 32.253 166.734 32.3025C162.512 33.6344 158.763 36.0001 155.89 39.1601C153.347 41.9891 151.954 45.5626 151.963 49.2437C145.716 50.4845 140.816 54.9761 139.406 60.7583C139.352 60.9734 139.495 61.1802 139.727 61.2298H139.816C140.013 61.2298 140.191 61.1058 140.236 60.9238C141.539 55.5884 145.993 51.3862 151.731 50.0875C149.267 51.9238 138.094 61.296 149.508 73.1498C150.204 72.3889 151.142 71.8594 152.187 71.6196C154.952 71.0156 157.702 74.0101 159.504 76.5827C160.308 78.7334 161.567 80.6609 163.485 80.0073C166.983 78.8328 165.805 74.7711 164.377 71.8015C163.922 70.8585 163.431 70.0313 163.066 69.4357C160.87 65.8953 157.622 61.9908 159.103 57.6977C162.065 52.5442 171.071 51.7336 179.63 53.7602C181.646 54.2317 183.7 54.546 185.771 54.7032C185.814 54.8024 185.895 54.8769 186.003 54.9266C189.733 56.2418 193.686 56.9698 197.675 57.0773C201.317 57.0773 205.047 56.25 207.591 53.6527C214.061 46.9441 209.036 37.0093 208.983 36.9101ZM206.886 53.1398C202.112 58.0533 192.418 56.0185 188.242 54.7942C199.139 54.9514 209.189 50.8319 210.001 43.9413C210.385 47.275 209.251 50.6085 206.886 53.1398Z" fill="black"/>
<path d="M182.897 130.086C183.254 129.755 193.24 128.06 193.24 128.06C193.24 128.06 191.536 139.004 192.348 142.949L188.215 143.628C188.215 143.628 184.199 136.746 181.031 134.603C177.863 132.46 182.897 130.086 182.897 130.086Z" fill="#2E353A"/>
<path d="M188.82 141.808L188.883 188.256L200.183 196.171L204.983 184.971L191.088 140.798L188.82 141.808Z" fill="#2E353A"/>
<path d="M188.456 122.501L193.982 115.676C194.257 115.296 194.811 115.197 195.221 115.445C195.284 115.478 195.337 115.527 195.382 115.577L202.442 122.12C202.754 122.385 202.816 122.823 202.593 123.154L194.115 137.167C193.928 137.589 193.4 137.787 192.946 137.606C192.66 137.489 192.454 137.25 192.409 136.968L188.305 123.245C188.233 122.989 188.295 122.716 188.456 122.501Z" fill="white"/>
<path d="M188.456 122.501L193.982 115.676C194.257 115.296 194.811 115.197 195.221 115.445C195.284 115.478 195.337 115.527 195.382 115.577L202.442 122.12C202.754 122.385 202.816 122.823 202.593 123.154L194.115 137.167C193.928 137.589 193.4 137.787 192.946 137.606C192.66 137.489 192.454 137.25 192.409 136.968L188.305 123.245C188.233 122.989 188.295 122.716 188.456 122.501Z" stroke="#2E353A" stroke-width="0.495524" stroke-linecap="round" stroke-linejoin="round"/>
<path d="M165.895 114.609L187.314 122.517C187.778 122.666 188.028 123.138 187.867 123.568C187.858 123.584 187.858 123.593 187.85 123.609L182.352 138.018C182.208 138.457 181.718 138.706 181.245 138.581C181.174 138.565 181.102 138.531 181.031 138.491L156.934 126.372C156.487 126.173 156.3 125.685 156.515 125.272C156.55 125.214 156.586 125.156 156.631 125.098L164.814 114.899C165.055 114.584 165.51 114.46 165.895 114.609Z" fill="white"/>
<path d="M165.895 114.609L187.314 122.517C187.778 122.666 188.028 123.138 187.867 123.568C187.858 123.584 187.858 123.593 187.85 123.609L182.352 138.018C182.208 138.457 181.718 138.706 181.245 138.581C181.174 138.565 181.102 138.531 181.031 138.491L156.934 126.372C156.487 126.173 156.3 125.685 156.515 125.272C156.55 125.214 156.586 125.156 156.631 125.098L164.814 114.899C165.055 114.584 165.51 114.46 165.895 114.609Z" stroke="#2E353A" stroke-width="0.495524" stroke-linecap="round" stroke-linejoin="round"/>
<path d="M237.818 197.999L231.482 178.47" stroke="#2E353A" stroke-width="0.495524" stroke-miterlimit="10"/>
<path d="M250.84 204.701L207.109 221.724C205.751 222.269 205.126 223.726 205.717 224.983C205.921 225.421 206.252 225.794 206.671 226.059L240.433 246.862L262.397 226.538L250.84 204.701Z" fill="white" stroke="#2E353A" stroke-width="0.495524" stroke-miterlimit="10"/>
<path d="M232.643 222.592L227.388 224.502L230.207 226.348L235.473 224.437L232.643 222.592ZM232.643 222.592L227.388 224.502L230.207 226.348L235.473 224.437L232.643 222.592ZM232.643 222.592L227.388 224.502L230.207 226.348L235.473 224.437L232.643 222.592ZM236.214 224.933L230.948 226.835L234.009 228.838L239.284 226.927L236.214 224.933ZM236.214 224.933L230.948 226.835L234.009 228.838L239.284 226.927L236.214 224.933ZM236.214 224.933L230.948 226.835L234.009 228.838L239.284 226.927L236.214 224.933ZM236.214 224.933L230.948 226.835L234.009 228.838L239.284 226.927L236.214 224.933ZM236.214 224.933L230.948 226.835L234.009 228.838L239.284 226.927L236.214 224.933ZM236.214 224.933L230.948 226.835L234.009 228.838L239.284 226.927L236.214 224.933ZM236.214 224.933L230.948 226.835L234.009 228.838L239.284 226.927L236.214 224.933ZM224.415 229.21L227.53 231.187L233.143 229.152L230.082 227.159L224.415 229.21ZM236.214 224.958L230.948 226.861L234.009 228.862L239.284 226.952L236.214 224.958ZM236.214 224.958L230.948 226.861L234.009 228.862L239.284 226.952L236.214 224.958ZM236.214 224.958L230.948 226.861L234.009 228.862L239.284 226.952L236.214 224.958ZM236.214 224.958L230.948 226.861L234.009 228.862L239.284 226.952L236.214 224.958ZM236.214 224.958L230.948 226.861L234.009 228.862L239.284 226.952L236.214 224.958ZM236.214 224.958L230.948 226.861L234.009 228.862L239.284 226.952L236.214 224.958ZM240.033 227.44L234.768 229.351L238.276 231.633L243.542 229.723L240.033 227.44ZM240.925 227.125L244.442 229.417L244.692 229.317L245.673 225.413L240.925 227.125ZM240.176 226.637L239.284 226.952L240.033 227.44L240.925 227.125L240.176 226.637ZM240.07 227.465L234.804 229.375L238.311 231.659L243.576 229.747L240.07 227.465ZM240.07 227.465L234.804 229.375L238.311 231.659L243.576 229.747L240.07 227.465ZM240.07 227.465L234.804 229.375L238.311 231.659L243.576 229.747L240.07 227.465ZM245.209 224.834L245.746 225.182L245.897 224.594L245.209 224.834ZM240.176 226.662L239.284 226.976L240.033 227.465L240.925 227.15L240.176 226.662ZM242.148 222.841L237.105 224.643L240.167 226.637L245.201 224.81L242.148 222.841ZM240.176 226.662L239.284 226.976L240.033 227.465L240.925 227.15L240.176 226.662ZM240.07 227.489L234.804 229.401L238.311 231.683L243.576 229.773L240.07 227.489ZM240.176 226.662L239.284 226.976L240.033 227.465L240.925 227.15L240.176 226.662ZM240.07 227.489L234.804 229.401L238.311 231.683L243.576 229.773L240.07 227.489ZM240.07 227.489L234.804 229.401L238.311 231.683L243.576 229.773L240.07 227.489ZM240.962 227.175L244.478 229.466L243.585 229.773L244.344 230.261L239.069 232.179L238.319 231.683L237.427 231.998L238.186 232.485L232.643 234.439L235.322 236.158L240.792 234.173L241.559 234.669L236.124 236.655L239.694 238.93L241.864 240.303L242.452 237.929L243.033 235.637L243.22 234.902L243.443 233.992L243.658 233.165L244.371 230.319V230.186L244.532 229.574L244.586 229.342L245.566 225.438L240.962 227.175ZM240.07 227.489L234.804 229.401L238.311 231.683L243.576 229.773L240.07 227.489ZM240.176 226.662L239.284 226.976L240.033 227.465L240.925 227.15L240.176 226.662ZM240.07 227.489L234.804 229.401L238.311 231.683L243.576 229.773L240.07 227.489ZM240.176 226.662L239.284 226.976L240.033 227.465L240.925 227.15L240.176 226.662ZM240.07 227.489L234.804 229.401L238.311 231.683L243.576 229.773L240.07 227.489ZM240.176 226.662L239.284 226.976L240.033 227.465L240.925 227.15L240.176 226.662ZM240.07 227.489L234.804 229.401L238.311 231.683L243.576 229.773L240.07 227.489ZM240.176 226.662L239.284 226.976L240.033 227.465L240.925 227.15L240.176 226.662ZM243.005 222.527L245.924 224.429L246.745 221.169L243.005 222.527ZM238.543 220.5L233.5 222.328L232.75 221.831L237.784 220.011L238.543 220.5L239.436 220.186L238.678 219.697L244.032 217.769L241.355 216.008L236.044 217.952L235.152 218.258L230.073 220.11L229.181 220.424L223.933 222.344L223.041 222.658L217.258 224.768L219.935 226.464L225.673 224.379L226.432 224.876L220.702 226.952L223.576 228.771L229.261 226.72L230.011 227.209L230.903 226.893L230.153 226.406L235.419 224.494L236.169 224.991L237.062 224.677L236.303 224.18L241.336 222.352L238.543 220.5ZM227.388 224.544L226.619 224.057L231.893 222.145L232.643 222.634L227.388 224.544ZM244.835 217.455L243.942 217.769L244.702 218.258L245.594 217.944L244.835 217.455ZM245.585 217.944L247.263 219.035L247.718 217.175L245.585 217.944ZM242.13 215.694L244.808 217.455L247.905 216.33L248.672 213.294L242.13 215.694ZM240.149 226.654L239.258 226.968L240.006 227.456L240.899 227.142L240.149 226.654ZM241.363 222.336L238.543 220.5L233.5 222.328L232.608 222.634L235.438 224.478L236.188 224.975L237.079 224.661L236.321 224.164L241.363 222.336ZM242.122 222.833L237.105 224.643L240.167 226.637L245.201 224.81L242.122 222.833ZM247.066 219.78L244.737 218.258L239.382 220.186L242.202 222.03L241.355 222.336L242.104 222.833L242.996 222.527L242.246 222.03L246.95 220.325L247.066 219.78ZM240.149 226.654L245.183 224.826L242.122 222.833L237.105 224.643L240.149 226.654ZM241.363 222.336L238.543 220.5L233.5 222.328L232.608 222.634L235.438 224.478L236.188 224.975L237.079 224.661L236.321 224.164L241.363 222.336ZM240.042 227.456L234.776 229.367L238.285 231.65L243.55 229.739L240.042 227.456ZM240.042 227.456L234.776 229.367L238.285 231.65L243.55 229.739L240.042 227.456ZM236.222 224.975L230.957 226.877L234.018 228.879L239.292 226.968L236.222 224.975ZM233.93 229.673L228.297 231.692L231.867 233.95L237.4 231.948L233.93 229.673ZM234.018 228.846L233.126 229.152L233.893 229.64L234.742 229.334L234.018 228.846ZM240.042 227.423L234.776 229.334L238.285 231.617L243.55 229.707L240.042 227.423ZM240.935 227.109L244.451 229.401L244.702 229.301L245.682 225.396L240.935 227.109ZM240.186 226.621L239.292 226.935L240.042 227.423L240.935 227.109L240.186 226.621ZM232.643 222.592L227.388 224.502L230.207 226.348L235.473 224.437L232.643 222.592ZM232.643 222.592L227.388 224.502L230.207 226.348L235.473 224.437L232.643 222.592ZM232.643 222.592L227.388 224.502L230.207 226.348L235.473 224.437L232.643 222.592Z" fill="#2E353A"/>
<path d="M240.471 246.862L252.492 198.157C252.947 196.32 254.33 194.79 256.204 194.062L320.784 168.824C321.667 168.484 322.676 168.865 323.05 169.684C323.203 170.024 323.229 170.404 323.113 170.759L307.611 219.234L240.471 246.862Z" fill="#8EE26B" stroke="#2E353A" stroke-width="0.495524" stroke-miterlimit="10"/>
<path d="M288.975 201.978C290.822 202.962 291.215 205.535 289.868 207.719C288.521 209.903 285.904 210.871 284.057 209.886C282.211 208.902 281.818 206.329 283.165 204.145C284.512 201.962 287.128 200.985 288.975 201.978Z" fill="#2E353A"/>
</g>
<defs>
<clipPath id="clip0_505_146">
<rect width="335" height="298" fill="white"/>
</clipPath>
</defs>
</svg>
