<svg width="335" height="298" viewBox="0 0 335 298" fill="none" xmlns="http://www.w3.org/2000/svg">
<g clip-path="url(#clip0_507_358)">
<g opacity="0.08">
<path opacity="0.08" d="M20.8783 185.717C20.8783 185.717 30.9417 243.215 81.9831 274.373C133.016 305.532 196.457 298.099 248.025 293.51C299.592 288.92 334.387 251.946 333.637 204.687C332.887 157.429 291.935 150.142 263.194 100.844C234.452 51.5556 233.848 33.9193 184.41 8.74014C134.973 -16.4298 67.7977 14.8017 39.0648 76.2777C10.332 137.754 20.8783 185.717 20.8783 185.717Z" fill="#8EE26B"/>
<path opacity="0.7" d="M20.8783 185.717C20.8783 185.717 30.9417 243.215 81.9831 274.373C133.016 305.532 196.457 298.099 248.025 293.51C299.592 288.92 334.387 251.946 333.637 204.687C332.887 157.429 291.935 150.142 263.194 100.844C234.452 51.5556 233.848 33.9193 184.41 8.74014C134.973 -16.4298 67.7977 14.8017 39.0648 76.2777C10.332 137.754 20.8783 185.717 20.8783 185.717Z" fill="#8EE26B"/>
</g>
<path d="M281.928 217.934L277.247 294.127C277.143 294.904 276.519 295.569 275.791 295.569C274.958 295.569 274.334 294.904 274.334 294.016C274.334 294.016 274.334 294.016 274.334 293.905L276.31 217.822H281.928V217.934Z" fill="#263238" stroke="#263238" stroke-linecap="round" stroke-linejoin="round"/>
<path d="M294.1 217.934L298.78 294.128C298.78 294.904 299.405 295.569 300.237 295.569C301.07 295.569 301.693 294.904 301.693 294.016L299.717 218.044L294.1 217.934Z" fill="#263238" stroke="#263238" stroke-linecap="round" stroke-linejoin="round"/>
<path d="M246.66 217.934L251.341 294.128C251.341 294.904 251.966 295.569 252.797 295.569C253.63 295.569 254.254 294.904 254.254 294.016L252.278 218.044L246.66 217.934Z" fill="#263238" stroke="#263238" stroke-linecap="round" stroke-linejoin="round"/>
<path d="M227.311 217.934L222.63 294.128C222.526 294.904 221.902 295.569 221.173 295.569C220.341 295.569 219.717 294.904 219.717 294.016L221.693 218.044L227.311 217.934Z" fill="#263238" stroke="#263238" stroke-linecap="round" stroke-linejoin="round"/>
<path d="M309.704 141.074C309.704 141.074 262.473 139.189 258.519 139.189C254.566 139.189 253.63 141.074 253.63 141.074L246.868 191.759C246.868 191.759 225.957 185.327 221.796 186.214C217.635 187.101 223.876 218.821 223.876 218.821H247.596L248.012 216.935H301.589L315.841 144.735C314.905 141.407 309.704 141.074 309.704 141.074Z" fill="white" stroke="#263238" stroke-linecap="round" stroke-linejoin="round"/>
<path d="M291.811 172.794C291.811 172.794 296.597 206.067 291.083 209.948C290.251 210.502 285.569 213.386 281.304 212.942C277.871 212.61 253.32 212.942 253.32 212.942C253.32 212.942 249.886 206.067 249.262 200.965C248.638 195.863 253.944 174.015 253.944 174.015L291.811 172.794Z" fill="white" stroke="#263238" stroke-linecap="round" stroke-linejoin="round"/>
<path d="M251.55 190.54C251.55 190.54 215.971 194.422 214.305 195.531C212.641 196.64 204.943 203.738 206.295 208.395C207.647 213.054 204.319 213.387 207.335 214.163C210.353 214.94 253.63 214.828 253.63 214.828" fill="#8EE26B"/>
<path d="M251.55 190.54C251.55 190.54 215.971 194.422 214.305 195.531C212.641 196.64 204.943 203.738 206.295 208.395C207.647 213.054 204.319 213.387 207.335 214.163C210.353 214.94 253.63 214.828 253.63 214.828" stroke="#263238" stroke-linecap="round" stroke-linejoin="round"/>
<path d="M303.672 212.056H219.197V218.821H303.672V212.056Z" fill="white" stroke="#263238" stroke-linecap="round" stroke-linejoin="round"/>
<path d="M283.695 191.98H232.823C232.823 191.98 230.119 195.197 229.806 201.962C229.494 208.727 230.119 210.17 234.8 211.944C239.481 213.719 281.198 212.832 281.198 212.832" fill="#8EE26B"/>
<path d="M283.695 191.98H232.823C232.823 191.98 230.119 195.197 229.806 201.962C229.494 208.727 230.119 210.17 234.8 211.944C239.481 213.719 281.198 212.832 281.198 212.832" stroke="#263238" stroke-linecap="round" stroke-linejoin="round"/>
<path d="M243.644 278.046L238.338 264.625L229.6 266.401L236.258 278.378L232.409 286.586L224.086 292.352C224.086 292.352 223.149 293.351 227.312 293.019C231.473 292.685 240.107 293.019 240.107 293.019L245.517 286.252C245.517 286.252 247.493 282.815 243.644 278.046Z" fill="white" stroke="#263238" stroke-linecap="round" stroke-linejoin="round"/>
<path d="M246.036 283.924L246.244 292.686H244.892L243.123 288.361L246.036 283.924Z" fill="#263238" stroke="#263238" stroke-linecap="round" stroke-linejoin="round"/>
<path d="M240.105 293.129L245.516 286.364C245.516 286.364 246.972 283.813 244.995 280.153C241.146 287.25 235.944 289.358 235.944 289.358L230.534 288.027L223.981 292.574C223.981 292.574 223.045 293.573 227.206 293.24C231.367 292.907 240.105 293.129 240.105 293.129Z" fill="#263238" stroke="#263238" stroke-linecap="round" stroke-linejoin="round"/>
<path d="M222.732 209.505L240.522 267.065L227.83 269.507L202.863 209.616C202.863 209.616 200.885 200.633 206.191 197.859C211.497 195.087 227.309 193.534 227.309 193.534" fill="#8EE26B"/>
<path d="M222.732 209.505L240.522 267.065L227.83 269.506L202.863 209.616C202.863 209.616 200.885 200.633 206.191 197.859C211.497 195.087 227.309 193.534 227.309 193.534" stroke="#263238" stroke-linecap="round" stroke-linejoin="round"/>
<path d="M279.952 218.71C279.952 218.71 273.813 186.879 277.871 186.104C281.928 185.327 302.943 191.648 302.943 191.648L309.704 141.074C309.704 141.074 316.779 139.854 317.612 146.62C318.34 153.385 303.672 218.71 303.672 218.71H279.952Z" fill="#263238" stroke="#263238" stroke-linecap="round" stroke-linejoin="round"/>
<path d="M207.545 124.993L204.422 119.447C203.798 118.338 202.655 117.673 201.51 117.784L198.493 117.895L193.396 116.231C192.772 116.009 192.044 116.231 191.627 116.897L191.418 117.118L196.1 119.336L191.418 121.222L186.426 118.56C186.01 118.338 185.489 118.449 185.281 118.893C184.969 119.336 185.072 120.002 185.489 120.335L192.459 126.102C192.875 126.435 193.5 126.656 194.02 126.545L201.718 124.882L203.903 127.433L207.545 124.993Z" fill="white" stroke="#263238" stroke-linecap="round" stroke-linejoin="round"/>
<path d="M261.33 113.569L232.72 145.511L205.465 121.998L201.719 124.882L231.68 161.149L257.69 146.176L261.33 113.569Z" fill="white" stroke="#263238" stroke-linecap="round" stroke-linejoin="round"/>
<path d="M304.088 121.776L319.068 170.798L306.168 171.241L293.268 148.173C293.268 148.173 300.551 124.993 304.088 121.776Z" fill="white" stroke="#263238" stroke-linecap="round" stroke-linejoin="round"/>
<path d="M287.753 113.348L304.085 121.777L290.457 162.48L292.018 173.793L253.838 173.903L258.415 155.603L255.295 143.848C254.878 142.295 254.878 140.742 255.19 139.189L261.329 113.57L277.349 110.797L287.753 113.348Z" fill="white" stroke="#263238" stroke-linecap="round" stroke-linejoin="round"/>
<path d="M287.025 110.908C287.025 110.908 290.25 113.237 290.354 115.233C290.354 116.453 290.354 118.56 290.25 120.224C290.146 121.444 289.938 122.775 289.417 123.884L283.696 131.315L277.037 125.658L271.524 128.653C271.524 128.653 270.484 119.558 272.876 113.237C275.269 106.915 285.777 109.355 287.025 110.908Z" fill="white" stroke="#263238" stroke-linecap="round" stroke-linejoin="round"/>
<path d="M291.603 93.3844C291.603 93.3844 290.25 98.3753 289.626 101.703C289.001 105.03 287.753 111.684 287.858 114.124C287.961 116.564 278.078 127.211 276.934 125.659C275.79 124.106 274.438 114.901 274.438 114.901L275.685 100.039C275.581 100.039 288.482 84.8446 291.603 93.3844Z" fill="white" stroke="#263238" stroke-linecap="round" stroke-linejoin="round"/>
<path d="M271.004 85.6207C271.004 85.6207 269.236 88.7261 269.236 90.0571C269.236 91.3879 269.861 94.0497 269.756 94.8261C269.652 95.6024 267.883 98.1533 267.676 99.0406C267.467 99.8168 267.78 100.593 268.404 100.926C268.82 101.148 269.236 101.37 269.652 101.702C269.652 101.702 270.173 108.579 271.004 110.353C271.837 112.128 272.565 112.904 275.062 113.126C277.559 113.348 283.384 110.575 284.217 108.357C285.05 106.139 285.153 103.477 285.257 100.371C285.362 97.2661 283.281 92.608 281.72 88.2825C280.159 83.9571 273.71 81.2953 271.004 85.6207Z" fill="white" stroke="#263238" stroke-linecap="round" stroke-linejoin="round"/>
<path d="M297.638 108.135C302.003 108.135 305.543 104.361 305.543 99.7058C305.543 95.0507 302.003 91.2769 297.638 91.2769C293.27 91.2769 289.73 95.0507 289.73 99.7058C289.73 104.361 293.27 108.135 297.638 108.135Z" fill="#BA6E38" stroke="#263238" stroke-linecap="round" stroke-linejoin="round"/>
<path d="M270.9 85.1768C270.9 85.1768 274.126 82.2932 279.846 88.0604C285.569 93.8275 283.384 102.367 287.233 104.142C291.082 105.916 298.156 97.1548 298.989 92.7185C299.822 88.2822 297.325 79.2986 289.626 77.5241C281.927 75.7495 272.669 76.9696 270.9 85.1768Z" fill="#BA6E38" stroke="#263238" stroke-linecap="round" stroke-linejoin="round"/>
<path d="M270.901 85.1768C270.692 82.626 272.356 80.4078 274.645 80.186C274.957 80.186 275.373 80.186 275.685 80.186C280.887 80.5187 281.408 89.2805 284.112 92.7186C286.816 96.1567 288.273 95.6022 288.273 95.6022C288.273 95.6022 283.593 97.044 280.575 95.2694C277.558 93.4949 276.205 83.6242 270.901 85.1768Z" fill="#BA6E38" stroke="#263238" stroke-linecap="round" stroke-linejoin="round"/>
<path d="M282.966 100.815C282.966 100.815 288.481 93.1621 289.729 98.8184C290.978 104.475 286.608 105.916 284.527 105.251C282.447 104.586 282.759 103.366 282.759 103.366" fill="white"/>
<path d="M282.966 100.815C282.966 100.815 288.481 93.1621 289.729 98.8184C290.978 104.475 286.608 105.916 284.527 105.251C282.447 104.586 282.759 103.366 282.759 103.366" stroke="#263238" stroke-linecap="round" stroke-linejoin="round"/>
<path d="M270.693 166.473C270.693 166.473 260.185 168.025 258.416 168.025C256.648 168.025 252.279 173.903 252.279 173.903H271.525L270.693 166.473Z" fill="white" stroke="#263238" stroke-linecap="round" stroke-linejoin="round"/>
<path d="M315.321 158.931L319.068 168.024C319.691 169.91 318.756 171.907 316.987 172.572C316.674 172.684 316.362 172.794 315.947 172.794L270.484 173.016L270.796 166.473L306.064 160.483" fill="white"/>
<path d="M315.321 158.931L319.068 168.024C319.691 169.91 318.756 171.907 316.987 172.572C316.674 172.684 316.362 172.794 315.947 172.794L270.484 173.016L270.796 166.473L306.064 160.483" stroke="#263238" stroke-linecap="round" stroke-linejoin="round"/>
<path d="M254.463 283.924L254.672 292.686H253.32L251.654 288.361L254.463 283.924Z" fill="#263238" stroke="#263238" stroke-linecap="round" stroke-linejoin="round"/>
<path d="M252.07 278.045L250.406 265.292L241.667 265.846L244.683 278.489L240.834 286.696L232.512 292.464C232.512 292.464 231.575 293.461 235.736 293.129C239.899 292.796 248.533 293.129 248.533 293.129L253.943 286.364C254.046 286.364 255.919 282.815 252.07 278.045Z" fill="white" stroke="#263238" stroke-linecap="round" stroke-linejoin="round"/>
<path d="M248.533 293.129L253.943 286.364C253.943 286.364 255.399 283.813 253.422 280.153C249.573 287.25 244.372 289.358 244.372 289.358L239.066 288.027L232.512 292.574C232.512 292.574 231.575 293.573 235.736 293.24C239.899 292.907 248.533 293.129 248.533 293.129Z" fill="#263238" stroke="#263238" stroke-linecap="round" stroke-linejoin="round"/>
<path d="M248.118 199.634L251.863 267.621L240.004 267.954L228.455 206.177C228.455 206.177 228.664 194.422 232.201 193.091C235.738 191.76 245.101 193.201 245.101 193.201" fill="#8EE26B"/>
<path d="M248.118 199.634L251.863 267.621L240.004 267.954L228.455 206.177C228.455 206.177 228.664 194.422 232.201 193.091C235.738 191.76 245.101 193.201 245.101 193.201" stroke="#263238" stroke-linecap="round" stroke-linejoin="round"/>
<path d="M196.412 53.2354L211.082 97.1548C211.082 97.1548 209.104 107.026 203.279 106.693C197.452 106.36 195.893 97.5985 194.332 96.3784C192.772 95.1585 190.482 85.6205 190.482 85.6205L196.412 53.2354Z" fill="white" stroke="#263238" stroke-linecap="round" stroke-linejoin="round"/>
<path d="M158.44 44.4736L134.617 53.5681L143.772 124.105H186.738L196.412 53.2354L170.613 44.5847L158.44 44.4736Z" fill="white" stroke="#263238" stroke-linecap="round" stroke-linejoin="round"/>
<path d="M160.73 56.5628L164.163 61.9973L161.147 109.022L165.62 121.222L170.093 109.355L166.244 62.7737L169.365 54.7885L164.996 48.6885L160.73 56.5628Z" fill="#8EE26B" stroke="#263238" stroke-linecap="round" stroke-linejoin="round"/>
<path d="M165.515 54.2336L159.377 59.1135L155.32 46.3591L158.129 39.8156L170.717 39.4829L173.734 42.4774L173.109 58.7808L165.515 54.2336Z" fill="white" stroke="#263238" stroke-linecap="round" stroke-linejoin="round"/>
<path d="M171.965 36.4884L171.028 44.6955L164.162 54.1227L158.961 44.4736V29.1685C158.961 29.1685 168.011 31.6083 171.965 36.4884Z" fill="white" stroke="#263238" stroke-linecap="round" stroke-linejoin="round"/>
<path d="M155.424 19.4087C155.424 11.867 160.521 5.87793 166.867 5.87793C173.213 5.87793 176.75 12.3106 176.75 19.7414C176.75 22.1814 176.23 26.2849 176.126 28.5032C175.814 32.274 174.774 33.8266 172.589 37.2648C165.722 48.3556 160.104 32.0521 157.192 26.6178C156.048 24.3995 155.424 21.9595 155.424 19.4087Z" fill="white" stroke="#263238" stroke-linecap="round" stroke-linejoin="round"/>
<path d="M171.861 21.7373L172.901 29.5009L169.469 29.3899" fill="white"/>
<path d="M171.861 21.7373L172.901 29.5009L169.469 29.3899" stroke="#263238" stroke-linecap="round" stroke-linejoin="round"/>
<path d="M179.456 20.4067L163.122 20.5176C162.706 21.8485 163.018 23.4012 163.955 24.5103C164.995 25.6193 169.261 25.1757 169.885 24.954C170.509 24.732 170.925 21.5158 170.925 21.5158H172.173C172.173 21.5158 172.277 24.8429 174.046 25.0649C175.814 25.2866 178.102 25.2866 178.519 24.954C180.392 23.5121 179.456 20.4067 179.456 20.4067Z" fill="white" stroke="#263238" stroke-linecap="round" stroke-linejoin="round"/>
<path d="M157.506 27.8377C157.506 27.8377 161.146 35.8231 162.083 38.7066C163.019 41.5902 167.285 43.6974 171.653 42.1447C176.023 40.5921 174.878 33.7157 174.878 33.7157C174.878 33.7157 170.198 29.5013 169.365 30.3886C168.532 31.2758 163.852 35.3794 163.539 34.3812C163.227 33.383 161.251 27.8377 161.251 27.8377L160.315 23.8449L162.291 22.5141C162.915 21.9595 163.019 21.0722 162.498 20.4069L161.563 18.965C161.355 18.6323 161.251 18.1886 161.355 17.7451C161.563 16.525 162.291 13.9742 163.747 13.3087C165.828 12.4215 168.325 13.7524 170.717 14.3069C173.11 14.8615 175.607 12.6433 175.607 12.6433L176.647 16.3032C178.936 13.9742 180.601 10.9797 181.329 7.76334C182.474 2.43977 170.613 0.33252 166.764 0.33252C162.915 0.33252 156.881 2.55067 155.112 8.42878C153.343 14.3069 156.464 26.8395 157.506 27.8377Z" fill="#FFB7B7" stroke="#263238" stroke-linecap="round" stroke-linejoin="round"/>
<path d="M158.026 25.3975C158.026 25.3975 154.801 21.6266 154.801 25.7301C154.801 29.8338 155.737 29.8338 157.713 31.2755C159.69 32.7174 160.314 30.9428 160.314 30.9428" fill="white"/>
<path d="M158.026 25.3975C158.026 25.3975 154.801 21.6266 154.801 25.7301C154.801 29.8338 155.737 29.8338 157.713 31.2755C159.69 32.7174 160.314 30.9428 160.314 30.9428" stroke="#263238" stroke-linecap="round" stroke-linejoin="round"/>
<path d="M200.99 281.04H201.094L200.782 279.487L186.738 124.216H143.668L129.52 281.151H129.624L138.779 282.038C138.779 282.038 148.869 245.771 148.869 243.109C148.869 240.447 151.783 215.382 151.783 215.382L166.139 161.592L178.935 215.16C178.935 215.16 181.847 240.225 181.847 242.887C181.847 245.549 192.044 281.927 192.044 281.927L200.678 281.151L200.99 281.04Z" fill="#263238" stroke="#263238" stroke-linecap="round" stroke-linejoin="round"/>
<path d="M129.729 281.04C129.729 281.04 124.215 285.587 121.094 286.918C117.973 288.249 112.043 291.576 112.043 291.576C112.043 291.576 112.043 293.683 117.141 293.683H137.218L136.906 281.04H129.729Z" fill="#263238" stroke="#263238" stroke-linecap="round" stroke-linejoin="round"/>
<path d="M137.218 291.355C129.208 291.798 121.094 291.576 113.083 290.911L112.043 291.466C112.043 291.466 112.043 293.573 117.141 293.573H137.323L137.218 291.355Z" fill="white" stroke="#263238" stroke-linecap="round" stroke-linejoin="round"/>
<path d="M200.159 281.04C200.159 281.04 205.672 285.587 208.793 286.918C211.914 288.249 217.844 291.576 217.844 291.576C217.844 291.576 217.844 293.683 212.746 293.683H192.668L193.084 281.04H200.159Z" fill="#263238" stroke="#263238" stroke-linecap="round" stroke-linejoin="round"/>
<path d="M192.668 291.355C200.678 291.798 208.793 291.576 216.804 290.911L217.844 291.466C217.844 291.466 217.844 293.573 212.746 293.573H192.668V291.355Z" fill="white" stroke="#263238" stroke-linecap="round" stroke-linejoin="round"/>
<path d="M134.618 53.5684L118.701 98.7079H133.89L139.612 86.3971L134.618 53.5684Z" fill="white" stroke="#263238" stroke-linecap="round" stroke-linejoin="round"/>
<path d="M203.903 91.7206C197.557 88.948 177.166 87.5062 176.126 87.5062C175.086 87.5062 142.003 84.6225 139.299 84.179C136.593 83.7353 133.473 90.3898 133.473 90.3898L147.829 89.9461L165.307 93.717C165.307 93.717 200.677 107.359 203.383 106.582C203.695 106.471 204.111 106.25 204.319 105.917" fill="white"/>
<path d="M203.903 91.7206C197.557 88.948 177.166 87.5062 176.126 87.5062C175.086 87.5062 142.003 84.6225 139.299 84.179C136.593 83.7353 133.473 90.3898 133.473 90.3898L147.829 89.9461L165.307 93.717C165.307 93.717 200.677 107.359 203.383 106.582C203.695 106.471 204.111 106.25 204.319 105.917" stroke="#263238" stroke-linecap="round" stroke-linejoin="round"/>
<path d="M129.936 89.613L184.658 83.8457L185.073 88.8366L137.739 104.142C137.739 104.142 129.208 106.249 122.55 104.918C115.892 103.587 119.012 96.6001 120.573 92.4966" fill="white"/>
<path d="M129.936 89.613L184.658 83.8457L185.073 88.8366L137.739 104.142C137.739 104.142 129.208 106.249 122.55 104.918C115.892 103.587 119.012 96.6001 120.573 92.4966" stroke="#263238" stroke-linecap="round" stroke-linejoin="round"/>
<path d="M184.658 83.8456L195.165 83.4019L198.286 90.0564L185.075 88.8363L184.658 83.8456Z" fill="white" stroke="#263238" stroke-linecap="round" stroke-linejoin="round"/>
<path d="M254.463 181.112L263.409 294.571C263.513 295.236 264.137 295.68 264.761 295.68C264.761 295.68 264.761 295.68 264.866 295.68C265.386 295.569 265.801 295.014 265.698 294.349L259.56 181.223L254.463 181.112Z" fill="#263238" stroke="#263238" stroke-linecap="round" stroke-linejoin="round"/>
<path d="M314.49 181.112L323.541 295.014C323.645 295.68 324.269 296.123 324.893 296.123H324.997C325.518 296.013 325.933 295.458 325.83 294.792L319.692 181.223L314.49 181.112Z" fill="#263238" stroke="#263238" stroke-linecap="round" stroke-linejoin="round"/>
<path d="M66.6838 181.112L62.0024 293.573C61.8983 294.127 62.3145 294.792 62.8347 294.904C63.4589 295.014 64.083 294.682 64.1871 294.017C64.1871 294.017 64.1871 293.905 64.1871 293.795L71.7815 181.112H66.6838Z" fill="#263238" stroke="#263238" stroke-linecap="round" stroke-linejoin="round"/>
<path d="M11.3397 181.112L6.6582 293.129C6.6582 293.795 6.9703 294.349 7.59449 294.46C8.21869 294.572 8.84289 294.238 8.94692 293.573V293.463L16.4372 181.112H11.3397Z" fill="#263238" stroke="#263238" stroke-linecap="round" stroke-linejoin="round"/>
<path d="M326.245 174.901H8.00977V184.661H326.245V174.901Z" fill="#8EE26B" stroke="#263238" stroke-linecap="round" stroke-linejoin="round"/>
<path d="M326.245 174.901H8.00977V178.228H326.245V174.901Z" fill="#263238" stroke="#263238" stroke-linecap="round" stroke-linejoin="round"/>
<path d="M326.142 174.901H246.557V184.661H326.142V174.901Z" fill="#263238" stroke="#263238" stroke-linecap="round" stroke-linejoin="round"/>
<path d="M329.055 171.685H5.20117V175.456H329.055V171.685Z" fill="#8EE26B" stroke="#263238" stroke-linecap="round" stroke-linejoin="round"/>
<path d="M329.055 171.685H249.887V175.456H329.055V171.685Z" fill="#263238" stroke="#263238" stroke-linecap="round" stroke-linejoin="round"/>
<path d="M77.2956 171.241H120.781C121.093 171.241 121.405 171.019 121.613 170.686L133.681 141.407C133.889 140.963 133.681 140.409 133.265 140.187C133.161 140.187 133.057 140.076 132.953 140.076H89.3634C89.0513 140.076 88.7392 140.298 88.6352 140.631L76.6715 169.91C76.4634 170.354 76.6715 170.908 77.0876 171.13C77.0876 171.241 77.1916 171.241 77.2956 171.241Z" fill="white" stroke="#263238" stroke-linecap="round" stroke-linejoin="round"/>
<path d="M81.3523 169.023H118.388C118.7 169.023 118.908 168.801 119.012 168.579L129.311 143.626C129.519 143.292 129.311 142.738 128.999 142.627C128.895 142.517 128.791 142.517 128.687 142.517H91.6514C91.3393 142.517 91.1313 142.738 91.0272 142.96L80.7281 167.915C80.5201 168.247 80.7281 168.801 81.1442 168.913C81.2482 169.023 81.2482 169.023 81.3523 169.023Z" fill="#8EE26B" stroke="#263238" stroke-linecap="round" stroke-linejoin="round"/>
<path d="M121.405 169.355H56.0723V171.573H121.405V169.355Z" fill="white" stroke="#263238" stroke-linecap="round" stroke-linejoin="round"/>
<path d="M121.405 169.355H89.7793V171.573H121.405V169.355Z" fill="white" stroke="#263238" stroke-linecap="round" stroke-linejoin="round"/>
<path d="M142.421 153.496H130.873V171.685H142.421V153.496Z" fill="white" stroke="#263238" stroke-linecap="round" stroke-linejoin="round"/>
<path d="M141.899 169.245H140.651C140.131 169.245 139.714 168.801 139.714 168.247C139.714 167.692 140.131 167.248 140.651 167.248H141.899C142.94 167.248 143.668 166.361 143.668 165.363V160.927C143.668 159.818 142.835 159.042 141.899 159.042H140.34C139.819 159.042 139.402 158.597 139.402 158.043C139.402 157.489 139.819 157.044 140.34 157.044H141.899C143.98 157.044 145.541 158.82 145.541 160.927V165.363C145.541 167.47 143.875 169.245 141.899 169.245Z" fill="white" stroke="#263238" stroke-linecap="round" stroke-linejoin="round"/>
<path d="M232.304 171.241H188.819C188.507 171.241 188.195 171.019 188.091 170.686L176.023 141.407C175.815 140.963 176.023 140.409 176.439 140.187C176.544 140.187 176.648 140.076 176.751 140.076H220.237C220.549 140.076 220.861 140.298 221.069 140.631L233.137 169.91C233.346 170.354 233.137 170.908 232.721 171.13C232.617 171.241 232.409 171.241 232.304 171.241Z" fill="white" stroke="#263238" stroke-linecap="round" stroke-linejoin="round"/>
<path d="M253.63 169.355H188.297V171.573H253.63V169.355Z" fill="white" stroke="#263238" stroke-linecap="round" stroke-linejoin="round"/>
<path d="M233.344 169.355H188.297V171.573H233.344V169.355Z" fill="white" stroke="#263238" stroke-linecap="round" stroke-linejoin="round"/>
<path d="M205.36 152.387C205.984 153.718 205.568 155.381 204.32 156.047C203.072 156.712 201.511 156.269 200.887 154.938C200.262 153.607 200.678 152.054 201.927 151.278C203.072 150.501 204.632 151.056 205.36 152.387Z" fill="white" stroke="#263238" stroke-linecap="round" stroke-linejoin="round"/>
<path d="M19.87 145.067C19.87 145.067 23.0951 152.277 23.4071 154.162C23.7192 156.048 24.1353 159.929 22.7829 161.704C21.1184 163.811 19.5579 162.148 19.5579 162.148C19.5579 162.148 15.2925 161.038 15.2925 157.156C15.2925 153.275 14.9805 148.062 14.9805 148.062L19.87 145.067Z" fill="white" stroke="#263238" stroke-linecap="round" stroke-linejoin="round"/>
<path d="M16.332 156.38L22.3658 158.043" stroke="#263238" stroke-linecap="round" stroke-linejoin="round"/>
<path d="M17.7897 152.055L19.4542 154.939C19.4542 154.939 15.501 162.148 17.5816 160.262C19.6623 158.377 23.7196 156.048 23.3035 154.162C22.6792 152.166 21.951 150.281 20.9106 148.396" fill="white"/>
<path d="M17.7897 152.055L19.4542 154.939C19.4542 154.939 15.501 162.148 17.5816 160.262C19.6623 158.377 23.7196 156.048 23.3035 154.162C22.6792 152.166 21.951 150.281 20.9106 148.396" stroke="#263238" stroke-linecap="round" stroke-linejoin="round"/>
<path d="M78.3352 76.7481C78.3352 76.7481 80.9361 85.3989 80.9361 87.0625C80.9361 88.2826 80.8319 89.5026 80.7279 90.7225L83.0166 94.4933C83.3288 95.0479 83.1206 95.6025 82.7045 95.9352L79.1675 98.1533C79.1675 98.1533 78.6474 107.026 78.1271 108.135C77.607 109.244 68.7642 109.022 68.7642 109.022L65.8513 114.9L50.9746 108.69L54.9279 97.266L54.0957 80.0754C54.0957 80.0754 63.2505 71.4245 78.3352 76.7481Z" fill="white" stroke="#263238" stroke-linecap="round" stroke-linejoin="round"/>
<path d="M68.1416 97.7092C68.1416 97.7092 65.5408 100.26 63.5641 100.482C61.5875 100.704 55.3455 99.151 54.8254 98.3746C54.3052 97.5983 49.9359 87.9492 50.1439 83.2911C50.352 78.633 50.456 71.7568 55.1374 69.4277C59.8189 67.0987 67.3093 67.8751 71.1584 65.3242C75.0077 62.7732 81.2497 60.666 84.4746 65.1022C87.6996 69.5386 85.3068 75.8603 82.706 78.4112C80.1053 80.9621 76.8803 81.7385 77.1924 82.8476C77.5045 83.9566 79.4811 85.2876 78.3367 86.9511C77.1924 88.6147 73.1351 90.2784 73.1351 90.9438C73.1351 91.6092 74.0715 94.0492 73.0311 94.3819C71.9908 94.7147 70.7423 92.0529 69.5981 92.0529C68.4536 92.0529 66.0609 95.4911 68.1416 97.7092Z" fill="#AC423B" stroke="#263238" stroke-linecap="round" stroke-linejoin="round"/>
<path d="M67.9336 98.1533L70.0143 98.7078C69.8062 100.815 70.3263 102.922 71.5746 104.586" fill="white"/>
<path d="M67.9336 98.1533L70.0143 98.7078C69.8062 100.815 70.3263 102.922 71.5746 104.586" stroke="#263238" stroke-linecap="round" stroke-linejoin="round"/>
<path d="M70.3262 92.1645L84.9948 88.2827" stroke="#263238" stroke-linecap="round" stroke-linejoin="round"/>
<path d="M81.248 87.9497L84.5772 88.0607C84.5772 88.0607 85.7215 92.0534 82.2884 92.608" stroke="#263238" stroke-linecap="round" stroke-linejoin="round"/>
<path d="M66.4769 279.709C66.4769 279.709 80.0011 288.804 82.3939 288.804C84.7866 288.804 85.9309 291.133 84.7866 291.355C83.6422 291.576 76.2559 291.91 71.2624 292.13C66.2688 292.352 62.9397 291.91 60.1309 291.91C57.322 291.91 53.9929 292.13 52.5365 291.355C51.08 290.579 53.4728 281.927 53.4728 280.485C53.4728 279.044 64.8123 278.712 66.4769 279.709Z" fill="#263238" stroke="#263238" stroke-linecap="round" stroke-linejoin="round"/>
<path d="M83.8505 289.247C78.5449 291.133 70.1182 289.912 64.9166 289.358C60.8593 288.914 54.5133 288.914 51.9125 288.803C51.8085 290.134 51.9125 291.133 52.3286 291.355C53.7851 292.13 57.1141 291.909 59.9231 291.909C62.7319 291.909 66.0609 292.464 71.0546 292.13C76.0481 291.798 83.4344 291.575 84.5787 291.355C85.6191 291.243 85.203 289.912 83.8505 289.247Z" fill="white" stroke="#263238" stroke-linecap="round" stroke-linejoin="round"/>
<path d="M77.0871 217.157L66.3719 274.274L68.5566 280.153C66.996 282.593 64.4993 284.368 61.7944 285.032C58.7774 285.699 55.6565 286.031 52.5356 286.031C52.5356 286.031 51.3911 279.709 52.1194 278.933C52.8476 278.157 53.0557 275.163 53.0557 275.163L59.1936 217.712L77.0871 217.157Z" fill="#8EE26B" stroke="#263238" stroke-linecap="round" stroke-linejoin="round"/>
<path d="M109.65 277.825C109.65 277.825 117.973 285.144 121.718 286.475C125.463 287.806 129.52 289.026 129.52 290.246C129.52 291.466 120.47 292.797 113.603 292.02C106.737 291.243 96.23 288.027 93.9413 288.027C91.6525 288.027 92.0686 281.484 92.0686 280.375C92.0686 279.266 103.72 271.28 109.65 277.825Z" fill="#263238" stroke="#263238" stroke-linecap="round" stroke-linejoin="round"/>
<path d="M129.625 290.245C129.625 289.802 129.105 289.358 128.273 288.915C121.51 289.912 114.54 289.802 107.778 288.803C100.912 287.805 95.1902 286.363 92.2773 285.587C92.4854 286.918 93.0055 288.027 93.9419 288.027C96.3346 288.027 106.738 291.355 113.604 292.02C120.47 292.686 129.625 291.465 129.625 290.245Z" fill="white" stroke="#263238" stroke-linecap="round" stroke-linejoin="round"/>
<path d="M68.3497 191.649C75.4239 191.094 82.6021 191.204 89.6763 192.203C101.744 193.756 128.793 195.531 129.313 198.746C129.833 201.962 108.298 270.504 108.298 272.279C108.298 274.053 110.171 275.828 110.691 276.826C111.003 277.491 111.107 278.268 111.211 279.155C111.211 279.155 105.385 285.809 100.912 287.584C96.4384 289.358 92.5892 287.695 91.6529 287.695C90.7167 287.695 90.7167 280.818 91.4449 277.603C92.1731 274.387 93.3175 265.957 93.6296 265.18C93.9417 264.404 106.842 215.716 106.842 215.716C106.842 215.716 71.4706 221.815 50.352 219.265C29.2335 216.713 27.0488 213.165 25.9044 207.841C24.7601 202.517 27.0488 191.871 27.0488 191.871L68.3497 191.649Z" fill="#8EE26B" stroke="#263238" stroke-linecap="round" stroke-linejoin="round"/>
<path d="M65.6445 208.062C65.1242 208.839 64.6041 209.504 64.084 210.17" stroke="#263238" stroke-linecap="round" stroke-linejoin="round"/>
<path d="M72.0936 194.422C70.7411 198.081 69.1807 201.63 67.4121 205.068" stroke="#263238" stroke-linecap="round" stroke-linejoin="round"/>
<path d="M69.2842 196.972C66.3712 201.962 62.1059 205.955 56.9043 208.063" stroke="#263238" stroke-linecap="round" stroke-linejoin="round"/>
<path d="M123.174 210.947C124.006 210.614 124.734 210.282 125.463 209.948L123.174 210.947Z" fill="white"/>
<path d="M123.174 210.947C124.006 210.614 124.734 210.282 125.463 209.948" stroke="#263238" stroke-linecap="round" stroke-linejoin="round"/>
<path d="M106.736 215.715C111.314 214.828 115.787 213.607 120.261 212.056L106.736 215.715Z" fill="white"/>
<path d="M106.736 215.715C111.314 214.828 115.787 213.607 120.261 212.056" stroke="#263238" stroke-linecap="round" stroke-linejoin="round"/>
<path d="M134.202 131.647C134.722 129.54 135.554 129.651 134.826 128.986C133.89 127.987 133.161 129.207 130.561 130.76C127.96 132.313 125.255 134.309 125.255 134.309C125.359 133.755 125.567 133.2 125.879 132.757C126.503 131.536 126.919 130.206 126.919 128.875C126.919 127.766 126.087 127.987 125.775 129.097C125.463 130.206 122.446 132.091 122.342 132.978C122.238 133.866 121.614 137.304 121.614 137.304C120.677 138.856 120.677 145.955 120.677 145.955L101.431 161.371L91.6523 173.57C91.6523 173.57 95.9177 180.89 98.3104 179.893C100.703 178.894 101.848 177.896 107.569 172.794C112.355 168.469 124.527 148.727 124.527 148.727C126.607 147.285 128.584 145.733 130.457 143.958C132.641 141.407 133.89 138.08 134.098 134.642C133.994 133.533 133.994 132.535 134.202 131.647Z" fill="white" stroke="#263238" stroke-linecap="round" stroke-linejoin="round"/>
<path d="M45.0455 108.135C45.0455 108.135 46.9181 100.815 54.6165 102.257C62.315 103.699 68.3488 110.575 69.7013 113.015C71.0536 115.455 44.5254 112.017 44.5254 112.017L45.0455 108.135Z" fill="white" stroke="#263238" stroke-linecap="round" stroke-linejoin="round"/>
<path d="M89.8837 172.129C89.8837 172.129 88.1151 174.235 89.8837 177.452C91.1321 179.671 93.3167 181.445 97.478 180.668C101.431 179.892 107.257 169.578 107.257 162.258C107.257 154.938 102.264 154.494 100.391 155.936C98.5184 157.378 89.8837 172.129 89.8837 172.129Z" fill="white" stroke="#263238" stroke-linecap="round" stroke-linejoin="round"/>
<path d="M48.3743 107.358C48.3743 107.358 29.8564 116.675 27.2556 118.449C24.6548 120.224 22.9902 142.183 22.9902 146.066C22.9902 149.947 25.5912 187.101 26.3193 193.424C27.0475 199.745 49.8307 204.07 57.4251 201.74C65.0194 199.412 72.4057 193.756 72.4057 191.648C72.4057 189.541 71.6775 172.462 72.1977 169.134C72.7178 165.807 76.9831 151.943 76.9831 151.943L89.9872 174.013C89.9872 174.013 91.3396 176.675 96.1251 174.568C102.991 171.574 103.616 159.818 103.616 159.818C103.616 159.818 96.021 145.622 93.8363 138.523C91.6517 131.425 90.7154 126.102 89.7792 124.882C88.8428 123.662 67.4122 113.015 63.667 110.242C59.2976 106.582 53.5759 105.584 48.3743 107.358Z" fill="white" stroke="#263238" stroke-linecap="round" stroke-linejoin="round"/>
<path d="M76.88 151.832L70.7422 142.294" stroke="#263238" stroke-linecap="round" stroke-linejoin="round"/>
<path d="M75.8389 150.501L65.0195 144.845" stroke="#263238" stroke-linecap="round" stroke-linejoin="round"/>
<path d="M43.6934 223.146L53.1603 295.014C53.2643 295.68 53.7846 296.123 54.4087 296.013H54.5128C55.0329 295.901 55.449 295.347 55.345 294.682L48.6869 221.927L43.6934 223.146Z" fill="#263238" stroke="#263238" stroke-linecap="round" stroke-linejoin="round"/>
<path d="M16.4367 223.701L0.519714 294.35C0.415682 295.014 0.727779 295.681 1.35197 295.791H1.45601C1.97617 295.901 2.60037 295.459 2.70439 294.904L21.1182 226.363L16.4367 223.701Z" fill="#263238" stroke="#263238" stroke-linecap="round" stroke-linejoin="round"/>
<path d="M45.1501 222.813L35.0589 294.571C34.9549 295.236 35.371 295.902 35.9953 296.013H36.0993C36.6194 296.013 37.1396 295.68 37.2436 295.014L50.0396 225.031L45.1501 222.813Z" fill="#263238" stroke="#263238" stroke-linecap="round" stroke-linejoin="round"/>
<path d="M80.9375 223.146L90.4044 295.014C90.5085 295.68 91.0286 296.123 91.6528 296.013H91.7569C92.2771 295.901 92.6931 295.347 92.5891 294.682L85.827 221.927L80.9375 223.146Z" fill="#263238" stroke="#263238" stroke-linecap="round" stroke-linejoin="round"/>
<path d="M1.35156 148.506L12.8992 228.58H94.9809C94.9809 228.58 96.2292 205.512 92.5881 197.415C88.9469 189.319 44.3169 206.732 42.6525 206.287C41.5081 205.955 43.2767 164.698 45.4614 148.506C46.0855 144.18 43.1726 140.076 39.1153 139.411C38.8033 139.411 38.3872 139.3 38.0751 139.3H8.84191C4.6806 139.3 1.35156 142.849 1.35156 147.285C1.35156 147.729 1.35156 148.061 1.35156 148.506Z" fill="#8EE26B" stroke="#263238" stroke-linecap="round" stroke-linejoin="round"/>
<path d="M92.6934 197.305C89.0522 189.098 44.4224 206.621 42.7578 206.177C41.6134 205.845 43.382 164.588 45.5667 148.394C46.295 144.18 43.6941 140.187 39.7409 139.411C35.7876 138.635 32.0424 141.407 31.3142 145.622C31.1062 146.62 31.1062 147.507 31.3142 148.506L42.8618 228.58H95.1902C95.0862 228.58 96.2305 205.513 92.6934 197.305Z" fill="#263238" stroke="#263238" stroke-linecap="round" stroke-linejoin="round"/>
<path d="M134.202 131.647C134.202 131.647 132.85 133.089 130.873 135.529L134.202 131.647Z" fill="white"/>
<path d="M134.202 131.647C134.202 131.647 132.85 133.089 130.873 135.529" stroke="#263238" stroke-linecap="round" stroke-linejoin="round"/>
<path d="M133.994 134.42C133.994 134.42 132.329 137.858 131.393 139.522L133.994 134.42Z" fill="white"/>
<path d="M133.994 134.42C133.994 134.42 132.329 137.858 131.393 139.522" stroke="#263238" stroke-linecap="round" stroke-linejoin="round"/>
</g>
<defs>
<clipPath id="clip0_507_358">
<rect width="335" height="298" fill="white"/>
</clipPath>
</defs>
</svg>
