<svg width="335" height="298" viewBox="0 0 335 298" fill="none" xmlns="http://www.w3.org/2000/svg">
<g opacity="0.08">
<path opacity="0.08" d="M2.7955 185.508C2.7955 185.508 13.4842 242.839 67.6969 273.907C121.9 304.974 189.285 297.563 244.056 292.987C298.827 288.411 335.784 251.545 334.987 204.425C334.19 157.303 290.694 150.038 260.167 100.884C229.63 51.758 228.989 34.1732 176.48 9.0675C123.98 -16.0472 52.6302 15.0932 22.112 76.3896C-8.40608 137.686 2.7955 185.508 2.7955 185.508Z" fill="#8EE26B"/>
<path opacity="0.7" d="M2.7955 185.508C2.7955 185.508 13.4842 242.839 67.6969 273.907C121.9 304.974 189.285 297.563 244.056 292.987C298.827 288.411 335.784 251.545 334.987 204.425C334.19 157.303 290.694 150.038 260.167 100.884C229.63 51.758 228.989 34.1732 176.48 9.0675C123.98 -16.0472 52.6302 15.0932 22.112 76.3896C-8.40608 137.686 2.7955 185.508 2.7955 185.508Z" fill="#8EE26B"/>
</g>
<path d="M171.558 274.54L63.4582 283.436C60.3544 283.699 57.2507 281.145 56.5412 277.711L10.6052 53.0544C9.89573 49.6199 8.47687 43.191 21.0693 42.5745L130.323 34.2082C133.426 33.9441 136.53 36.4979 137.24 39.9325L183.886 264.853C184.595 267.936 181.225 274.276 171.558 274.54Z" fill="#263238"/>
<path d="M63.0152 283.875C59.8227 283.875 56.8077 281.234 56.0982 277.711L10.1622 53.1424C9.71878 51.117 9.09802 48.1227 10.9603 45.7449C12.6452 43.6313 15.9263 42.3984 20.9812 42.2223L130.323 33.8561C133.604 33.5918 136.974 36.3219 137.683 39.9326L184.329 264.853C184.684 266.438 184.063 268.464 182.644 270.226C181.226 271.987 178.122 274.805 171.558 274.981L63.5473 283.875C63.3699 283.875 63.1926 283.875 63.0152 283.875ZM130.766 34.6486H130.412L21.0698 43.0149C16.3697 43.279 13.1773 44.3359 11.6697 46.2733C10.0735 48.3868 10.6056 51.0288 10.9603 52.8783L56.9851 277.534C57.6058 280.705 60.5323 283.171 63.3699 282.907L171.47 274.012C177.679 273.835 180.694 271.194 181.935 269.609C183.088 268.376 183.62 266.615 183.443 264.941L136.797 40.0206C136.176 36.9383 133.516 34.6486 130.766 34.6486Z" fill="#263238"/>
<path d="M179.807 270.402L71.7058 279.296C68.602 279.56 65.4982 277.007 64.7888 273.572L18.8527 48.9154C18.1433 45.4808 20.0943 42.4866 23.198 42.2224L131.299 33.4157C134.402 33.1516 137.506 35.7054 138.216 39.14L184.152 263.797C184.861 267.144 182.911 270.138 179.807 270.402Z" fill="white"/>
<path d="M71.3516 279.737C68.1591 279.737 65.1441 277.094 64.4347 273.66L18.4099 49.0034C17.9666 47.2421 18.4099 45.3045 19.4741 43.8955C20.3608 42.7507 21.6911 41.9581 23.1986 41.87L131.299 32.8873C134.58 32.623 137.95 35.3532 138.659 38.9639L184.596 263.621C185.039 265.382 184.596 267.318 183.531 268.817C182.645 269.961 181.315 270.753 179.807 270.841L71.795 279.737H71.3516ZM131.743 33.7679H131.388L23.2873 42.6625C22.0458 42.7507 20.8929 43.3671 20.1835 44.3358C19.2967 45.6568 18.942 47.2421 19.2967 48.7391L65.3215 273.484C65.9422 276.654 68.8687 279.12 71.7063 278.855L179.807 269.961C181.048 269.873 182.201 269.256 182.911 268.288C183.797 266.967 184.152 265.382 183.797 263.797L137.861 39.228C137.152 36.1457 134.492 33.7679 131.743 33.7679Z" fill="#263238"/>
<path d="M88.3778 51.2928L73.5682 52.5257C72.6815 52.5257 71.8832 51.9093 71.7059 50.9406C71.5285 50.236 71.8832 49.4434 72.6815 49.1793C72.7701 49.1793 72.8588 49.1793 72.8588 49.1793L87.7569 47.9463C88.6438 47.9463 89.4419 48.5627 89.6192 49.5314C89.8853 50.3241 89.4419 51.0286 88.6438 51.2928C88.5551 51.2928 88.4664 51.2928 88.3778 51.2928Z" fill="#263238"/>
<path d="M173.599 249.353L69.3112 257.896L28.0752 56.4887L52.8168 54.4633L56.0979 56.753C57.1621 57.5455 58.4923 57.8978 59.8225 57.8097L103.453 54.2871C104.783 54.199 105.936 53.5825 106.734 52.5257L108.774 49.8837L132.363 47.9463L173.599 249.353Z" fill="#8EE26B"/>
<path d="M69.3112 258.425C69.1338 258.425 68.9565 258.248 68.8678 258.072L27.6318 56.5773C27.6318 56.4893 27.6318 56.3131 27.7205 56.225C27.8092 56.137 27.8979 56.0488 27.9865 56.0488L52.7281 54.0234C52.8168 54.0234 52.9055 54.0234 52.9942 54.1114L56.2753 56.4011C57.2508 57.1057 58.4922 57.458 59.7338 57.3698L103.364 53.7591C104.517 53.6711 105.581 53.0546 106.291 52.174L108.33 49.532C108.419 49.4439 108.508 49.3559 108.685 49.3559L132.274 47.4185C132.54 47.4185 132.717 47.5946 132.717 47.7707L173.954 249.266C173.954 249.353 173.954 249.529 173.865 249.618C173.776 249.706 173.688 249.794 173.51 249.794L69.3112 258.425ZM28.6073 56.8414L69.6659 257.457L173.067 248.914L132.008 48.3872L108.951 50.2366L107.089 52.7024C106.202 53.8473 104.96 54.5517 103.453 54.6398L59.8225 58.2505C58.4036 58.3385 56.9847 57.8983 55.7433 57.1057L52.7281 54.904L28.6073 56.8414Z" fill="#263238"/>
<path d="M126.066 259.569C125.8 258.16 124.558 257.192 123.139 257.192C121.898 257.367 121.1 258.424 121.188 259.657C121.188 259.745 121.188 259.921 121.277 260.01C121.543 261.418 122.785 262.387 124.203 262.387C125.445 262.21 126.243 261.154 126.155 259.921C126.155 259.833 126.155 259.745 126.066 259.569Z" fill="#263238"/>
<path d="M58.5811 99.6411L47.4076 100.522C45.5453 100.522 43.9491 99.2008 43.6831 97.4394L41.2 85.1102C40.8453 83.2608 41.9094 81.5876 43.5944 81.4995L54.7679 80.5308C56.6303 80.5308 58.2264 81.8518 58.4925 83.7012L60.9755 95.9423C61.3303 97.8798 60.2661 99.553 58.5811 99.6411Z" fill="white"/>
<path d="M47.2307 101.05C45.2797 100.962 43.5948 99.4652 43.2401 97.6158L40.757 85.2865C40.491 84.2297 40.757 83.173 41.3778 82.2923C41.9098 81.5877 42.708 81.1474 43.5948 81.0593L54.7685 80.1787C56.808 80.1787 58.5817 81.5877 59.0251 83.6133L61.508 95.8545C61.774 96.9112 61.508 97.9681 60.8873 98.8486C60.3552 99.5532 59.5571 99.9935 58.759 100.082L47.5854 100.962L47.2307 101.05ZM54.9458 81.0593H54.7685L43.5948 81.94C42.9741 82.0281 42.4419 82.2923 42.0872 82.8207C41.6438 83.5251 41.4664 84.3178 41.6438 85.1104L44.1269 97.4396C44.3929 99.0248 45.8117 100.17 47.408 100.17L58.5817 99.289C59.2024 99.2009 59.7345 98.9368 60.0892 98.4083C60.5326 97.7919 60.7099 96.9112 60.5326 96.1186L58.0496 83.8774C57.7835 82.3803 56.542 81.1474 54.9458 81.0593Z" fill="white"/>
<path d="M83.5002 97.6161L72.3266 98.4967C70.4642 98.4967 68.868 97.1757 68.602 95.3264L66.1189 83.0852C65.7642 81.2357 66.8283 79.5625 68.5133 79.4745L79.687 78.5938C81.5492 78.5938 83.1454 79.9147 83.4114 81.7642L85.8945 94.0054C86.2492 95.8547 85.1851 97.5279 83.5002 97.6161Z" fill="white"/>
<path d="M72.1496 99.0249C70.1986 98.9369 68.5138 97.4398 68.159 95.5024L65.676 83.2611C65.4099 82.2044 65.676 81.1476 66.2967 80.2669C66.8288 79.5625 67.627 79.122 68.5137 79.034L79.6874 78.1533C81.727 78.1533 83.5006 79.6505 83.944 81.5879L86.427 93.8291C86.6931 94.886 86.427 95.9427 85.8062 96.8234C85.2742 97.5279 84.4761 97.9682 83.5893 98.0562L72.4157 98.9369L72.1496 99.0249ZM79.8648 79.034H79.6874L68.5137 79.9147C67.893 80.0027 67.361 80.2669 67.0063 80.7953C66.5627 81.4999 66.3854 82.2924 66.5627 83.085L69.0458 95.3262C69.3118 96.9114 70.7307 98.0562 72.327 98.0562L83.5006 97.1757C84.1214 97.0875 84.6534 96.8234 85.0081 96.3831C85.4515 95.6785 85.6289 94.8859 85.4515 94.0932L82.9686 81.8522C82.7025 80.355 81.3723 79.122 79.8648 79.034Z" fill="white"/>
<path d="M108.33 95.5901L97.1566 96.4708C95.2944 96.4708 93.6981 95.1498 93.4321 93.3004L90.949 81.0591C90.5943 79.2099 91.6586 77.5366 93.3434 77.4484L104.517 76.5679C106.379 76.5679 107.976 77.8889 108.242 79.6501L110.725 91.9794C111.168 93.8288 110.104 95.4139 108.33 95.5901Z" fill="white"/>
<path d="M96.9797 96.9112C95.0288 96.8232 93.3438 95.326 92.9891 93.3886L90.506 81.1474C90.24 80.0905 90.506 79.0338 91.1269 78.1531C91.659 77.4485 92.4571 77.0083 93.3438 76.9203L104.517 76.0396C106.557 76.0396 108.419 77.4485 108.774 79.4741L111.257 91.7153C111.523 92.772 111.257 93.8289 110.636 94.7095C110.104 95.414 109.306 95.8545 108.419 95.9424L97.2457 96.8232L96.9797 96.9112ZM104.695 77.0083H104.517L93.3438 77.889C92.7231 77.889 92.191 78.2411 91.8363 78.6815C91.3929 79.3861 91.2156 80.1787 91.393 80.9712L93.9646 93.2125C94.2306 94.7976 95.6496 95.9424 97.2457 95.9424L108.419 95.0617C109.04 94.9737 109.572 94.7095 109.927 94.1812C110.37 93.5646 110.548 92.684 110.37 91.8915L107.887 79.5621C107.533 78.2411 106.291 77.0963 104.695 77.0083Z" fill="white"/>
<path d="M133.249 93.5648L122.075 94.4454C120.213 94.4454 118.617 93.1244 118.351 91.2751L115.868 79.0339C115.513 77.1845 116.577 75.5112 118.262 75.4232L129.436 74.5425C131.298 74.5425 132.894 75.8635 133.16 77.7129L135.643 89.9541C135.998 91.8034 134.934 93.3887 133.249 93.5648Z" fill="white"/>
<path d="M121.899 94.8859C119.948 94.7978 118.263 93.3006 117.908 91.3632L115.425 79.122C115.159 78.0653 115.425 77.0084 116.046 76.1277C116.578 75.4233 117.376 74.9829 118.263 74.8949L129.436 74.0142C131.476 74.0142 133.25 75.4233 133.693 77.4487L136.176 89.6899C136.442 90.7468 136.176 91.8035 135.555 92.6842C135.023 93.3888 134.225 93.8291 133.338 93.9171L122.165 94.7978L121.899 94.8859ZM129.614 74.8949H129.436L118.263 75.7756C117.642 75.8636 117.11 76.1277 116.755 76.6561C116.312 77.2727 116.134 78.1533 116.4 78.8578L118.883 91.1871C119.15 92.7722 120.568 93.9171 122.165 93.9171L133.338 93.0365C133.959 92.9483 134.491 92.6842 134.846 92.1558C135.289 91.4512 135.467 90.6586 135.289 89.8661L132.806 77.6249C132.451 76.2159 131.21 75.071 129.614 74.8949Z" fill="white"/>
<path d="M64.4346 127.91L53.261 128.791C51.3986 128.791 49.8024 127.47 49.5364 125.621L46.9646 113.38C46.6099 111.53 47.674 109.857 49.359 109.769L60.5327 108.888C62.3949 108.888 63.9911 110.209 64.2573 112.059L66.7402 124.3C67.1836 126.149 66.1195 127.734 64.4346 127.91Z" fill="white"/>
<path d="M52.9944 129.319C51.0433 129.231 49.3585 127.734 49.0038 125.797L46.5207 113.556C46.2547 112.499 46.5207 111.442 47.1414 110.561C47.6735 109.857 48.4717 109.416 49.2698 109.328L60.4435 108.448C62.5717 108.448 64.3454 109.945 64.7001 111.97L67.183 124.212C67.449 125.268 67.183 126.325 66.5623 127.206C66.0302 127.91 65.2321 128.351 64.434 128.439L53.2604 129.319H52.9944ZM60.7095 109.328H60.5321L49.3585 110.209C48.7377 110.209 48.2057 110.561 47.851 111.002C47.4075 111.618 47.2301 112.499 47.4075 113.291L49.8905 125.621C50.1566 127.206 51.5754 128.351 53.1717 128.351L64.3454 127.47C64.9661 127.382 65.4982 127.118 65.8529 126.589C66.2962 125.973 66.4736 125.092 66.2962 124.3L63.8133 112.058C63.5471 110.561 62.3057 109.416 60.7095 109.328Z" fill="white"/>
<path d="M89.2649 125.885L78.0912 126.766C76.2289 126.766 74.6327 125.445 74.3667 123.595L71.8836 111.354C71.5289 109.505 72.5931 107.832 74.278 107.744L85.4516 106.863C87.3138 106.863 88.9102 108.184 89.1762 110.033L91.6591 122.274C92.0138 124.124 90.9497 125.709 89.2649 125.885Z" fill="white"/>
<path d="M77.9133 127.206C75.9624 127.118 74.2774 125.621 73.9227 123.683L71.4396 111.442C71.1736 110.385 71.4396 109.329 72.0605 108.448C72.5926 107.743 73.3907 107.303 74.1887 107.215L85.3624 106.334C87.4021 106.334 89.2643 107.743 89.619 109.769L92.1021 122.01C92.3681 123.067 92.1021 124.124 91.4812 125.004C90.9492 125.709 90.1511 126.149 89.353 126.237L78.1793 127.118L77.9133 127.206ZM85.6284 107.303H85.4511L74.2774 108.184C73.6567 108.272 73.1246 108.536 72.7699 109.064C72.3265 109.681 72.1492 110.562 72.3265 111.354L74.8095 123.595C75.0755 125.181 76.4945 126.325 78.0907 126.325L89.2643 125.445C89.885 125.445 90.4171 125.093 90.7718 124.652C91.2152 124.036 91.3927 123.155 91.2152 122.362L88.7323 110.121C88.4662 108.536 87.1359 107.391 85.6284 107.303Z" fill="white"/>
<path d="M139.014 121.746L127.84 122.714C125.978 122.714 124.382 121.393 124.116 119.544L121.633 107.303C121.278 105.454 122.342 103.78 124.027 103.692L135.201 102.812C137.063 102.812 138.659 104.133 138.925 105.894L141.409 118.135C141.763 119.984 140.699 121.658 139.014 121.746Z" fill="white"/>
<path d="M127.663 123.155C125.712 123.067 124.027 121.57 123.673 119.632L121.19 107.391C120.924 106.334 121.19 105.277 121.81 104.397C122.342 103.692 123.141 103.252 123.939 103.164L135.112 102.283C137.152 102.283 138.926 103.692 139.369 105.718L141.852 118.047C142.118 119.104 141.852 120.161 141.231 121.041C140.699 121.746 139.901 122.186 139.103 122.274L127.929 123.155H127.663ZM135.378 103.164H135.201L124.027 104.045C123.407 104.045 122.874 104.397 122.52 104.837C122.076 105.454 121.899 106.334 122.076 107.127L124.559 119.368C124.826 120.953 126.244 122.098 127.841 122.098L139.014 121.217C139.635 121.129 140.167 120.865 140.522 120.337C140.965 119.72 141.143 118.84 140.965 118.047L138.482 105.982C138.216 104.397 136.975 103.252 135.378 103.164Z" fill="white"/>
<path d="M70.1985 156.18L59.0248 157.06C57.1625 157.06 55.5663 155.739 55.3003 153.889L52.8172 141.649C52.4625 139.799 53.5266 138.126 55.2116 138.038L66.3852 137.157C68.2474 137.157 69.8438 138.478 70.1098 140.327L72.5927 152.569C72.9474 154.418 71.8833 156.003 70.1985 156.18Z" fill="white"/>
<path d="M58.758 157.501C56.8071 157.412 55.1222 155.915 54.7674 153.978L52.2844 141.737C52.0183 140.68 52.2844 139.623 52.9052 138.742C53.4373 138.038 54.2354 137.598 55.0335 137.51L66.2071 136.629C68.3355 136.629 70.109 138.126 70.4637 140.152L72.9468 152.393C73.2128 153.449 72.9468 154.507 72.3261 155.387C71.7939 156.092 70.9958 156.532 70.1977 156.621L59.0241 157.501H58.758ZM66.4732 137.51H66.2958L55.1221 138.39C54.5014 138.478 53.9694 138.742 53.6147 139.271C53.1713 139.887 52.9939 140.768 53.1713 141.561L55.6542 153.801C55.9202 155.387 57.3392 156.532 58.9354 156.532L70.109 155.651C70.7298 155.563 71.2618 155.298 71.6165 154.771C72.0601 154.154 72.2374 153.274 72.0601 152.481L69.577 140.327C69.3109 138.831 68.0695 137.686 66.4732 137.51Z" fill="white"/>
<path d="M95.0285 154.066L83.8549 154.947C81.9927 154.947 80.3964 153.626 80.1303 151.777L77.6472 139.535C77.2925 137.686 78.3568 136.013 80.0417 135.925L91.2153 135.044C93.0775 135.044 94.6738 136.365 94.9399 138.214L97.4228 150.456C97.7777 152.304 96.7134 153.978 95.0285 154.066Z" fill="white"/>
<path d="M83.6768 155.475C81.726 155.387 80.041 153.89 79.6862 151.952L77.2033 139.711C76.9373 138.654 77.2033 137.598 77.824 136.717C78.3561 136.013 79.1542 135.572 79.9523 135.484L91.1259 134.604C93.1656 134.604 95.0278 136.013 95.3825 138.038L97.8656 150.279C98.1317 151.336 97.8656 152.393 97.2449 153.274C96.7127 153.978 95.9146 154.418 95.1165 154.507L83.9429 155.387L83.6768 155.475ZM91.392 135.484H91.2146L80.041 136.365C79.4202 136.453 78.8882 136.717 78.5335 137.245C78.0901 137.862 77.9127 138.742 78.0901 139.535L80.573 151.777C80.8392 153.362 82.258 154.507 83.8542 154.507L95.0278 153.625C95.6486 153.537 96.1806 153.274 96.5353 152.745C96.9789 152.128 97.1562 151.248 96.9789 150.455L94.4958 138.214C94.2298 136.805 92.8996 135.66 91.392 135.484Z" fill="white"/>
<path d="M119.947 152.041L108.774 152.921C106.912 152.921 105.315 151.601 105.049 149.751L102.566 137.51C102.211 135.661 103.276 133.987 104.961 133.899L116.134 133.019C117.997 133.019 119.593 134.34 119.859 136.189L122.342 148.43C122.697 150.28 121.632 151.953 119.947 152.041Z" fill="white"/>
<path d="M108.597 153.45C106.646 153.362 104.961 151.865 104.606 149.928L102.123 137.686C101.857 136.629 102.123 135.572 102.744 134.692C103.276 133.987 104.074 133.547 104.872 133.459L116.046 132.578C118.086 132.578 119.948 133.987 120.302 136.013L122.786 148.254C123.052 149.311 122.786 150.367 122.165 151.248C121.633 151.952 120.835 152.393 120.036 152.481L108.863 153.362L108.597 153.45ZM116.312 133.459H116.135L104.961 134.339C104.34 134.428 103.808 134.692 103.453 135.22C103.01 135.837 102.833 136.717 103.01 137.51L105.493 149.751C105.759 151.336 107.178 152.481 108.774 152.481L119.948 151.601C120.568 151.601 121.101 151.248 121.455 150.808C121.899 150.192 122.076 149.311 121.899 148.519L119.416 136.277C119.15 134.692 117.908 133.547 116.312 133.459Z" fill="white"/>
<path d="M144.867 150.015L133.693 150.895C131.83 150.895 130.234 149.575 129.968 147.725L127.485 135.484C127.13 133.635 128.195 131.961 129.879 131.873L141.053 130.993C142.916 130.993 144.512 132.314 144.778 134.163L147.261 146.404C147.616 148.254 146.463 149.839 144.867 150.015Z" fill="white"/>
<path d="M133.427 151.336C131.476 151.248 129.791 149.751 129.436 147.813L126.864 135.572C126.598 134.515 126.864 133.458 127.485 132.578C128.017 131.873 128.815 131.433 129.614 131.345L140.787 130.464C142.916 130.464 144.69 131.961 145.044 133.987L147.527 146.228C147.793 147.285 147.527 148.342 146.907 149.222C146.375 149.927 145.576 150.367 144.778 150.455L133.604 151.336H133.427ZM141.141 131.433H140.964L129.791 132.314C129.17 132.402 128.638 132.666 128.283 133.194C127.84 133.811 127.663 134.691 127.84 135.484L130.323 147.725C130.589 149.31 132.008 150.455 133.604 150.455L144.778 149.575C145.399 149.487 145.931 149.222 146.286 148.693C146.729 148.078 146.907 147.196 146.729 146.405L144.246 134.163C143.98 132.666 142.739 131.521 141.141 131.433Z" fill="white"/>
<path d="M75.9631 184.361L64.7895 185.241C62.9271 185.241 61.3309 183.92 61.0649 182.159L58.5818 169.829C58.2271 167.981 59.2914 166.307 60.9762 166.219L72.1499 165.338C74.0121 165.338 75.6084 166.659 75.8744 168.42L78.3574 180.662C78.7121 182.599 77.648 184.273 75.9631 184.361Z" fill="white"/>
<path d="M64.6115 185.77C62.6607 185.682 60.9757 184.185 60.621 182.247L58.1379 170.006C57.8718 168.949 58.1379 167.893 58.7588 167.012C59.2908 166.308 60.0889 165.867 60.9757 165.779L72.1493 164.899C74.189 164.899 76.0512 166.308 76.4059 168.332L78.889 180.574C79.155 181.63 78.889 182.688 78.2683 183.568C77.7362 184.273 76.938 184.714 76.0512 184.801L64.8776 185.682L64.6115 185.77ZM72.3267 165.779H72.1493L60.9757 166.659C60.3549 166.747 59.8229 167.012 59.4682 167.54C59.0248 168.244 58.8474 169.037 59.0248 169.831L61.5077 182.071C61.7738 183.656 63.1927 184.801 64.7889 184.801L75.9626 183.921C76.5833 183.832 77.1153 183.568 77.4702 183.041C77.9136 182.335 78.0909 181.542 77.9136 180.75L75.3418 168.597C75.0758 167.012 73.8343 165.867 72.3267 165.779Z" fill="white"/>
<path d="M100.793 182.335L89.6194 183.217C87.7572 183.217 86.1609 181.895 85.8948 180.135L83.4119 167.893C83.0572 166.043 84.1213 164.37 85.8062 164.282L96.9798 163.402C98.842 163.402 100.438 164.723 100.704 166.484L103.187 178.724C103.631 180.574 102.567 182.159 100.793 182.335Z" fill="white"/>
<path d="M89.4415 183.744C87.4906 183.656 85.8056 182.159 85.4509 180.221L82.968 167.981C82.7019 166.923 82.968 165.867 83.5887 164.986C84.1208 164.282 84.9188 163.841 85.8056 163.753L96.9793 162.873C99.019 162.873 100.881 164.282 101.236 166.396L103.719 178.636C103.985 179.694 103.719 180.75 103.098 181.63C102.566 182.335 101.768 182.776 100.881 182.864L89.7075 183.744H89.4415ZM97.1566 163.753H96.9793L85.8056 164.634C85.1849 164.723 84.6528 164.986 84.2981 165.514C83.8547 166.22 83.6774 167.011 83.8547 167.805L86.3378 180.045C86.6038 181.63 88.0227 182.776 89.6188 182.776L100.792 181.895C101.413 181.807 101.945 181.542 102.3 181.015C102.744 180.31 102.921 179.518 102.744 178.724L100.26 166.484C99.9944 164.986 98.7529 163.841 97.1566 163.753Z" fill="white"/>
<path d="M125.712 180.309L114.538 181.191C112.676 181.191 111.08 179.869 110.814 178.109L108.331 165.867C107.976 164.017 109.04 162.344 110.725 162.256L121.899 161.376C123.761 161.376 125.357 162.697 125.623 164.458L128.106 176.787C128.461 178.548 127.397 180.133 125.712 180.309Z" fill="white"/>
<path d="M114.361 181.63C112.41 181.542 110.725 180.045 110.37 178.109L107.887 165.867C107.621 164.811 107.887 163.753 108.508 162.873C109.04 162.168 109.838 161.727 110.725 161.727L121.898 160.847C123.938 160.847 125.8 162.256 126.155 164.37L128.638 176.61C128.904 177.668 128.638 178.724 128.017 179.606C127.485 180.31 126.687 180.75 125.8 180.838L114.627 181.718L114.361 181.63ZM122.076 161.727H121.898L110.725 162.609C110.104 162.697 109.572 162.961 109.217 163.489C108.774 164.194 108.596 164.987 108.774 165.779L111.257 178.021C111.523 179.606 112.942 180.75 114.538 180.75L125.711 179.869C126.332 179.782 126.864 179.518 127.219 178.989C127.662 178.372 127.84 177.492 127.662 176.699L125.179 164.37C124.825 162.961 123.583 161.815 122.076 161.727Z" fill="white"/>
<path d="M150.631 178.284L139.457 179.165C137.595 179.165 135.999 177.844 135.733 176.083L133.161 163.841C132.806 161.992 133.87 160.318 135.555 160.23L146.729 159.35C148.591 159.35 150.187 160.671 150.453 162.432L152.936 174.674C153.38 176.524 152.316 178.109 150.631 178.284Z" fill="white"/>
<path d="M139.191 179.606C137.24 179.517 135.555 178.02 135.2 176.083L132.717 163.841C132.451 162.785 132.717 161.727 133.338 160.847C133.87 160.142 134.668 159.702 135.466 159.614L146.64 158.733C148.68 158.733 150.542 160.142 150.897 162.168L153.38 174.409C153.646 175.466 153.38 176.522 152.759 177.403C152.227 178.109 151.429 178.548 150.542 178.636L139.368 179.517L139.191 179.606ZM146.906 159.614H146.729L135.555 160.494C134.934 160.582 134.402 160.847 134.047 161.376C133.604 161.991 133.426 162.873 133.604 163.665L136.087 175.906C136.353 177.492 137.772 178.636 139.368 178.636L150.542 177.756C151.163 177.756 151.695 177.403 152.049 176.875C152.493 176.171 152.67 175.378 152.493 174.586L150.01 162.256C149.744 160.935 148.502 159.791 146.906 159.614Z" fill="white"/>
<path d="M81.7268 212.631L70.5531 213.511C68.6909 213.511 67.0946 212.19 66.8286 210.429L64.3455 198.187C63.9908 196.337 65.055 194.664 66.7399 194.576L77.9136 193.696C79.7758 193.696 81.3721 195.016 81.6381 196.778L84.1212 209.02C84.4759 210.869 83.4116 212.454 81.7268 212.631Z" fill="white"/>
<path d="M70.3751 213.951C68.4242 213.863 66.7392 212.366 66.3845 210.428L63.9015 198.187C63.6355 197.13 63.9015 196.074 64.5223 195.193C65.0543 194.487 65.8524 194.048 66.6505 193.96L77.8242 193.079C79.8639 193.079 81.7261 194.487 82.0808 196.601L84.5639 208.843C84.8299 209.9 84.5639 210.956 83.9431 211.837C83.4111 212.542 82.6128 212.982 81.7261 213.07L70.5524 213.951H70.3751ZM78.0902 194.048H77.9129L66.7392 194.928C66.1185 194.928 65.5864 195.281 65.2317 195.81C64.7883 196.425 64.611 197.307 64.7883 198.098L67.2714 210.34C67.5374 211.925 68.9562 213.07 70.5524 213.07L81.7261 212.19C82.3468 212.102 82.8789 211.837 83.2337 211.308C83.6771 210.693 83.8545 209.811 83.6771 209.02L81.194 196.778C80.8393 195.281 79.5978 194.136 78.0902 194.048Z" fill="white"/>
<path d="M106.646 210.605L95.4719 211.485C93.6097 211.485 92.0134 210.164 91.7474 208.403L89.2644 196.074C88.9097 194.224 89.9739 192.551 91.6587 192.463L102.832 191.583C104.695 191.583 106.291 192.904 106.557 194.665L109.04 206.906C109.395 208.843 108.33 210.428 106.646 210.605Z" fill="white"/>
<path d="M95.2063 211.926C93.2552 211.838 91.5704 210.341 91.2157 208.403L88.7326 196.074C88.4666 195.017 88.7326 193.96 89.3533 193.08C89.8854 192.375 90.6835 191.934 91.4817 191.846L102.655 190.966C104.695 190.966 106.557 192.375 106.912 194.401L109.395 206.641C109.661 207.699 109.395 208.755 108.774 209.637C108.242 210.341 107.444 210.781 106.646 210.869L95.4723 211.749L95.2063 211.926ZM102.921 191.934H102.744L91.5704 192.816C90.9495 192.904 90.4175 193.168 90.0628 193.696C89.6194 194.313 89.442 195.193 89.6194 195.986L92.1025 208.315C92.3685 209.9 93.7873 211.046 95.3836 211.046L106.557 210.164C107.178 210.076 107.71 209.812 108.065 209.284C108.508 208.667 108.686 207.787 108.508 206.994L106.025 194.754C105.759 193.255 104.518 192.111 102.921 191.934Z" fill="white"/>
<path d="M131.476 208.491L120.302 209.371C118.44 209.371 116.844 208.05 116.578 206.288L114.095 194.048C113.74 192.199 114.804 190.525 116.489 190.437L127.662 189.557C129.525 189.557 131.121 190.878 131.476 192.639L133.959 204.88C134.225 206.729 133.161 208.402 131.476 208.491Z" fill="white"/>
<path d="M120.125 209.9C118.174 209.811 116.489 208.314 116.135 206.378L113.652 194.136C113.386 193.08 113.652 192.022 114.272 191.142C114.804 190.437 115.603 189.996 116.401 189.91L127.574 189.028C129.614 189.028 131.476 190.437 131.831 192.551L134.314 204.793C134.58 205.849 134.314 206.906 133.693 207.787C133.161 208.491 132.363 208.931 131.565 209.02L120.391 209.9H120.125ZM127.84 189.91H127.663L116.489 190.79C115.869 190.878 115.336 191.142 114.982 191.67C114.538 192.287 114.361 193.168 114.538 193.96L117.021 206.202C117.287 207.787 118.706 208.931 120.303 208.931L131.476 208.051C132.097 207.963 132.629 207.699 132.984 207.17C133.427 206.553 133.604 205.673 133.427 204.88L130.944 192.639C130.678 191.142 129.437 189.996 127.84 189.91Z" fill="white"/>
<path d="M156.394 206.465L145.221 207.346C143.359 207.346 141.763 206.025 141.497 204.264L139.013 192.022C138.659 190.173 139.723 188.499 141.408 188.411L152.581 187.531C154.443 187.531 156.04 188.852 156.306 190.613L158.789 202.942C159.143 204.703 158.079 206.377 156.394 206.465Z" fill="white"/>
<path d="M145.045 207.874C143.094 207.785 141.409 206.288 141.054 204.352L138.57 192.11C138.304 191.054 138.57 189.996 139.191 189.116C139.723 188.411 140.522 187.971 141.32 187.884L152.493 187.002C154.533 187.002 156.306 188.411 156.75 190.437L159.233 202.767C159.499 203.823 159.233 204.88 158.612 205.761C158.08 206.465 157.282 206.905 156.395 206.994L145.222 207.874H145.045ZM152.671 187.884H152.493L141.32 188.764C140.699 188.852 140.167 189.116 139.812 189.644C139.369 190.261 139.191 191.142 139.369 191.934L141.852 204.176C142.118 205.761 143.537 206.906 145.133 206.906L156.306 206.025C156.927 205.937 157.459 205.673 157.814 205.144C158.257 204.527 158.435 203.647 158.257 202.854L155.774 190.613C155.508 189.116 154.267 187.971 152.671 187.884Z" fill="white"/>
<path d="M87.4913 240.9L76.3176 241.78C74.4554 241.78 72.8591 240.46 72.5931 238.698L70.1101 226.456C69.7554 224.607 70.8196 222.933 72.5044 222.847L83.6781 221.965C85.5404 221.965 87.1366 223.286 87.4026 225.047L89.8857 237.289C90.2404 239.139 89.1762 240.724 87.4913 240.9Z" fill="#263238"/>
<path d="M112.409 238.786L101.236 239.666C99.3734 239.666 97.7772 238.345 97.5112 236.584L95.0281 224.343C94.6734 222.494 95.7375 220.821 97.4225 220.732L108.596 219.851C110.458 219.851 112.055 221.173 112.321 222.933L114.804 235.175C115.158 237.025 114.094 238.698 112.409 238.786Z" fill="#263238"/>
<path d="M137.239 236.76L126.066 237.642C124.203 237.642 122.607 236.319 122.341 234.558L119.858 222.318C119.503 220.468 120.568 218.795 122.253 218.707L133.426 217.827C135.288 217.827 136.885 219.147 137.151 220.909L139.634 233.149C139.988 234.999 138.924 236.584 137.239 236.76Z" fill="#263238"/>
<path d="M162.159 234.734L150.985 235.616C149.123 235.616 147.527 234.295 147.261 232.534L144.778 220.292C144.423 218.442 145.488 216.769 147.172 216.681L158.346 215.801C160.208 215.801 161.804 217.121 162.07 218.883L164.554 231.125C164.909 232.973 163.844 234.558 162.159 234.734Z" fill="#263238"/>
<path d="M98.8418 135.132C95.5606 135.132 92.2795 132.314 91.5701 128.703L86.4265 103.78C85.9832 101.931 86.4265 99.9055 87.4908 98.4084C88.3776 97.1755 89.7964 96.3828 91.304 96.2948L113.917 94.4454C117.376 94.1812 120.923 97.0874 121.632 100.874L126.776 125.797C127.219 127.646 126.865 129.584 125.712 131.169C124.825 132.402 123.406 133.194 121.81 133.282L99.1965 135.132H98.8418ZM114.449 94.6215H114.006L91.3927 96.4709C89.8851 96.5589 88.5549 97.3515 87.6681 98.4964C86.6039 99.9935 86.2492 101.931 86.6039 103.692L91.7474 128.615C92.5455 132.314 95.9153 135.132 99.2852 134.868L121.898 133.018C123.406 132.93 124.736 132.138 125.623 130.993C126.687 129.496 127.042 127.558 126.687 125.797L121.544 100.874C120.746 97.3515 117.73 94.6215 114.449 94.6215Z" fill="#263238"/>
<path d="M99.9946 132.314C97.0683 132.314 94.3192 129.848 93.6985 126.678L89.3532 105.366C88.9985 103.781 89.3532 102.019 90.3286 100.698C91.1267 99.6416 92.3682 98.9371 93.6985 98.8491L113.031 97.2639C116.046 96.9996 119.061 99.5536 119.77 102.9L124.115 124.212C124.47 125.797 124.115 127.559 123.14 128.88C122.342 129.936 121.1 130.641 119.77 130.729L100.438 132.314C100.261 132.314 100.083 132.314 99.9946 132.314ZM113.297 97.7042C113.208 97.7042 113.031 97.7042 112.942 97.7042L93.6098 99.2893C92.3683 99.3775 91.3041 99.9939 90.5946 100.963C89.7079 102.196 89.3532 103.781 89.7079 105.278L94.0532 126.59C94.6739 129.76 97.5117 132.05 100.349 131.786L119.682 130.201C120.923 130.112 121.987 129.496 122.697 128.527C123.583 127.294 123.938 125.709 123.583 124.212L119.238 102.9C118.617 99.9939 116.046 97.7042 113.297 97.7042Z" fill="#263238"/>
<path d="M101.502 128.439C99.0192 128.263 96.891 126.413 96.4476 123.947L93.0778 107.567C92.8117 106.246 93.0778 104.925 93.7872 103.78C94.4079 102.9 95.472 102.371 96.5363 102.283L111.434 101.05C113.829 100.874 116.312 102.812 116.844 105.542L120.214 122.01C120.48 123.331 120.214 124.652 119.416 125.797C118.795 126.677 117.819 127.206 116.667 127.294L101.768 128.527L101.502 128.439ZM111.789 101.755H111.523L96.6249 102.988C95.738 103.076 94.94 103.516 94.4079 104.221C93.6985 105.189 93.5211 106.334 93.7872 107.479L97.157 123.947C97.6004 126.237 99.7288 127.998 101.857 127.822L116.755 126.589C117.642 126.501 118.44 126.061 118.972 125.356C119.682 124.388 119.859 123.243 119.593 122.098L116.223 105.63C115.78 103.516 114.006 101.843 111.789 101.755Z" fill="#263238"/>
<path d="M114.184 123.86L103.01 124.74C101.148 124.74 99.5516 123.419 99.2856 121.57L96.8025 109.329C96.4478 107.479 97.5121 105.806 99.1969 105.718L110.371 104.837C112.233 104.837 113.829 106.158 114.095 108.008L116.578 120.249C116.933 122.098 115.869 123.683 114.184 123.86Z" fill="#263238"/>
<path d="M176.347 125.797C176.347 125.797 135.644 116.374 133.338 115.934C131.032 115.493 121.632 112.675 119.415 112.763C117.198 112.851 109.306 113.908 107.798 114.701C106.291 115.493 106.823 116.198 107.621 116.11L115.957 114.965L120.302 117.431C120.302 117.431 117.642 120.073 117.464 121.834C117.11 126.237 117.198 127.294 118.174 127.118C119.149 126.942 119.326 122.01 119.326 122.01L120.036 121.482L120.745 125.181C120.745 125.181 121.721 126.502 122.253 125.004C122.608 124.036 121.898 121.658 121.898 121.658L123.317 120.425C123.317 120.425 123.672 123.507 124.381 123.86C125.091 124.212 125.445 123.86 125.357 123.243C125.268 122.627 124.913 120.337 124.913 120.337L127.485 118.752C127.485 118.752 168.898 136.013 173.155 136.717C176.081 137.07 179.096 136.893 181.935 136.189L176.347 125.797Z" fill="white"/>
<path d="M175.905 137.421C175.018 137.421 174.042 137.333 173.156 137.245C168.899 136.629 131.121 120.865 127.574 119.368L125.445 120.689C125.534 121.305 125.8 122.802 125.8 123.243C125.889 123.683 125.712 124.035 125.357 124.3C125.002 124.564 124.47 124.564 124.115 124.3C123.494 123.947 123.14 122.45 122.962 121.305L122.342 121.834C122.519 122.538 122.962 124.3 122.608 125.18C122.43 125.797 122.076 126.061 121.632 126.149C120.923 126.237 120.391 125.532 120.302 125.444C120.302 125.356 120.213 125.356 120.213 125.268L119.681 122.274C119.593 124.652 119.238 127.47 118.174 127.558C117.819 127.646 117.553 127.558 117.287 127.294C116.666 126.765 116.666 125.444 117.021 121.746C117.11 120.249 118.794 118.311 119.593 117.518L115.868 115.405L107.71 116.462C107.177 116.55 106.734 116.286 106.468 115.845C106.379 115.493 106.379 114.877 107.621 114.172C109.306 113.291 117.376 112.235 119.415 112.147C121.012 112.058 126.332 113.468 130.145 114.436C131.564 114.789 132.806 115.141 133.427 115.317C135.732 115.845 175.993 125.092 176.437 125.18C176.525 125.18 176.703 125.268 176.703 125.356L182.378 135.836C182.467 135.924 182.467 136.1 182.378 136.189C182.289 136.277 182.201 136.365 182.112 136.453C180.072 137.157 178.033 137.421 175.905 137.421ZM127.485 118.399C127.574 118.399 127.574 118.399 127.662 118.399C128.106 118.575 169.076 135.66 173.244 136.277C175.905 136.629 178.653 136.453 181.314 135.836L176.082 126.061C172.978 125.356 135.466 116.726 133.249 116.198C132.629 116.021 131.387 115.757 129.879 115.317C126.332 114.348 120.923 112.939 119.415 113.027C117.198 113.115 109.394 114.172 107.976 114.877C107.355 115.229 107.266 115.405 107.266 115.493C107.266 115.581 107.355 115.493 107.443 115.493H107.532L115.868 114.436C115.957 114.436 116.045 114.436 116.134 114.524L120.479 116.99C120.568 117.078 120.657 117.166 120.657 117.342C120.657 117.518 120.657 117.607 120.568 117.695C119.859 118.399 117.996 120.513 117.819 121.746C117.73 123.419 117.464 126.237 117.819 126.589C117.908 126.589 117.908 126.589 117.996 126.589C118.351 126.325 118.706 124.123 118.706 121.834C118.706 121.658 118.794 121.57 118.883 121.481L119.593 120.953C119.681 120.865 119.859 120.865 120.036 120.865C120.213 120.953 120.302 121.041 120.302 121.217L121.012 124.828C121.189 125.004 121.366 125.092 121.455 125.092C121.544 125.092 121.632 125.004 121.721 124.74C121.81 123.683 121.721 122.626 121.366 121.658C121.278 121.481 121.366 121.305 121.544 121.217L122.962 119.984C123.051 119.896 123.228 119.896 123.406 119.896C123.583 119.984 123.672 120.072 123.672 120.249C123.849 121.746 124.204 123.155 124.559 123.419C124.647 123.507 124.736 123.507 124.913 123.419C124.913 123.419 125.002 123.331 124.913 123.243C124.825 122.626 124.47 120.425 124.47 120.425C124.47 120.249 124.559 120.072 124.647 119.984L127.219 118.399C127.396 118.311 127.396 118.399 127.485 118.399Z" fill="#263238"/>
<path d="M295.446 149.222C295.446 149.222 292.697 153.625 293.406 153.978C294.115 154.33 297.042 150.807 297.042 150.807L295.623 155.21C295.623 155.21 295.534 156.092 297.13 155.035C298.727 153.978 298.372 151.072 298.372 151.072L298.549 155.739C298.549 155.739 297.485 157.412 298.993 157.236C300.5 157.06 300.766 153.45 300.589 152.392C300.234 151.072 299.613 149.927 298.815 148.87C297.929 147.813 295.712 148.078 295.446 149.222Z" fill="white"/>
<path d="M298.727 157.677C298.372 157.677 298.017 157.588 297.84 157.236C297.485 156.708 297.84 155.915 298.106 155.563V154.683C297.928 154.947 297.662 155.21 297.396 155.386C296.51 156.003 295.889 156.18 295.534 155.915C295.268 155.739 295.179 155.475 295.179 155.21L295.978 152.745C294.027 154.771 293.495 154.506 293.229 154.418C293.051 154.33 292.963 154.154 292.874 153.978C292.608 153.097 294.293 150.278 295.091 149.134C295.357 148.43 295.978 147.99 296.687 147.901C297.574 147.637 298.549 147.901 299.17 148.605C300.057 149.663 300.766 150.984 301.032 152.392C301.121 153.362 301.032 154.33 300.855 155.298C300.411 157.148 299.613 157.677 299.081 157.765C298.993 157.677 298.815 157.677 298.727 157.677ZM298.638 156.797C298.727 156.797 298.815 156.797 298.904 156.797C299.347 156.708 299.702 156.091 299.968 155.035C300.145 154.154 300.234 153.274 300.145 152.392C299.791 151.16 299.259 150.015 298.46 149.046C298.017 148.605 297.396 148.518 296.864 148.693C296.51 148.781 296.155 149.046 295.978 149.398C295.978 149.487 295.978 149.487 295.889 149.487C295.091 150.719 294.381 152.128 293.849 153.537C294.913 152.657 295.889 151.689 296.776 150.543C296.953 150.367 297.13 150.367 297.308 150.455C297.485 150.543 297.574 150.807 297.485 150.984L296.155 155.123C296.421 155.035 296.687 154.859 296.953 154.683C297.751 153.978 298.106 153.009 298.017 152.04V151.072C298.017 150.807 298.194 150.631 298.46 150.631C298.727 150.631 298.904 150.807 298.904 150.984C298.904 151.336 298.993 151.689 298.904 151.952L298.993 155.651C298.993 155.739 298.993 155.827 298.904 155.915C298.815 156.18 298.727 156.444 298.638 156.797Z" fill="#263238"/>
<path d="M264.762 112.587C264.762 112.587 269.817 113.556 272.477 114.965C275.137 116.374 295.444 137.686 295.976 140.064C296.597 142.529 297.661 144.907 299.169 146.933C300.234 148.342 303.692 152.569 303.958 154.33C304.225 156.092 303.515 157.5 302.628 156.268C301.742 155.035 299.879 152.216 298.37 151.072C296.863 149.927 292.252 148.958 292.252 148.958C292.252 150.367 292.163 151.777 291.897 153.186C291.454 155.212 289.946 156.972 289.769 155.915C289.503 154.066 289.325 152.128 289.414 150.192C289.591 148.166 289.591 144.643 289.591 144.643L290.212 140.768C290.212 140.768 276.733 132.314 271.679 129.672C266.624 127.03 262.013 124.035 262.013 124.035L258.819 123.771C258.819 123.771 258.997 118.223 260.948 115.933C262.102 114.789 263.343 113.556 264.762 112.587Z" fill="white"/>
<path d="M303.248 157.148C302.805 157.148 302.45 156.885 302.273 156.532C301.475 155.3 299.524 152.481 298.105 151.424C297.04 150.631 293.936 149.839 292.695 149.575C292.695 150.807 292.606 152.128 292.34 153.362C292.074 154.947 291.01 156.797 290.034 156.797C289.68 156.797 289.325 156.444 289.325 156.092C289.059 154.154 288.881 152.216 288.97 150.28C289.148 148.342 289.147 144.819 289.147 144.731L289.68 141.12C287.817 139.976 276.023 132.666 271.501 130.2C266.978 127.734 262.545 125.093 261.835 124.652L258.731 124.388C258.465 124.388 258.288 124.212 258.288 123.948C258.288 123.683 258.465 118.223 260.505 115.846C261.658 114.525 262.988 113.292 264.407 112.323C264.495 112.235 264.584 112.235 264.761 112.235C264.939 112.235 269.905 113.204 272.565 114.613C275.225 116.022 295.71 137.334 296.33 139.976C296.951 142.353 298.015 144.643 299.435 146.669L299.967 147.373C302.007 149.927 304.135 152.745 304.313 154.33C304.49 155.475 304.313 156.885 303.426 157.148C303.426 157.148 303.337 157.148 303.248 157.148ZM292.251 148.519H292.34C292.517 148.607 297.04 149.487 298.636 150.719C300.233 151.953 302.184 154.771 302.982 156.004C303.16 156.268 303.248 156.268 303.248 156.268C303.514 155.651 303.603 155.035 303.514 154.33C303.337 152.921 300.677 149.487 299.347 147.813L298.815 147.11C297.306 144.996 296.242 142.617 295.532 140.064C295.089 138.126 275.048 116.814 272.21 115.229C269.816 114.172 267.333 113.38 264.85 112.939C263.52 113.908 262.367 114.965 261.303 116.198C259.796 117.959 259.441 122.01 259.352 123.331L262.101 123.507C262.19 123.507 262.279 123.507 262.279 123.595C262.279 123.595 266.978 126.59 271.944 129.143C276.91 131.697 290.3 140.152 290.478 140.24C290.655 140.328 290.744 140.505 290.655 140.68L290.034 144.555C290.034 144.643 290.034 148.078 289.857 150.104C289.768 151.953 289.857 153.715 290.123 155.563C290.744 154.859 291.187 153.978 291.364 153.01C291.63 151.601 291.719 150.28 291.719 148.87C291.719 148.695 291.808 148.607 291.896 148.519C292.074 148.607 292.162 148.519 292.251 148.519Z" fill="#263238"/>
<path d="M232.659 169.566L233.546 180.75C233.546 180.75 229.378 217.738 237.714 228.394C246.049 239.05 273.097 266.967 273.097 266.967L277.353 261.947C277.353 261.947 262.278 232.885 259.441 228.746C256.603 224.606 252.079 213.775 252.079 213.775C252.079 213.775 261.392 175.201 262.101 171.767C262.811 168.333 262.456 159.086 262.278 158.206C262.101 157.324 251.636 162.52 245.517 164.634C239.399 166.748 232.659 169.566 232.659 169.566Z" fill="#263238"/>
<path d="M273.008 267.495C272.919 267.495 272.742 267.406 272.653 267.318C272.387 267.055 245.517 239.225 237.181 228.658C228.846 218.09 232.748 182.159 232.925 180.662L232.038 169.566C232.038 169.39 232.127 169.213 232.304 169.125C232.393 169.125 238.955 166.484 245.074 164.282C247.647 163.402 251.105 161.903 254.12 160.583C260.061 158.029 261.657 157.412 262.19 157.765C262.367 157.853 262.456 158.029 262.456 158.117C262.544 158.997 262.899 168.333 262.278 171.855C261.657 175.201 252.967 210.781 252.258 213.687C252.79 214.919 256.958 224.695 259.529 228.482C262.278 232.533 276.821 260.538 277.442 261.683C277.531 261.859 277.531 262.035 277.353 262.124L273.097 267.143C273.274 267.406 273.097 267.495 273.008 267.495ZM233.102 169.83L233.9 180.75C233.9 181.191 229.821 217.738 237.979 228.129C245.694 237.993 269.816 263.092 273.008 266.35L276.732 261.947C275.225 259.04 261.657 232.885 258.997 229.099C256.248 225.047 251.726 214.48 251.548 214.039C251.548 213.951 251.548 213.863 251.548 213.775C251.637 213.422 260.859 175.201 261.569 171.855C262.19 168.773 261.924 160.583 261.746 158.733C259.352 159.526 256.958 160.494 254.563 161.552C251.548 162.873 248.09 164.282 245.428 165.25C240.196 167.011 234.432 169.302 233.102 169.83Z" fill="#263238"/>
<path d="M248.622 172.295C248.622 172.295 245.695 175.554 246.493 176.347L247.292 177.139C247.292 177.139 230.886 198.451 228.757 204C226.629 209.547 222.373 223.021 222.461 223.726C222.55 224.43 225.299 226.72 227.073 226.632C228.846 226.544 284.182 230.419 284.182 230.419L285.423 224.959L245.251 212.278C245.251 212.278 269.373 177.315 270.525 174.057C271.678 170.798 270.171 160.142 269.993 158.557C269.816 156.972 267.688 154.859 265.914 155.122C264.141 155.386 249.066 166.043 249.066 166.043" fill="#263238"/>
<path d="M284.182 230.947C283.65 230.947 229.112 227.161 227.161 227.161C225.299 227.161 222.195 224.871 222.107 223.815C222.018 222.757 226.541 208.931 228.403 203.912C230.442 198.627 244.631 179.957 246.759 177.227L246.227 176.698C245.34 175.73 247.114 173.352 248.356 172.031C248.534 171.855 248.8 171.855 248.977 172.031C249.154 172.207 249.154 172.472 248.977 172.648C247.736 174.057 246.67 175.73 246.847 176.083L247.646 176.875C247.824 177.051 247.824 177.315 247.646 177.492C247.468 177.668 231.24 198.804 229.201 204.264C226.984 209.988 222.994 222.845 222.905 223.815C223.082 224.254 225.565 226.368 227.073 226.368C229.024 226.368 278.595 229.714 283.827 230.067L284.891 225.312L245.074 212.805C244.897 212.717 244.808 212.63 244.808 212.542C244.719 212.454 244.808 212.278 244.897 212.19C253.234 200.124 269.284 176.61 270.082 174.057C271.058 171.151 269.905 161.639 269.55 158.733C269.373 157.941 268.929 157.148 268.22 156.62C267.688 156.003 266.801 155.651 266.003 155.651C264.762 155.827 255.184 162.344 249.332 166.484C249.154 166.659 248.888 166.571 248.711 166.396C248.534 166.219 248.622 165.955 248.8 165.779C250.396 164.722 264.052 155.034 265.826 154.771C266.978 154.683 268.043 155.122 268.752 155.915C269.55 156.62 270.082 157.5 270.348 158.557C270.88 162.256 271.944 171.239 270.88 174.233C269.816 177.227 248.977 207.697 245.872 212.102L285.512 224.606C285.778 224.695 285.867 224.871 285.778 225.135L284.536 230.596C284.536 230.771 284.448 230.947 284.182 230.947Z" fill="#263238"/>
<path d="M202.951 118.664C190.98 122.451 191.601 122.362 191.601 122.362L174.219 124.916L181.935 140.064L202.153 142.353C202.153 142.353 221.93 160.935 225.654 161.641C229.378 162.344 231.595 166.66 231.595 166.66C231.595 166.66 230.176 169.214 232.127 170.358C234.078 171.504 236.916 171.679 242.946 170.094C248.976 168.509 257.579 163.577 261.569 160.407C265.56 157.236 271.324 153.537 269.462 151.952C267.777 150.808 266.003 149.839 264.052 149.222L245.606 130.2L260.86 131.345C260.86 131.345 260.683 122.539 260.949 119.72C261.215 116.902 264.85 112.587 264.85 112.587C264.85 112.587 245.34 111.178 239.753 110.297C234.167 109.417 228.758 109.769 226.541 110.826C224.324 111.883 213.947 114.701 213.415 114.789C212.883 114.877 202.951 118.664 202.951 118.664Z" fill="white"/>
<path d="M236.029 171.68C234.61 171.768 233.192 171.416 231.95 170.711C230.177 169.742 230.62 167.717 231.152 166.572C230.709 165.779 228.669 162.52 225.654 161.993C221.93 161.288 203.75 144.291 201.976 142.706L181.669 140.417L173.6 124.476L191.601 121.922C192.488 121.482 195.148 120.689 202.863 118.224C204.548 117.607 212.707 114.525 213.328 114.437C213.949 114.349 224.235 111.619 226.364 110.562C228.846 109.329 234.344 109.153 239.842 109.945C245.34 110.826 264.673 112.235 264.851 112.235L265.737 112.323L265.205 113.028C265.205 113.028 261.658 117.255 261.392 119.897C261.126 122.539 261.392 131.345 261.392 131.433V131.962L246.759 130.817L264.407 149.046C266.358 149.663 268.22 150.543 269.816 151.777C270.171 152.042 270.348 152.481 270.348 152.833C270.26 154.507 267.245 156.885 263.964 159.35C263.254 159.879 262.545 160.407 261.924 160.935C258.022 163.929 249.419 169.037 243.123 170.711C240.729 171.239 238.335 171.592 236.029 171.68ZM182.201 139.624L202.331 141.914L202.419 142.002C207.917 147.11 222.816 160.583 225.743 161.2C229.645 161.905 231.861 166.308 231.95 166.484L232.039 166.66L231.95 166.837C231.95 166.925 230.709 169.037 232.305 170.007C233.901 170.975 236.207 171.504 242.857 169.742C248.976 168.157 257.49 163.137 261.303 160.143C261.924 159.615 262.634 159.086 263.343 158.558C266.003 156.533 269.373 154.066 269.373 152.745C269.373 152.569 269.284 152.393 269.196 152.305C267.599 151.16 265.826 150.28 263.964 149.663H263.875L263.786 149.575L244.542 129.584L260.505 130.817C260.505 128.968 260.417 122.099 260.594 119.633C260.771 117.343 262.988 114.261 264.052 112.94C260.239 112.675 244.631 111.442 239.754 110.738C234.522 109.945 229.112 110.121 226.807 111.266C224.501 112.411 214.215 115.141 213.505 115.229C212.973 115.317 206.942 117.607 203.218 119.016C193.02 122.275 192.044 122.627 191.867 122.715L191.69 122.363L191.778 122.803L175.018 125.181L182.201 139.624Z" fill="#263238"/>
<path d="M215.278 132.578L222.638 142.882L224.589 141.121L219.18 134.516" fill="white"/>
<path d="M257.312 149.134C257.933 149.046 258.643 149.046 259.263 148.958L257.312 149.134Z" fill="white"/>
<path d="M203.927 120.953C204.991 124.212 205.789 127.47 206.498 130.817C206.853 133.811 205.434 136.541 207.208 136.101C208.983 135.66 208.894 130.728 208.894 130.728L215.279 132.049L218.116 126.237C218.116 126.237 223.348 130.905 223.26 128.527C223.171 126.149 217.762 115.933 217.407 113.556C217.052 111.178 214.215 110.561 212.175 112.235C210.136 113.908 203.927 120.953 203.927 120.953Z" fill="white"/>
<path d="M206.855 136.541C206.588 136.541 206.411 136.453 206.234 136.365C205.79 135.924 205.79 135.132 205.968 133.987C206.145 132.93 206.145 131.873 206.056 130.816C205.346 127.47 204.548 124.211 203.572 121.041L203.483 120.777L203.661 120.601C203.927 120.337 210.047 113.556 211.998 111.882C213.062 110.914 214.658 110.561 216.077 111.09C217.141 111.442 217.85 112.411 217.939 113.468C218.116 114.524 219.358 117.431 220.599 120.249C222.196 123.859 223.703 127.206 223.703 128.527C223.792 128.967 223.614 129.407 223.171 129.584C222.107 130.112 219.624 128.174 218.205 126.942L215.456 132.49L209.249 131.169C209.249 132.666 208.983 136.1 207.209 136.453C207.121 136.541 206.943 136.541 206.855 136.541ZM206.766 135.66C206.855 135.66 206.943 135.66 207.032 135.66C208.007 135.396 208.362 132.578 208.362 130.64V130.112L215.013 131.521L217.939 125.532L218.382 125.885C220.245 127.558 222.284 128.879 222.816 128.791C222.816 128.791 222.816 128.703 222.816 128.615C222.728 127.47 221.131 123.859 219.713 120.689C218.382 117.695 217.052 114.877 216.964 113.644C216.875 112.851 216.343 112.235 215.633 111.97C214.569 111.618 213.328 111.882 212.441 112.675C210.668 114.172 205.347 120.073 204.37 121.129C205.347 124.3 206.234 127.558 206.855 130.816C206.943 131.961 206.943 133.018 206.766 134.163C206.677 134.603 206.677 135.132 206.766 135.66Z" fill="#263238"/>
<path d="M195.68 118.399C197.719 119.368 199.759 120.249 201.887 120.953C204.193 121.658 215.633 134.956 215.279 131.962C214.924 128.967 214.124 117.519 213.415 114.789C212.528 112.235 211.553 109.681 210.4 107.215C210.4 107.215 212.262 105.982 209.247 104.749C206.232 103.516 203.927 105.806 204.104 107.039C204.281 108.272 204.636 110.738 203.838 111.09C203.04 111.442 195.68 118.399 195.68 118.399Z" fill="white"/>
<path d="M215.013 132.842C214.126 132.842 212.53 131.345 208.095 127.03C205.523 124.476 202.597 121.658 201.71 121.394C199.582 120.601 197.542 119.721 195.503 118.752L194.971 118.488L195.414 118.047C197.188 116.374 202.863 111.002 203.661 110.65C203.75 110.562 204.016 110.033 203.661 107.127C203.661 106.246 204.104 105.366 204.902 104.925C206.233 103.957 207.917 103.693 209.425 104.397C210.668 104.925 211.289 105.454 211.377 106.246C211.377 106.687 211.2 107.127 210.934 107.391C212.087 109.769 213.062 112.235 213.86 114.789C214.392 116.638 214.836 122.274 215.279 126.766C215.456 129.056 215.634 130.993 215.811 131.962C215.9 132.49 215.634 132.754 215.456 132.842C215.279 132.842 215.19 132.842 215.013 132.842ZM196.478 118.311C198.252 119.192 200.114 119.985 201.976 120.601C203.04 120.953 205.257 123.067 208.716 126.502C210.845 128.615 213.683 131.433 214.747 131.962C214.658 130.905 214.481 129.056 214.215 126.854C213.86 122.363 213.328 116.814 212.885 115.053C211.998 112.499 211.023 109.945 209.87 107.479L209.691 107.127L210.047 106.951C210.136 106.863 210.49 106.599 210.402 106.335C210.313 106.07 210.224 105.718 208.982 105.278C207.829 104.749 206.41 104.925 205.346 105.718C204.814 106.07 204.548 106.511 204.459 107.127C204.814 109.681 204.814 111.266 203.927 111.619C203.484 111.795 199.848 115.141 196.478 118.311Z" fill="#263238"/>
<path d="M189.03 94.0931C186.813 93.6528 184.596 92.8603 182.645 91.7153C180.16 90.0421 181.136 86.5194 183.709 84.9343C186.281 83.349 189.473 81.1475 192.843 81.1475C196.212 81.1475 197.365 84.7582 199.759 84.8462C202.154 84.9343 208.627 82.028 212.263 85.0223C215.899 88.0166 215.455 98.2322 214.125 100.346C212.795 102.459 210.223 107.303 210.223 107.303C210.223 107.303 208.095 106.775 206.499 106.422C204.903 106.07 205.967 105.101 204.193 105.542C202.42 105.982 200.646 106.422 199.139 105.189C197.631 103.956 197.188 102.636 196.212 101.579C195.237 100.522 193.552 98.1441 193.818 97.2635C193.995 96.2948 194.173 95.238 194.173 94.1811L189.03 94.0931Z" fill="black"/>
<path d="M210.577 107.744L210.222 107.656C210.222 107.656 208.183 107.127 206.498 106.775C205.966 106.687 205.434 106.335 205.168 105.894L205.079 105.806C204.813 105.806 204.636 105.806 204.37 105.894C202.508 106.335 200.645 106.775 198.96 105.454C198.074 104.749 197.364 103.957 196.832 102.988C196.566 102.548 196.3 102.195 195.945 101.755C195.945 101.755 193.019 98.4086 193.463 96.9994C193.64 96.2069 193.817 95.3263 193.817 94.5336L188.94 94.4456C186.634 94.0053 184.418 93.2126 182.378 91.9797C181.314 91.2752 180.693 90.0423 180.782 88.8093C180.959 87.048 181.935 85.3748 183.531 84.4941L184.595 83.8776C187.078 82.3805 189.827 80.7072 192.93 80.6192C194.97 80.5311 196.3 81.7641 197.364 82.8209C198.251 83.6135 198.96 84.3179 199.847 84.3179C200.823 84.2299 201.709 84.1419 202.685 83.8776C205.7 83.2612 209.868 82.2925 212.617 84.5822C216.342 87.5765 216.076 98.0563 214.569 100.522C213.237 102.636 210.666 107.391 210.666 107.391L210.577 107.744ZM204.902 104.925C205.257 104.925 205.611 105.102 205.789 105.454C205.877 105.63 206.055 105.806 206.587 105.982C207.828 106.246 209.336 106.599 210.045 106.775C210.666 105.718 212.705 102.019 213.771 100.17C215.101 98.0563 215.278 88.0167 211.996 85.3748C209.602 83.4373 205.611 84.2299 202.774 84.8463C201.798 85.1106 200.734 85.2868 199.759 85.2868C198.517 85.2868 197.542 84.4061 196.655 83.5253C195.591 82.5566 194.527 81.5879 192.93 81.5879H192.842C190.004 81.5879 187.344 83.2612 184.95 84.6702L183.885 85.2868C182.555 85.9912 181.669 87.4003 181.58 88.8975C181.491 89.8662 182.023 90.7467 182.821 91.2752C184.684 92.42 186.812 93.1246 188.94 93.5649L194.615 93.653V94.0933C194.615 95.1501 194.438 96.2069 194.172 97.2637C193.995 97.704 195.147 99.6414 196.478 101.139C196.832 101.579 197.098 102.019 197.453 102.46C197.896 103.34 198.606 104.045 199.315 104.661C200.734 105.718 202.33 105.366 204.015 104.925C204.37 104.925 204.636 104.925 204.902 104.925Z" fill="#263238"/>
<path d="M187.433 92.8601C187.433 92.8601 185.659 99.1128 186.014 100.081C186.369 101.05 186.635 102.107 186.812 103.164L184.329 107.303C184.329 107.303 184.772 108.888 185.571 108.976C186.546 109.24 187.521 109.681 188.32 110.209C188.32 110.209 190.714 118.928 191.512 119.192C192.31 119.456 194.261 120.425 195.059 119.896C195.857 119.368 204.813 113.027 205.877 112.058C206.942 111.09 206.498 106.334 206.498 106.334C206.498 106.334 209.247 102.988 208.183 100.698C207.119 98.4082 204.547 99.2008 203.749 100.874C202.951 102.547 202.685 103.428 202.685 103.428C202.685 103.428 200.734 104.044 200.38 102.9L200.025 101.755C200.025 101.755 196.655 99.2008 196.566 98.5843C196.478 97.9679 197.631 91.8032 197.631 91.8032L187.433 92.8601Z" fill="white"/>
<path d="M194.527 120.425C193.64 120.337 192.753 120.072 191.955 119.72L191.423 119.544C190.714 119.28 189.561 116.286 187.965 110.473C187.167 110.033 186.369 109.681 185.482 109.416C184.418 109.328 183.886 107.655 183.886 107.479V107.303L186.369 103.164C186.191 102.195 185.925 101.226 185.571 100.346C185.216 99.3769 186.546 94.3572 186.989 92.8601L187.078 92.5959L198.34 91.5391L198.251 92.0675C197.808 94.5333 197.099 98.232 197.187 98.6725C198.163 99.7292 199.315 100.698 200.468 101.491L200.557 101.579L201 102.9C201 102.988 201.089 103.076 201.178 103.164C201.621 103.34 202.064 103.34 202.508 103.164C202.596 102.812 202.951 102.019 203.483 100.786C203.927 99.7292 204.991 98.9366 206.232 98.9366C207.296 98.9366 208.272 99.6412 208.715 100.61C209.779 102.812 207.651 105.894 207.119 106.598C207.208 107.743 207.474 111.53 206.321 112.499C205.168 113.468 196.212 119.896 195.502 120.337C195.059 120.425 194.793 120.513 194.527 120.425ZM184.861 107.391C185.039 107.919 185.393 108.536 185.659 108.536C186.723 108.8 187.699 109.24 188.586 109.857L188.763 109.945L188.852 110.121C189.916 114.084 191.335 118.399 191.867 118.839C192.044 118.928 192.221 118.928 192.399 119.016C193.108 119.28 194.527 119.808 194.97 119.544C195.68 119.016 204.725 112.675 205.7 111.706C206.321 111.178 206.41 108.272 206.232 106.422V106.246L206.321 106.07C206.321 106.07 208.893 102.9 207.917 100.874C207.651 100.17 207.03 99.7292 206.232 99.7292C205.345 99.8173 204.636 100.258 204.281 101.05C203.483 102.723 203.217 103.516 203.217 103.516L203.129 103.692L202.951 103.78C202.242 104.044 201.444 104.044 200.734 103.78C200.38 103.604 200.202 103.34 200.025 102.988L199.67 102.019C197.453 100.258 196.212 99.2007 196.123 98.6725C196.389 96.5589 196.655 94.4452 197.099 92.3316L187.61 93.2123C186.812 96.0305 186.014 99.2889 186.28 99.8173C186.635 100.874 186.989 101.931 187.167 102.988V103.164L184.861 107.391Z" fill="#263238"/>
<path d="M121.809 115.405C121.809 115.405 118.085 117.519 116.577 118.311C115.07 119.104 112.853 119.192 113.562 120.073C114.272 120.953 118.351 119.456 118.351 119.456C118.351 119.456 122.962 119.456 124.736 119.192C125.8 119.016 126.687 118.311 127.13 117.255" fill="white"/>
<path d="M114.538 120.777C114.095 120.865 113.563 120.689 113.208 120.337C113.031 120.073 112.942 119.808 113.031 119.544C113.208 119.016 113.918 118.752 114.804 118.487C115.336 118.311 115.869 118.135 116.401 117.871C117.908 117.078 121.633 114.965 121.633 114.965C121.81 114.877 122.165 114.877 122.254 115.141C122.342 115.317 122.254 115.581 122.076 115.757C121.987 115.757 118.352 117.871 116.844 118.664C116.312 118.928 115.691 119.192 115.07 119.368C114.716 119.456 114.272 119.632 113.918 119.808C114.184 120.161 116.223 119.808 118.174 119.016C118.263 119.016 118.263 119.016 118.352 119.016C118.44 119.016 122.963 119.016 124.737 118.752C125.623 118.575 126.421 117.959 126.687 117.166C126.776 116.902 127.042 116.814 127.22 116.902C127.397 116.99 127.574 117.254 127.486 117.431C127.042 118.575 125.978 119.456 124.737 119.632C123.052 119.808 118.972 119.896 118.352 119.896C117.199 120.425 115.869 120.689 114.538 120.777Z" fill="#263238"/>
<path d="M273.008 267.054L272.565 275.509L267.156 286.693C266.801 287.398 267.422 288.895 269.107 288.191C270.792 287.486 274.427 284.14 276.378 282.554C278.329 280.969 281.433 277.006 283.295 275.597C285.157 274.188 287.197 271.282 287.108 270.665C287.019 270.05 277.265 261.946 277.265 261.946L273.008 267.054Z" fill="#8EE26B"/>
<path d="M268.398 288.806C267.511 288.806 266.713 288.103 266.713 287.221C266.713 286.958 266.713 286.782 266.89 286.518C267.245 285.812 271.767 276.39 272.299 275.422L272.743 267.055C272.743 266.967 272.743 266.879 272.832 266.791L277.088 261.771C277.265 261.595 277.531 261.595 277.709 261.683C287.641 269.785 287.729 270.402 287.729 270.665C287.818 271.546 285.512 274.717 283.739 276.037C282.497 277.095 281.433 278.239 280.369 279.384C279.305 280.616 278.063 281.85 276.822 282.907C276.29 283.347 275.581 283.963 274.782 284.58C272.832 286.253 270.703 288.103 269.373 288.63C269.018 288.718 268.664 288.806 268.398 288.806ZM273.452 267.23L273.009 275.597C273.009 275.685 273.009 275.685 273.009 275.773L267.6 286.958C267.511 287.221 267.6 287.574 267.777 287.75C268.043 288.015 268.486 288.103 269.018 287.838C270.171 287.398 272.388 285.46 274.162 283.963C274.96 283.347 275.581 282.73 276.201 282.29C277.443 281.233 278.596 280.089 279.571 278.855C280.635 277.622 281.788 276.39 283.118 275.334C284.626 274.1 285.867 272.603 286.754 270.841C286.133 270.049 280.901 265.557 277.354 262.651L273.452 267.23Z" fill="#263238"/>
<path d="M283.384 275.685C285.246 274.364 287.286 271.37 287.197 270.753C286.842 270.314 286.488 269.873 286.044 269.521C284.714 270.929 282.054 273.923 279.66 276.39C276.999 279.296 270.083 285.724 267.6 288.103C268.043 288.455 268.664 288.455 269.196 288.191C270.881 287.486 274.516 284.139 276.467 282.554C278.418 280.969 281.522 277.094 283.384 275.685Z" fill="#263238"/>
<path d="M268.398 288.807C267.954 288.807 267.6 288.718 267.334 288.455C267.245 288.367 267.156 288.279 267.156 288.103C267.156 288.015 267.245 287.838 267.334 287.75C270.083 285.197 276.733 278.855 279.394 276.037C281.788 273.484 284.359 270.665 285.778 269.168C285.867 269.08 285.956 268.992 286.133 268.992C286.222 268.992 286.399 268.992 286.488 269.08C287.641 270.138 287.729 270.401 287.818 270.577C287.907 271.458 285.601 274.629 283.827 275.949C282.586 277.006 281.522 278.151 280.458 279.296C279.394 280.528 278.152 281.762 276.911 282.819C276.379 283.259 275.669 283.875 274.871 284.492C272.92 286.165 270.792 288.015 269.462 288.542C269.018 288.718 268.664 288.807 268.398 288.807ZM268.398 287.927C268.575 287.927 268.841 287.927 269.018 287.75C270.171 287.31 272.388 285.372 274.162 283.875C274.96 283.259 275.581 282.642 276.201 282.202C277.443 281.145 278.596 280.001 279.571 278.767C280.635 277.534 281.788 276.302 283.118 275.245C284.626 274.012 285.867 272.515 286.754 270.753C286.576 270.489 286.31 270.226 286.044 270.049C284.626 271.635 282.143 274.276 280.014 276.654C277.531 279.384 271.413 285.109 268.398 287.927Z" fill="#263238"/>
<path d="M284.182 230.508L288.883 235.704L296.332 250.762C296.332 250.762 298.194 251.203 298.992 250.675C299.79 250.147 298.46 231.388 298.017 228.57C297.573 225.753 298.105 224.519 296.952 224.079C295.8 223.639 285.425 225.136 285.425 225.136L284.182 230.508Z" fill="#8EE26B"/>
<path d="M297.662 251.203C297.13 251.203 296.686 251.115 296.243 251.027C296.154 251.027 295.977 250.938 295.977 250.762L288.615 235.792L284.004 230.684C283.916 230.596 283.827 230.42 283.916 230.244L285.157 224.783C285.157 224.607 285.334 224.43 285.512 224.43C287.285 224.167 295.977 222.845 297.219 223.374C298.283 223.815 298.283 224.695 298.371 226.016C298.371 226.633 298.46 227.338 298.549 228.218C298.549 228.394 300.588 249.882 299.347 250.762C298.815 251.115 298.283 251.291 297.662 251.203ZM296.598 250.235C297.307 250.411 298.017 250.411 298.637 250.147C299.169 248.561 298.017 231.829 297.573 228.482C297.485 227.689 297.396 226.985 297.396 226.192C297.307 224.871 297.307 224.519 296.775 224.344C296.154 224.079 290.744 224.695 285.778 225.4L284.625 230.42L289.148 235.352L289.236 235.44L296.598 250.235Z" fill="#263238"/>
<path d="M296.951 223.903C296.508 223.815 295.976 223.727 295.532 223.815C296.153 229.011 297.573 242.133 298.017 244.862C298.194 246.8 298.283 248.826 298.105 250.762C298.46 250.762 298.726 250.674 298.992 250.499C299.79 249.97 298.46 231.212 298.017 228.394C297.573 225.576 298.194 224.43 296.951 223.903Z" fill="#263238"/>
<path d="M298.105 251.203C298.017 251.203 297.839 251.114 297.751 251.114C297.662 251.026 297.573 250.938 297.662 250.762C297.751 248.826 297.751 246.888 297.573 244.95C297.219 242.133 295.711 229.275 295.178 223.903C295.178 223.815 295.178 223.638 295.268 223.55C295.357 223.462 295.445 223.374 295.623 223.374C296.155 223.286 296.687 223.374 297.219 223.462C298.283 223.903 298.283 224.783 298.372 226.103C298.372 226.72 298.46 227.426 298.549 228.306C298.549 228.482 300.588 249.97 299.347 250.85C298.904 251.026 298.549 251.203 298.105 251.203ZM296.066 224.255C296.687 229.891 298.105 242.133 298.46 244.862C298.638 246.623 298.726 248.473 298.638 250.234H298.726C299.258 248.649 298.105 231.917 297.662 228.57C297.573 227.777 297.485 227.073 297.485 226.28C297.396 224.959 297.396 224.606 296.864 224.43C296.598 224.255 296.332 224.255 296.066 224.255Z" fill="#263238"/>
</svg>
