<svg width="335" height="327" viewBox="0 0 335 327" fill="none" xmlns="http://www.w3.org/2000/svg">
<g clip-path="url(#clip0_507_481)">
<g opacity="0.08">
<path opacity="0.08" d="M8.82901 190.262C8.82901 190.262 19.3217 249.17 72.5406 281.093C125.75 313.015 191.899 305.4 245.666 300.698C299.434 295.996 335.713 258.116 334.93 209.698C334.148 161.28 291.449 153.815 261.482 103.308C231.514 52.8111 230.884 34.7422 179.338 8.94565C127.792 -16.8415 57.7501 15.156 27.7914 78.1393C-2.16722 141.123 8.82901 190.262 8.82901 190.262Z" fill="#00B533"/>
<path opacity="0.7" d="M8.82901 190.262C8.82901 190.262 19.3217 249.17 72.5406 281.093C125.75 313.015 191.899 305.4 245.666 300.698C299.434 295.996 335.713 258.116 334.93 209.698C334.148 161.28 291.449 153.815 261.482 103.308C231.514 52.8111 230.884 34.7422 179.338 8.94565C127.792 -16.8415 57.7501 15.156 27.7914 78.1393C-2.16722 141.123 8.82901 190.262 8.82901 190.262Z" fill="#00B533"/>
</g>
<path d="M106.348 276.868C97.1137 283.163 86.7023 299.958 81.4964 306.777C76.2904 313.596 76.2994 323.394 74.1145 326.017C71.9297 328.64 64.3771 320.593 66.0225 314.645C67.6679 308.697 70.5181 307.48 69.8887 304.679C69.2594 301.878 67.7039 300.127 69.3852 296.455C71.0665 292.783 75.9308 296.286 80.804 292.783C85.6772 289.28 90.5414 274.236 96.5838 258.5C102.625 242.763 115.393 243.101 116.904 240.656C118.415 238.211 126.974 206.363 135.714 207.946C144.452 209.53 160.242 225.613 155.216 234.399C150.189 243.185 144.3 242.979 137.233 248.046C130.165 253.114 131.02 254.172 126.317 259.418C121.615 264.663 118.225 265.544 115.734 266.237C115.734 266.237 112.21 270.265 110.025 273.234C107.84 276.203 106.348 276.868 106.348 276.868Z" fill="white"/>
<path d="M106.348 276.868C97.1137 283.163 86.7023 299.958 81.4964 306.777C76.2904 313.596 76.2994 323.394 74.1145 326.017C71.9297 328.64 64.3771 320.593 66.0225 314.645C67.6679 308.697 70.5181 307.48 69.8887 304.679C69.2594 301.878 67.7039 300.127 69.3852 296.455C71.0665 292.783 75.9308 296.286 80.8041 292.783C85.6772 289.28 90.5414 274.236 96.5838 258.5C102.625 242.763 115.393 243.101 116.904 240.656C118.415 238.211 126.974 206.363 135.714 207.946C144.452 209.53 160.242 225.613 155.216 234.399C150.189 243.185 144.3 242.979 137.233 248.046C130.165 253.114 131.02 254.172 126.317 259.418C121.615 264.663 118.225 265.544 115.734 266.237C115.734 266.237 112.21 270.265 110.025 273.234C107.84 276.203 106.348 276.868 106.348 276.868Z" stroke="#2E353A" stroke-width="0.936694" stroke-miterlimit="10" stroke-linecap="round"/>
<path d="M105.071 277.805C103.021 277.674 101.017 277.177 99.1277 276.344C95.4418 274.733 93.9942 270.564 93.4547 266.874C88.8153 279.285 84.8232 289.916 80.8671 292.783C75.9938 296.286 71.1296 292.783 69.4483 296.455C67.7669 300.126 69.2774 301.878 69.9517 304.679C70.6261 307.479 67.7669 308.707 66.0855 314.645C64.4042 320.584 71.9658 328.639 74.1776 326.017C76.3895 323.394 76.3625 313.596 81.5594 306.777C86.5135 300.267 96.1703 284.69 105.071 277.805Z" fill="#65B342"/>
<path d="M105.071 277.806C103.021 277.675 101.017 277.178 99.1285 276.344C95.4417 274.733 93.9942 270.565 93.4547 266.875C88.8152 279.286 84.8231 289.917 80.867 292.783C75.9937 296.287 71.1295 292.783 69.4482 296.455C67.7668 300.127 69.2773 301.879 69.9517 304.679C70.626 307.48 67.7668 308.707 66.0855 314.646C64.4042 320.585 71.9658 328.64 74.1775 326.017C76.3894 323.395 76.3624 313.597 81.5593 306.778C86.5135 300.268 96.1701 284.69 105.071 277.806Z" fill="#00B533"/>
<path opacity="0.2" d="M74.1143 326.017C74.2401 325.857 74.357 325.689 74.4559 325.511L74.5369 325.37C74.6358 325.183 74.7346 324.977 74.8336 324.743C74.8336 324.743 74.8336 324.658 74.8785 324.621C74.9595 324.415 75.0404 324.199 75.1123 323.975C75.1392 323.9 75.1662 323.834 75.1843 323.759C75.2741 323.497 75.355 323.225 75.4359 322.944L75.5169 322.645C75.5708 322.429 75.6338 322.204 75.6967 321.97L75.7777 321.633C74.393 317.746 73.9974 313.549 74.6178 309.456C75.7058 299.986 86.6121 292.033 89.5251 286.348C91.701 282.301 94.1107 278.404 96.7631 274.676C94.776 272.653 93.8589 269.618 93.4543 266.846L92.6631 268.944L92.5373 269.3L91.746 271.398L90.9997 273.365L90.8739 273.693C90.6311 274.33 90.3884 274.957 90.1456 275.566L90.0197 275.894C89.7769 276.522 89.5342 277.14 89.2914 277.768L88.5722 279.529L88.4372 279.856C88.2035 280.418 87.9697 280.962 87.7359 281.496L87.628 281.758L86.9717 283.238L86.8998 283.397C86.666 283.903 86.4412 284.39 86.2164 284.858C86.1715 284.961 86.1175 285.055 86.0725 285.139C85.8478 285.608 85.623 286.076 85.3982 286.498L85.3173 286.657L84.679 287.828L84.58 288.006C84.3553 288.399 84.1395 288.764 83.9147 289.12L83.7798 289.326C83.555 289.682 83.3302 290.01 83.1144 290.319L83.0516 290.394C82.8447 290.685 82.6289 290.956 82.4222 291.209L82.3053 291.35C82.0895 291.612 81.8647 291.837 81.6489 292.052L81.5231 292.174C81.3073 292.38 81.0825 292.567 80.8486 292.736C79.518 293.691 77.9626 294.263 76.3531 294.403C75.454 294.497 74.6807 294.497 73.9164 294.506C73.2152 294.497 72.5139 294.534 71.8126 294.637C70.7605 294.731 69.8435 295.406 69.4029 296.408C68.9534 297.326 68.6926 298.347 68.6386 299.377C68.6297 299.714 68.6476 300.052 68.6926 300.379C68.7106 300.539 68.7376 300.698 68.7735 300.848C69.0252 302.093 69.5737 303.236 69.9064 304.594C69.9783 304.913 70.0143 305.25 70.0053 305.578C69.9334 306.833 69.1062 307.892 68.207 309.531C67.2809 311.105 66.5617 312.791 66.0672 314.561C65.6805 316.106 65.7705 317.746 66.3099 319.244C66.7055 320.415 67.263 321.521 67.9463 322.532C68.1711 322.869 68.4049 323.188 68.6476 323.469C70.5898 325.979 73.0263 327.328 74.1143 326.017Z" fill="#00B533" stroke="#2E353A" stroke-width="0.936694" stroke-miterlimit="10" stroke-linecap="round"/>
<path d="M105.071 277.806C103.021 277.675 101.017 277.178 99.1285 276.344C95.4417 274.733 93.9942 270.565 93.4546 266.875C88.8152 279.286 84.8231 289.917 80.867 292.783C75.9937 296.287 71.1295 292.783 69.4482 296.455C67.7668 300.127 69.2773 301.879 69.9517 304.679C70.626 307.48 67.7668 308.707 66.0855 314.646C64.4042 320.585 71.9658 328.64 74.1775 326.017C76.3894 323.395 76.3624 313.597 81.5593 306.778C86.5135 300.268 96.1701 284.69 105.071 277.806Z" stroke="#2E353A" stroke-width="0.936694" stroke-miterlimit="10" stroke-linecap="round"/>
<path d="M105.071 277.805C103.021 277.674 101.017 277.177 99.1277 276.344C95.4418 274.733 93.9942 270.564 93.4547 266.874C88.8153 279.285 84.8232 289.916 80.8671 292.783C75.9938 296.286 71.1296 292.783 69.4483 296.455C67.7669 300.126 69.2774 301.878 69.9517 304.679C70.6261 307.479 67.7669 308.707 66.0855 314.645C64.4042 320.584 71.9658 328.639 74.1776 326.017C76.3895 323.394 76.3625 313.596 81.5594 306.777C86.5135 300.267 96.1703 284.69 105.071 277.805Z" stroke="#2E353A" stroke-width="0.936694" stroke-miterlimit="10" stroke-linecap="round"/>
<path d="M65.833 183.274C65.833 183.274 74.06 194.814 82.7904 194.683C91.5209 194.552 96.6097 186.496 101.096 187.049C104.415 187.574 107.66 188.473 110.789 189.747C110.789 189.747 141.97 146.218 149.145 138.847C156.32 131.475 160.465 123.035 150.611 120.431C140.757 117.827 120.176 122.445 109.854 131.896C99.5316 141.348 66.8221 178.956 66.8221 178.956L65.833 183.274Z" fill="#65B342"/>
<path opacity="0.5" d="M65.833 183.274C65.833 183.274 74.06 194.814 82.7904 194.683C91.5209 194.552 96.6097 186.496 101.096 187.049C104.415 187.574 107.66 188.473 110.789 189.747C110.789 189.747 141.97 146.218 149.145 138.847C156.32 131.475 160.465 123.035 150.611 120.431C140.757 117.827 120.176 122.445 109.854 131.896C99.5316 141.348 66.8221 178.956 66.8221 178.956L65.833 183.274Z" fill="black" stroke="#2E353A" stroke-width="0.936694" stroke-miterlimit="10" stroke-linecap="round"/>
<path d="M65.833 183.274C65.833 183.274 74.06 194.814 82.7904 194.683C91.5209 194.552 96.6097 186.496 101.096 187.049C104.415 187.574 107.66 188.473 110.789 189.747C110.789 189.747 141.97 146.218 149.145 138.847C156.32 131.475 160.465 123.035 150.611 120.431C140.757 117.827 120.176 122.445 109.854 131.896C99.5316 141.348 66.8221 178.956 66.8221 178.956L65.833 183.274Z" stroke="#2E353A" stroke-width="0.936694" stroke-miterlimit="10" stroke-linecap="round"/>
<path d="M183.617 81.6423C183.617 81.6423 186.135 75.3477 191.17 72.547C194.523 70.8047 198.21 69.8399 201.96 69.7369L215.05 61.3066C215.05 61.3066 218.746 48.0056 231.343 42.5727C243.939 37.1399 297.5 16.8605 298.004 16.5139C298.507 16.1673 304.72 13.0107 304.72 13.5352C304.729 14.4344 304.558 15.3337 304.216 16.158C303.713 17.563 291.287 25.9558 291.287 25.9558C291.287 25.9558 297.329 22.106 297.5 24.0824C297.671 26.0588 297.5 26.5272 295.315 27.9322C293.13 29.3373 289.102 31.9506 288.266 32.4752C287.43 32.9997 284.238 36.147 281.712 36.503C279.185 36.8589 272.819 37.3741 272.315 37.8986C271.812 38.4232 255.349 55.0401 249.982 59.7705C244.614 64.5008 235.874 68.8658 235.874 68.8658C235.874 68.8658 224.122 81.9795 215.194 88.808C206.267 95.6365 200.251 97.3787 200.251 97.3787L199.577 98.0719C199.577 98.0719 200.08 104.198 200.08 104.9C200.08 105.603 204.953 122.913 202.777 132.533C200.601 142.153 196.394 146.181 196.394 146.181C196.394 146.181 195.729 157.552 193.04 161.748C190.352 165.945 182.962 171.022 177.755 175.049C172.55 179.077 171.884 187.995 171.543 189.044C171.201 190.093 167.047 207.937 164.825 212.302C162.605 216.667 155.834 219.13 154.711 219.477C154.1 219.664 147.841 229.556 141.817 229.069C133.762 228.478 127.359 221.781 126.811 213.388C126.712 211.655 126.776 209.923 126.991 208.208C128.331 197.53 132.385 193.1 132.385 193.1C132.385 193.1 140.991 158.077 140.145 148.803C139.3 139.53 139.138 133.76 141.656 128.514C144.174 123.269 152.4 115.223 165.167 109.443C177.935 103.664 179.437 99.8235 179.437 93.1823C179.563 88.9672 181.037 84.902 183.617 81.6423Z" fill="white"/>
<path d="M183.617 81.6423C183.617 81.6423 186.135 75.3477 191.17 72.547C194.523 70.8047 198.21 69.8399 201.96 69.7369L215.051 61.3066C215.051 61.3066 218.746 48.0056 231.343 42.5727C243.939 37.1399 297.5 16.8605 298.004 16.5139C298.507 16.1673 304.72 13.0107 304.72 13.5352C304.729 14.4344 304.558 15.3337 304.216 16.158C303.713 17.563 291.287 25.9558 291.287 25.9558C291.287 25.9558 297.329 22.106 297.5 24.0824C297.671 26.0588 297.5 26.5272 295.315 27.9322C293.13 29.3373 289.102 31.9506 288.266 32.4752C287.43 32.9997 284.238 36.147 281.712 36.503C279.185 36.8589 272.819 37.3741 272.315 37.8986C271.812 38.4232 255.349 55.0401 249.982 59.7705C244.614 64.5008 235.874 68.8658 235.874 68.8658C235.874 68.8658 224.122 81.9795 215.194 88.808C206.267 95.6365 200.251 97.3787 200.251 97.3787L199.577 98.0719C199.577 98.0719 200.08 104.198 200.08 104.9C200.08 105.603 204.953 122.913 202.777 132.533C200.601 142.153 196.394 146.181 196.394 146.181C196.394 146.181 195.729 157.552 193.04 161.748C190.352 165.945 182.962 171.022 177.755 175.049C172.55 179.077 171.884 187.995 171.543 189.044C171.201 190.093 167.047 207.937 164.825 212.302C162.605 216.667 155.834 219.13 154.711 219.477C154.1 219.664 147.841 229.556 141.817 229.069C133.762 228.478 127.359 221.781 126.811 213.388C126.712 211.655 126.776 209.923 126.991 208.208C128.331 197.53 132.385 193.1 132.385 193.1C132.385 193.1 140.991 158.077 140.145 148.803C139.3 139.53 139.138 133.76 141.656 128.514C144.174 123.269 152.4 115.223 165.167 109.443C177.935 103.664 179.437 99.8235 179.437 93.1823C179.563 88.9672 181.037 84.902 183.617 81.6423Z" stroke="#2E353A" stroke-width="0.936694" stroke-miterlimit="10" stroke-linecap="round"/>
<path d="M196.194 142.047C197.97 134.182 195.492 126.845 190.659 125.66C185.825 124.476 180.467 129.892 178.69 137.757C176.914 145.623 179.392 152.96 184.226 154.144C189.059 155.329 194.418 149.913 196.194 142.047Z" fill="#00B533"/>
<path d="M165.635 175.059C156.563 177.157 153.047 172.605 153.047 172.605C153.047 172.605 154.055 179.602 163.63 180.651" stroke="#2E353A" stroke-width="0.936694" stroke-linecap="round" stroke-linejoin="round"/>
<path d="M186.953 132.898C186.953 132.898 192.159 146.012 187.96 155.988C183.761 165.964 177.71 169.767 166.3 171.734" stroke="#2E353A" stroke-width="0.936694" stroke-miterlimit="10" stroke-linecap="round"/>
<path d="M176.038 175.228C176.038 175.228 169.151 181.7 163.774 183.799C158.397 185.897 154.207 189.578 149.676 183.274" stroke="#2E353A" stroke-width="0.936694" stroke-miterlimit="10" stroke-linecap="round"/>
<path d="M230.102 61.5225C230.102 61.5225 234.301 58.5532 236.648 61.3539C238.994 64.1546 235.811 68.8474 235.811 68.8474" stroke="#2E353A" stroke-width="0.936694" stroke-linecap="round" stroke-linejoin="round"/>
<path d="M200.889 74.4673C199.981 79.1508 199.316 83.8811 198.902 88.6395C198.668 91.8055 198.893 94.9903 199.568 98.0813" stroke="#2E353A" stroke-width="0.936694" stroke-linecap="round" stroke-linejoin="round"/>
<path d="M161.347 138.069L171.407 132.505" stroke="#2E353A" stroke-width="0.936694" stroke-miterlimit="10" stroke-linecap="round"/>
<path d="M297.941 16.5704C297.491 16.8795 254.954 33.0093 236.801 40.3624C238.437 40.4373 247.015 41.1867 249.29 48.9332C250.287 52.2397 250.755 55.6867 250.656 59.1525C256.626 53.7478 271.813 38.4141 272.298 37.9083C272.783 37.4024 279.176 36.8592 281.694 36.5126C284.211 36.166 287.403 33.0093 288.249 32.4848C289.093 31.9603 293.112 29.3375 295.297 27.9418C297.482 26.5462 297.653 26.0122 297.482 24.092C297.311 22.1718 291.269 25.9654 291.269 25.9654C291.269 25.9654 303.695 17.5352 304.198 16.1676C304.54 15.3433 304.711 14.4441 304.702 13.5448C304.657 13.0671 298.445 16.2144 297.941 16.5704Z" fill="#00B533" stroke="#2E353A" stroke-width="0.936694" stroke-linecap="round" stroke-linejoin="round"/>
<path d="M291.224 26.0122L285.344 29.1595" stroke="#2E353A" stroke-width="0.936694" stroke-linecap="round" stroke-linejoin="round"/>
<path d="M172.694 183.489C170.814 184.248 168.441 185.269 166.175 186.402C159.881 189.559 153.102 191.507 146.142 192.154C140.676 192.631 136.027 190.084 133.482 188.285C132.79 191.245 132.341 193.109 132.341 193.109C132.341 193.109 128.286 197.54 126.947 208.218C126.731 209.932 126.667 211.665 126.766 213.398C127.315 221.791 133.717 228.488 141.773 229.078C147.796 229.565 154.055 219.711 154.666 219.486C155.835 219.14 162.605 216.676 164.781 212.311C166.957 207.946 171.165 190.102 171.498 189.053C171.659 188.547 171.929 186.215 172.694 183.489Z" fill="#2E353A" stroke="#2E353A" stroke-width="0.936694" stroke-miterlimit="10" stroke-linecap="round"/>
<path d="M136.683 198.27C136.683 198.27 143.876 195.039 151.14 197.727" stroke="white" stroke-width="0.702521" stroke-linecap="round" stroke-linejoin="round"/>
<path d="M151.862 189.072C142.591 190.159 137.224 186.627 134.499 183.836C133.879 186.646 133.34 188.931 132.944 190.571C137.691 193.652 143.301 194.973 148.867 194.317C158.865 193.034 167.938 188.772 171.957 186.655C171.992 186.44 172.038 186.215 172.091 185.981C172.227 185.297 172.406 184.557 172.622 183.77C172.622 183.723 172.622 183.677 172.667 183.62C172.739 183.377 172.811 183.124 172.892 182.871C172.892 182.834 172.892 182.796 172.892 182.759C173.17 181.897 173.494 181.045 173.872 180.22C167.362 185.044 159.791 188.088 151.862 189.072Z" fill="#00B533" stroke="#2E353A" stroke-width="0.936694" stroke-miterlimit="10" stroke-linecap="round"/>
<path d="M123.701 127.615C123.701 127.615 122.073 128.477 127.945 124.459C133.816 120.44 132.044 126.257 136.036 115.935C140.028 105.612 144.434 97.9222 151.655 95.1215C158.874 92.3207 180.202 96.3485 180.202 96.3485L185.236 100.02L178.223 114.183C174.806 112.432 170.832 112.3 167.317 113.827C161.608 116.45 158.577 119.597 159.225 122.398C159.872 125.199 165.267 132.898 165.267 132.898C165.267 132.898 139.839 122.492 135.812 124.758C131.784 127.025 119.511 131.671 118.836 132.027C118.162 132.383 123.701 127.615 123.701 127.615Z" fill="#00B533" stroke="#2E353A" stroke-width="0.936694" stroke-miterlimit="10" stroke-linecap="round"/>
<path d="M139.354 119.419C140.209 118.117 141.152 116.609 142.115 114.876C146.485 107.186 155.215 103.861 155.215 103.861" stroke="#2E353A" stroke-width="0.936694" stroke-miterlimit="10" stroke-linecap="round"/>
<path d="M155.853 112.263C151.097 113.481 146.996 116.628 144.47 121.003" stroke="#2E353A" stroke-width="0.936694" stroke-miterlimit="10" stroke-linecap="round"/>
<path d="M151.186 137.273C151.186 137.273 140.945 135.699 133.204 142.518C125.463 149.338 126.334 156.653 126.334 156.653C126.334 156.653 118.773 160.147 117.263 164.147C116.381 166.507 115.779 168.98 115.465 171.49C115.465 171.49 111.436 175.518 108.074 179.537C104.711 183.555 101.86 184.22 101.186 189.512C100.512 194.805 100.853 207.703 104.549 220.47C108.244 233.237 110.762 238.839 111.742 241.077C112.722 243.316 121.479 254.894 122.99 255.25C124.5 255.605 126.011 255.943 127.189 255.25C128.367 254.556 137.079 252.439 136.765 249.826C136.701 248.43 136.225 247.091 135.416 245.976L135.083 245.452C135.083 245.452 136.594 242.473 135.587 241.077C134.58 239.682 133.734 239.504 131.891 237.752C130.048 236 129.041 235.476 126.856 235.476C124.671 235.476 122.361 235.654 122.361 235.654C122.361 235.654 118.998 234.249 118.998 224.104C118.998 213.96 122.019 205.211 123.493 200.687C124.384 198.102 124.896 195.385 125.004 192.641C125.004 192.641 126.182 194.393 134.409 190.365C142.635 186.337 144.488 174.975 144.488 174.975L132.367 176.979C138.302 176.436 144.155 175.209 149.829 173.308C159.234 170.16 163.261 169.636 166.912 154.761" fill="white"/>
<path d="M151.186 137.273C151.186 137.273 140.945 135.699 133.204 142.518C125.463 149.338 126.334 156.653 126.334 156.653C126.334 156.653 118.773 160.147 117.263 164.147C116.381 166.507 115.779 168.98 115.465 171.49C115.465 171.49 111.436 175.518 108.074 179.537C104.711 183.555 101.86 184.22 101.186 189.512C100.512 194.805 100.853 207.703 104.549 220.47C108.244 233.237 110.762 238.839 111.742 241.077C112.722 243.316 121.479 254.894 122.99 255.25C124.5 255.605 126.011 255.943 127.189 255.25C128.367 254.556 137.079 252.439 136.765 249.826C136.701 248.43 136.225 247.091 135.416 245.976L135.083 245.452C135.083 245.452 136.594 242.473 135.587 241.077C134.58 239.682 133.734 239.504 131.891 237.752C130.048 236 129.041 235.476 126.856 235.476C124.671 235.476 122.361 235.654 122.361 235.654C122.361 235.654 118.998 234.249 118.998 224.104C118.998 213.96 122.019 205.211 123.493 200.687C124.384 198.102 124.896 195.385 125.004 192.641C125.004 192.641 126.182 194.393 134.409 190.365C142.635 186.337 144.488 174.975 144.488 174.975L132.367 176.979C138.302 176.436 144.155 175.209 149.829 173.308C159.234 170.16 163.261 169.636 166.912 154.761" stroke="#2E353A" stroke-width="0.936694" stroke-miterlimit="10" stroke-linecap="round"/>
<path d="M124.986 192.725L124.024 184.698" stroke="#2E353A" stroke-width="0.936694" stroke-linecap="round" stroke-linejoin="round"/>
<path d="M172.505 130.622C177.378 129.048 178.556 122.754 181.406 116.103C183.662 111.167 186.198 106.38 189.012 101.763C184.094 101.837 179.211 101.004 174.572 99.3084C167.01 96.4983 158.109 98.4373 156.437 100.357C154.765 102.278 154.926 99.8329 155.259 105.781C155.592 111.729 157.777 120.3 159.755 123.278C161.733 126.257 162.947 127.962 162.947 127.962" fill="white"/>
<path d="M172.505 130.622C177.378 129.048 178.556 122.754 181.406 116.103C183.662 111.167 186.198 106.38 189.012 101.763C184.094 101.837 179.211 101.004 174.572 99.3084C167.01 96.4983 158.109 98.4373 156.437 100.357C154.765 102.278 154.926 99.8329 155.259 105.781C155.592 111.729 157.777 120.3 159.755 123.278C161.733 126.257 162.947 127.962 162.947 127.962" stroke="#2E353A" stroke-width="0.936694" stroke-miterlimit="10" stroke-linecap="round"/>
<path d="M171.336 120.3C174.321 120.328 177.288 119.944 180.174 119.166C180.56 118.164 180.965 117.143 181.406 116.103C183.662 111.167 186.198 106.38 189.012 101.763C184.094 101.837 179.211 101.004 174.572 99.3084C167.01 96.4983 158.109 98.4373 156.437 100.357C154.765 102.278 154.926 99.8329 155.259 105.781C155.502 109.2 156.077 112.581 156.958 115.888C159.674 118.248 164.125 120.225 171.336 120.3Z" stroke="#2E353A" stroke-width="0.936694" stroke-miterlimit="10" stroke-linecap="round"/>
<path d="M172.919 127.849L168.873 109.293" stroke="#2E353A" stroke-width="0.936694" stroke-linecap="round" stroke-linejoin="round"/>
<path d="M177.603 66.8803C178.088 64.8102 178.439 62.712 178.663 60.5951C179.005 57.2698 171.336 51.378 163.442 52.0805C155.547 52.7831 158.407 60.8293 157.4 63.452C156.393 66.0748 148.831 63.274 146.817 67.995C144.803 72.7159 148.327 74.121 148.327 75.4885C148.327 76.8561 142.115 80.5654 142.933 88.7896C143.751 97.0138 157.373 105.051 160.394 105.753C163.415 106.456 167.11 103.477 167.11 101.07C167.11 98.6624 172.145 97.7444 173.493 95.4495C174.843 93.1546 171.309 85.3051 171.471 83.5535C171.633 81.8019 176.866 74.8141 175.167 73.0625C173.467 71.3109 177.603 66.8803 177.603 66.8803Z" fill="#2E353A" stroke="#2E353A" stroke-width="0.936694" stroke-miterlimit="10" stroke-linecap="round"/>
<path d="M175.822 67.9856C176.298 67.3393 182.511 74.0647 182.754 74.8235C182.997 75.7508 183.195 76.6875 183.339 77.6335C183.392 77.9895 183.59 78.308 183.878 78.514L188.221 81.6145C188.805 82.036 188.949 82.8697 188.553 83.4879L187.043 85.7547C186.773 86.1481 186.737 86.6633 186.934 87.0942C188.149 89.8106 192.446 99.4585 192.159 100.208C191.817 101.126 191.161 101.875 190.307 102.306C189.47 102.653 174.023 108.076 172.171 108.254C170.751 108.385 167.334 102.306 165.824 99.4772C165.455 98.8309 164.646 98.6155 164.025 98.9995C162.713 99.7864 161.103 99.8332 159.746 99.1213C156.383 97.5383 152.552 94.569 154.198 91.2437C155.843 87.9184 158.568 87.7498 159.746 88.621C160.528 89.2017 161.912 90.4194 162.748 91.15C163.162 91.5247 163.755 91.5809 164.232 91.2999L164.943 90.869C165.563 90.5131 165.797 89.6982 165.455 89.0518C165.41 88.9675 165.356 88.8832 165.293 88.8083C165.023 88.4524 164.807 88.0496 164.663 87.6281C164.663 87.6281 169.528 83.2537 167.856 80.8089C166.183 78.3642 161.642 74.683 162.146 72.7627C162.649 70.8425 169.339 68.3884 172.217 68.3884C173.286 68.3509 175.471 68.4727 175.822 67.9856Z" fill="white"/>
<path d="M175.822 67.9856C176.298 67.3393 182.511 74.0647 182.754 74.8235C182.997 75.7508 183.195 76.6875 183.339 77.6335C183.392 77.9895 183.59 78.308 183.878 78.514L188.221 81.6145C188.805 82.036 188.949 82.8697 188.553 83.4879L187.043 85.7547C186.773 86.1481 186.737 86.6633 186.934 87.0942C188.149 89.8106 192.446 99.4585 192.159 100.208C191.817 101.126 191.161 101.875 190.307 102.306C189.47 102.653 174.023 108.076 172.171 108.254C170.751 108.385 167.334 102.306 165.824 99.4772C165.455 98.8309 164.646 98.6155 164.025 98.9995C162.713 99.7864 161.103 99.8332 159.746 99.1213C156.383 97.5383 152.552 94.569 154.198 91.2437C155.843 87.9184 158.568 87.7498 159.746 88.621C160.528 89.2017 161.912 90.4194 162.748 91.15C163.162 91.5247 163.755 91.5809 164.232 91.2999L164.943 90.869C165.563 90.5131 165.797 89.6982 165.455 89.0518C165.41 88.9675 165.356 88.8832 165.293 88.8083C165.023 88.4524 164.807 88.0496 164.663 87.6281C164.663 87.6281 169.528 83.2537 167.856 80.8089C166.183 78.3642 161.642 74.683 162.146 72.7627C162.649 70.8425 169.339 68.3884 172.217 68.3884C173.286 68.3509 175.471 68.4727 175.822 67.9856Z" stroke="#2E353A" stroke-width="0.936694" stroke-miterlimit="10" stroke-linecap="round"/>
<path d="M180.533 77.3524C180.533 77.3524 176.936 77.3524 175.921 77.8863C174.905 78.4202 173.61 82.1577 173.61 82.1577L176.946 80.022L180.786 79.2258L181.81 76.2939L180.533 77.3524Z" fill="#2E353A"/>
<path d="M180.785 81.0898L177.711 82.6916H180.785" fill="white"/>
<path d="M180.785 81.0898L177.711 82.6916H180.785" stroke="#2E353A" stroke-width="0.936694" stroke-miterlimit="10" stroke-linecap="round"/>
<path d="M177.549 252.552C171.731 254.416 166.147 257.001 160.924 260.242C153.048 265.31 139.929 273.365 134.058 273.74C128.187 274.114 126.334 272.166 122.811 270.771C119.286 269.375 117.415 273.918 117.415 276.541C117.415 279.163 117.415 280.39 115.734 282.844C114.053 285.299 109.71 294.347 109.71 294.347C109.71 294.347 107.354 304.145 109.71 304.492C112.066 304.838 113.567 301.522 118.44 297.326C123.313 293.129 131.028 284.025 137.915 283.332C144.802 282.638 175.534 279.304 188.266 273.028C200.998 266.752 200.188 268.476 203.883 265.534C207.579 262.593 206.23 256.964 204.387 253.114C203.407 250.941 201.968 249.02 200.188 247.494" fill="white"/>
<path d="M177.549 252.552C171.731 254.416 166.147 257.001 160.924 260.242C153.048 265.31 139.929 273.365 134.058 273.74C128.187 274.114 126.334 272.166 122.811 270.771C119.286 269.375 117.415 273.918 117.415 276.541C117.415 279.163 117.415 280.39 115.734 282.844C114.053 285.299 109.71 294.347 109.71 294.347C109.71 294.347 107.354 304.145 109.71 304.492C112.066 304.838 113.567 301.522 118.44 297.326C123.313 293.129 131.028 284.025 137.915 283.332C144.802 282.638 175.534 279.304 188.266 273.028C200.998 266.752 200.188 268.476 203.883 265.534C207.579 262.593 206.23 256.964 204.387 253.114C203.407 250.941 201.968 249.02 200.188 247.494" stroke="#2E353A" stroke-width="0.936694" stroke-miterlimit="10" stroke-linecap="round"/>
<path d="M205.115 255.006C205.115 255.006 201.115 238.717 174.357 215.159C156.374 199.31 148.328 195.919 138.087 205.361C127.846 214.803 129.859 220.938 133.59 226.905C137.322 232.872 152.392 244.225 164.817 250.004C177.243 255.783 189.84 263.82 196.889 263.118" fill="white"/>
<path d="M205.115 255.006C205.115 255.006 201.115 238.717 174.357 215.159C156.374 199.31 148.328 195.919 138.087 205.361C127.846 214.803 129.859 220.938 133.59 226.905C137.322 232.872 152.392 244.225 164.817 250.004C177.243 255.783 189.84 263.82 196.889 263.118" stroke="#2E353A" stroke-width="0.936694" stroke-miterlimit="10" stroke-linecap="round"/>
<path d="M163.944 270.396C162.245 266.49 162.659 262.097 163.477 258.706C162.623 259.193 161.769 259.699 160.924 260.242C153.048 265.309 139.929 273.365 134.058 273.74C128.187 274.114 126.334 272.166 122.811 270.77C119.286 269.375 117.415 273.918 117.415 276.54C117.415 279.163 117.415 280.39 115.734 282.844C114.053 285.299 109.71 294.347 109.71 294.347C109.71 294.347 107.354 304.145 109.71 304.491C112.066 304.838 113.567 301.522 118.44 297.326C123.313 293.129 131.028 284.025 137.915 283.332C149.433 282.189 160.897 280.437 172.244 278.077C168.611 276.765 165.626 274.002 163.944 270.396Z" fill="#65B342"/>
<path d="M163.944 270.396C162.245 266.49 162.659 262.097 163.477 258.706C162.623 259.193 161.769 259.699 160.924 260.242C153.048 265.309 139.929 273.365 134.058 273.74C128.187 274.114 126.334 272.166 122.811 270.77C119.286 269.375 117.415 273.918 117.415 276.54C117.415 279.163 117.415 280.39 115.734 282.844C114.053 285.299 109.71 294.347 109.71 294.347C109.71 294.347 107.354 304.145 109.71 304.491C112.066 304.838 113.567 301.522 118.44 297.326C123.313 293.129 131.028 284.025 137.915 283.332C149.433 282.189 160.897 280.437 172.244 278.077C168.611 276.765 165.626 274.002 163.944 270.396Z" fill="#00B533"/>
<path opacity="0.2" d="M163.944 270.396C162.245 266.49 162.659 262.097 163.477 258.706C162.623 259.193 161.769 259.699 160.924 260.242C153.048 265.309 139.929 273.365 134.058 273.74C128.187 274.114 126.334 272.166 122.811 270.77C119.286 269.375 117.415 273.918 117.415 276.54C117.415 279.163 117.415 280.39 115.734 282.844C114.053 285.299 109.71 294.347 109.71 294.347C109.71 294.347 107.354 304.145 109.71 304.491C112.066 304.838 113.567 301.522 118.44 297.326C123.313 293.129 131.028 284.025 137.915 283.332C149.433 282.189 160.897 280.437 172.244 278.077C168.611 276.765 165.626 274.002 163.944 270.396Z" fill="#00B533" stroke="#2E353A" stroke-width="0.936694" stroke-miterlimit="10" stroke-linecap="round"/>
<path d="M163.944 270.396C162.245 266.49 162.659 262.097 163.477 258.706C162.623 259.193 161.769 259.699 160.924 260.242C153.048 265.309 139.929 273.365 134.058 273.74C128.187 274.114 126.334 272.166 122.811 270.77C119.286 269.375 117.415 273.918 117.415 276.54C117.415 279.163 117.415 280.39 115.734 282.844C114.053 285.299 109.71 294.347 109.71 294.347C109.71 294.347 107.354 304.145 109.71 304.491C112.066 304.838 113.567 301.522 118.44 297.326C123.313 293.129 131.028 284.025 137.915 283.332C149.433 282.189 160.897 280.437 172.244 278.077C168.611 276.765 165.626 274.002 163.944 270.396Z" stroke="#2E353A" stroke-width="0.936694" stroke-miterlimit="10" stroke-linecap="round"/>
<path d="M163.944 270.396C162.245 266.49 162.659 262.097 163.477 258.706C162.623 259.193 161.769 259.699 160.924 260.242C153.048 265.309 139.929 273.365 134.058 273.74C128.187 274.114 126.334 272.166 122.811 270.77C119.286 269.375 117.415 273.918 117.415 276.54C117.415 279.163 117.415 280.39 115.734 282.844C114.053 285.299 109.71 294.347 109.71 294.347C109.71 294.347 107.354 304.145 109.71 304.491C112.066 304.838 113.567 301.522 118.44 297.326C123.313 293.129 131.028 284.025 137.915 283.332C149.433 282.189 160.897 280.437 172.244 278.077C168.611 276.765 165.626 274.002 163.944 270.396Z" stroke="#2E353A" stroke-width="0.936694" stroke-linecap="round" stroke-linejoin="round"/>
<path d="M134.805 224.498C134.805 224.498 171.534 248.983 182.305 253.067C193.076 257.151 190.631 249.489 190.631 249.489" stroke="#2E353A" stroke-width="0.936694" stroke-linecap="round" stroke-linejoin="round"/>
<path d="M167.613 272.447C167.613 272.447 177.899 273.468 184.75 266.827" stroke="#2E353A" stroke-width="0.936694" stroke-linecap="round" stroke-linejoin="round"/>
<path d="M165.357 135.334C165.357 135.334 152.337 126.463 137.267 128.337C122.198 130.21 104.306 146.265 92.7076 159.997C81.1089 173.729 29.5444 248.627 29.5444 248.627L27.944 236.384C27.1977 230.614 28.6543 224.779 32.017 220.123L40.208 208.761C40.208 208.761 41.0262 194.786 48.3 187.611C53.1283 182.909 58.3792 178.684 63.9717 175.012C65.8509 173.663 84.6515 154.04 97.9131 140.008C111.176 125.976 127.269 115.926 141.854 120.178C156.437 124.431 162.281 127.672 165.68 130.8C169.079 133.929 169.195 133.61 169.195 133.61L165.357 135.334Z" fill="#00B533" stroke="#2E353A" stroke-width="0.936694" stroke-miterlimit="10" stroke-linecap="round"/>
<path d="M76.9736 168.624L80.0037 165.074" stroke="#2E353A" stroke-width="0.936694" stroke-miterlimit="10" stroke-linecap="round"/>
<path d="M40.208 208.761L75.7232 169.842" stroke="#2E353A" stroke-width="0.936694" stroke-miterlimit="10" stroke-linecap="round"/>
<path d="M126.568 126.257C125.615 126.651 124.662 127.091 123.7 127.606" stroke="#2E353A" stroke-width="0.936694" stroke-miterlimit="10" stroke-linecap="round"/>
<path d="M166.994 134.95C166.994 134.95 148.624 119.56 129.41 125.264" stroke="#2E353A" stroke-width="0.936694" stroke-miterlimit="10" stroke-linecap="round"/>
<path d="M135.066 245.555C135.066 245.555 136.576 242.576 135.569 241.18C134.562 239.785 133.717 239.607 131.873 237.855C130.03 236.103 129.023 235.579 126.839 235.579C124.654 235.579 122.343 235.757 122.343 235.757C122.343 235.757 118.98 234.352 118.98 224.207C119.07 217.941 120.059 211.731 121.912 205.773C118.971 207.59 115.671 208.686 112.264 208.995C108.11 209.464 104.01 207.675 101.421 204.265C101.969 209.773 102.994 215.224 104.495 220.536C108.191 233.303 110.709 238.904 111.689 241.143C112.669 243.381 121.426 254.959 122.937 255.315C124.447 255.671 125.957 256.008 127.135 255.315C128.313 254.622 137.026 252.505 136.711 249.892C136.648 248.496 136.172 247.156 135.362 246.042L135.066 245.555Z" fill="#65B342"/>
<path d="M135.066 245.555C135.066 245.555 136.576 242.576 135.569 241.18C134.562 239.785 133.717 239.607 131.873 237.855C130.03 236.103 129.023 235.579 126.839 235.579C124.654 235.579 122.343 235.757 122.343 235.757C122.343 235.757 118.98 234.352 118.98 224.207C119.07 217.941 120.059 211.731 121.912 205.773C118.971 207.59 115.671 208.686 112.264 208.995C108.11 209.464 104.01 207.675 101.421 204.265C101.969 209.773 102.994 215.224 104.495 220.536C108.191 233.303 110.709 238.904 111.689 241.143C112.669 243.381 121.426 254.959 122.937 255.315C124.447 255.671 125.957 256.008 127.135 255.315C128.313 254.622 137.026 252.505 136.711 249.892C136.648 248.496 136.172 247.156 135.362 246.042L135.066 245.555Z" fill="#00B533"/>
<path opacity="0.2" d="M136.747 249.929C136.747 249.648 136.666 249.395 136.621 249.161C136.621 249.086 136.621 249.011 136.621 248.936C136.621 248.861 136.549 248.599 136.513 248.449C136.477 248.299 136.442 248.196 136.414 248.084C133.195 248.505 127.307 250.65 125.724 250.65C123.998 250.65 122.262 247.943 119.664 244.927C117.066 241.911 113.02 234.099 112.471 224.47C112.12 218.7 113.433 213.154 114.539 208.649C113.819 208.799 113.082 208.911 112.291 208.995C108.137 209.464 104.037 207.675 101.447 204.265C101.447 204.509 101.502 204.762 101.529 205.005C101.574 205.436 101.628 205.867 101.681 206.316C101.681 206.607 101.762 206.916 101.799 207.253C101.834 207.59 101.915 208.059 101.969 208.471C102.023 208.883 102.068 209.098 102.113 209.408C102.158 209.717 102.248 210.232 102.32 210.644L102.482 211.581L102.697 212.855L102.886 213.791C102.976 214.232 103.075 214.681 103.174 215.131C103.236 215.431 103.3 215.73 103.372 216.021C103.489 216.526 103.615 217.032 103.74 217.529C103.794 217.782 103.858 218.035 103.92 218.278C104.118 219.037 104.325 219.796 104.541 220.545C108.236 233.312 110.753 238.913 111.733 241.152C111.814 241.33 111.904 241.508 112.013 241.677C112.192 241.995 112.425 242.379 112.713 242.819C113.191 243.55 113.802 244.421 114.512 245.377L114.935 245.948C117.92 250.041 122.02 255.09 123.026 255.315C124.537 255.662 126.047 256.008 127.225 255.315C127.666 255.1 128.116 254.922 128.574 254.772L129.267 254.538C132.143 253.563 136.999 251.896 136.747 249.929Z" fill="#00B533" stroke="#2E353A" stroke-width="0.936694" stroke-miterlimit="10" stroke-linecap="round"/>
<path d="M134.104 242.435L131.99 244.262C131.99 244.262 133.555 244.149 135.399 246.079" fill="#00B533"/>
<path d="M134.104 242.435L131.99 244.262C131.99 244.262 133.555 244.149 135.399 246.079" stroke="#2E353A" stroke-width="0.936694" stroke-miterlimit="10" stroke-linecap="round"/>
<path d="M135.066 245.555C135.066 245.555 136.576 242.576 135.569 241.18C134.562 239.785 133.717 239.607 131.873 237.855C130.03 236.103 129.023 235.579 126.839 235.579C124.654 235.579 122.343 235.757 122.343 235.757C122.343 235.757 118.98 234.352 118.98 224.207C119.07 217.941 120.059 211.731 121.912 205.773C118.971 207.59 115.671 208.686 112.264 208.995C108.11 209.464 104.01 207.675 101.421 204.265C101.969 209.773 102.994 215.224 104.495 220.536C108.191 233.303 110.709 238.904 111.689 241.143C112.669 243.381 121.426 254.959 122.937 255.315C124.447 255.671 125.957 256.008 127.135 255.315C128.313 254.622 137.026 252.505 136.711 249.892C136.648 248.496 136.172 247.156 135.362 246.042L135.066 245.555Z" stroke="#2E353A" stroke-width="0.936694" stroke-miterlimit="10" stroke-linecap="round"/>
<path d="M135.066 245.555C135.066 245.555 136.576 242.576 135.569 241.18C134.562 239.785 133.717 239.607 131.873 237.855C130.03 236.103 129.023 235.579 126.839 235.579C124.654 235.579 122.343 235.757 122.343 235.757C122.343 235.757 118.98 234.352 118.98 224.207C119.07 217.941 120.059 211.731 121.912 205.773C118.971 207.59 115.671 208.686 112.264 208.995C108.11 209.464 104.01 207.675 101.421 204.265C101.969 209.773 102.994 215.224 104.495 220.536C108.191 233.303 110.709 238.904 111.689 241.143C112.669 243.381 121.426 254.959 122.937 255.315C124.447 255.671 125.957 256.008 127.135 255.315C128.313 254.622 137.026 252.505 136.711 249.892C136.648 248.496 136.172 247.156 135.362 246.042L135.066 245.555Z" stroke="#2E353A" stroke-width="0.936694" stroke-linecap="round" stroke-linejoin="round"/>
<path d="M266.192 62.9463L237.241 91.2626" stroke="#2E353A" stroke-width="0.936694" stroke-linecap="round" stroke-linejoin="round"/>
<path d="M234.526 93.9136L229.832 98.5034" stroke="#2E353A" stroke-width="0.936694" stroke-linecap="round" stroke-linejoin="round"/>
<path d="M56.4368 242.342L51.3838 247.288" stroke="#2E353A" stroke-width="0.936694" stroke-linecap="round" stroke-linejoin="round"/>
<path d="M93.8223 205.792L60.501 238.37" stroke="#2E353A" stroke-width="0.936694" stroke-linecap="round" stroke-linejoin="round"/>
<path d="M125.175 307.161L121.83 310.43" stroke="#2E353A" stroke-width="0.936694" stroke-linecap="round" stroke-linejoin="round"/>
<path d="M146.052 286.741L128.556 303.845" stroke="#2E353A" stroke-width="0.936694" stroke-linecap="round" stroke-linejoin="round"/>
<path d="M4.48627 258.303L0.449219 262.256" stroke="#2E353A" stroke-width="0.936694" stroke-linecap="round" stroke-linejoin="round"/>
<path d="M42.8961 220.76L9.89844 253.02" stroke="#2E353A" stroke-width="0.936694" stroke-linecap="round" stroke-linejoin="round"/>
<path d="M101.491 123.981L96.4297 128.927" stroke="#2E353A" stroke-width="0.936694" stroke-linecap="round" stroke-linejoin="round"/>
<path d="M138.877 87.4316L105.879 119.701" stroke="#2E353A" stroke-width="0.936694" stroke-linecap="round" stroke-linejoin="round"/>
<path d="M259.017 77.231L216.57 118.727" stroke="#2E353A" stroke-width="0.936694" stroke-linecap="round" stroke-linejoin="round"/>
<path d="M302.175 176.183C296.052 172.708 293.273 175.602 291.052 172.708C288.831 169.813 297.166 162.273 280.478 154.779C280.478 154.779 279.364 138.547 256.553 137.919C233.742 137.291 239.866 154.152 233.742 158.208C227.619 162.264 225.956 155.885 219.833 159.95C213.71 164.015 216.497 172.127 211.489 173.279C206.481 174.431 199.801 168.062 193.686 172.118C187.573 176.174 187.563 179.611 184.785 179.611C182.008 179.611 176.441 177.298 173.097 179.611C169.752 181.925 165.859 184.829 165.859 184.829H306.625C306.625 184.829 308.279 179.658 302.175 176.183Z" fill="white"/>
<path d="M98.2455 82.3823C95.8804 81.0428 94.8105 82.1574 93.9474 81.0428C93.0842 79.9281 96.3122 77.015 89.8743 74.1112C89.8743 74.1112 89.4427 67.8448 80.6404 67.62C71.8381 67.3952 74.2027 73.8864 71.8381 75.4507C69.4733 77.015 68.835 74.514 66.4433 76.1158C64.0517 77.7175 65.1575 80.7992 63.2244 81.2676C61.2913 81.7359 58.7288 79.2537 56.3552 80.818C53.9815 82.3823 53.9905 83.7217 52.9205 83.7217C51.8506 83.7217 49.7017 82.8319 48.4249 83.7217C47.1482 84.6116 45.6377 85.7356 45.6377 85.7356H99.9531C99.9531 85.7356 100.583 83.7217 98.2455 82.3823Z" fill="white"/>
</g>
<defs>
<clipPath id="clip0_507_481">
<rect width="335" height="327" fill="white"/>
</clipPath>
</defs>
</svg>
