<svg width="335" height="298" viewBox="0 0 335 298" fill="none" xmlns="http://www.w3.org/2000/svg">
<g opacity="0.08">
<path opacity="0.08" d="M2.99821 186.249C2.99821 186.249 13.6484 243.606 67.6654 274.688C121.673 305.769 188.814 298.355 243.387 293.776C297.961 289.198 334.785 252.316 333.991 205.173C333.197 158.031 289.857 150.762 259.44 101.586C229.023 52.4188 228.384 34.8259 176.065 9.70883C123.745 -15.3991 52.653 15.7555 22.2451 77.0799C-8.16294 138.404 2.99821 186.249 2.99821 186.249Z" fill="#00B533"/>
<path opacity="0.7" d="M2.99821 186.249C2.99821 186.249 13.6484 243.606 67.6654 274.688C121.673 305.769 188.814 298.355 243.387 293.776C297.961 289.198 334.785 252.316 333.991 205.173C333.197 158.031 289.857 150.762 259.44 101.586C229.023 52.4188 228.384 34.8259 176.065 9.70883C123.745 -15.3991 52.653 15.7555 22.2451 77.0799C-8.16294 138.404 2.99821 186.249 2.99821 186.249Z" fill="#8EE26B"/>
</g>
<path d="M199.336 257.834V236.219H135.637V257.834C135.637 264.884 133.255 271.734 128.874 277.26L126.082 280.781H208.891L206.108 277.26C201.727 271.734 199.345 264.884 199.336 257.834Z" fill="white" stroke="#2E353A" stroke-width="1.0954" stroke-linecap="round" stroke-linejoin="round"/>
<path d="M47.9527 51.1338H287.027C291.709 51.1338 295.505 54.9278 295.505 59.6065V234.56C295.505 239.238 291.709 243.032 287.027 243.032H47.9527C43.2711 243.032 39.4746 239.238 39.4746 234.56V59.6065C39.4746 54.9278 43.2711 51.1338 47.9527 51.1338Z" fill="#2E353A" stroke="#2E353A" stroke-width="1.0954" stroke-linecap="round" stroke-linejoin="round"/>
<path d="M39.4747 213.2H295.505V234.55C295.505 239.229 291.709 243.023 287.027 243.023H47.9254C43.2437 243.023 39.4473 239.229 39.4473 234.55V213.2H39.4747Z" fill="white" stroke="#2E353A" stroke-width="1.0954" stroke-linecap="round" stroke-linejoin="round"/>
<path d="M282.619 63.0723H52.3516V198.644H282.619V63.0723Z" fill="#8EE26B"/>
<path d="M172.215 228.121C172.224 225.512 170.107 223.396 167.496 223.387C164.886 223.378 162.769 225.494 162.76 228.102C162.751 230.711 164.868 232.827 167.478 232.836H167.487C170.097 232.836 172.215 230.729 172.215 228.121Z" fill="#2E353A" stroke="#2E353A" stroke-width="1.0954" stroke-linecap="round" stroke-linejoin="round"/>
<path d="M208.909 280.781H126.082V284.639H208.909V280.781Z" fill="white" stroke="#2E353A" stroke-width="1.0954" stroke-linecap="round" stroke-linejoin="round"/>
<path d="M72.9955 78.2573H268.192C269.963 78.2573 271.404 79.6983 271.404 81.4676V95.4398C271.404 97.2091 269.963 98.6501 268.192 98.6501H72.9955C71.2251 98.6501 69.7832 97.2091 69.7832 95.4398V81.4676C69.7832 79.6983 71.2251 78.2573 72.9955 78.2573Z" fill="#2E353A" stroke="#2E353A" stroke-linecap="round" stroke-linejoin="round"/>
<path d="M72.0092 137.502H124.219C125.989 137.502 127.431 138.943 127.431 140.713V179.446C127.431 181.215 125.989 182.656 124.219 182.656H72.0092C70.2388 182.656 68.7969 181.215 68.7969 179.446V140.713C68.7969 138.943 70.2388 137.502 72.0092 137.502Z" fill="#2E353A" stroke="#2E353A" stroke-linecap="round" stroke-linejoin="round"/>
<path d="M106.69 147.452C106.69 144.634 104.408 142.354 101.588 142.354C98.7679 142.354 96.4863 144.634 96.4863 147.452C96.4863 150.271 98.7679 152.551 101.588 152.551C104.408 152.551 106.69 150.271 106.69 147.452Z" fill="white" stroke="#2E353A" stroke-linecap="round" stroke-linejoin="round"/>
<path d="M72.2098 182.656H124.009C125.898 182.656 127.431 181.124 127.431 179.236V163.203L111.068 151.584L99.4054 171.521L89.6862 161.808L70.5215 182.228C71.0417 182.51 71.6258 182.665 72.2098 182.656Z" fill="white" stroke="#2E353A" stroke-linecap="round" stroke-linejoin="round"/>
<path d="M74.4369 106.42H157.877C159.647 106.42 161.089 107.861 161.089 109.631V123.603C161.089 125.372 159.647 126.813 157.877 126.813H74.4369C72.6665 126.813 71.2246 125.372 71.2246 123.603V109.631C71.2246 107.861 72.6665 106.42 74.4369 106.42Z" fill="white" stroke="#2E353A" stroke-linecap="round" stroke-linejoin="round"/>
<path d="M184.763 106.42H268.202C269.973 106.42 271.415 107.861 271.415 109.631V123.603C271.415 125.372 269.973 126.813 268.202 126.813H184.763C182.992 126.813 181.551 125.372 181.551 123.603V109.631C181.551 107.861 182.992 106.42 184.763 106.42Z" fill="white" stroke="#2E353A" stroke-linecap="round" stroke-linejoin="round"/>
<path d="M269.926 138.469H142.244" stroke="#2E353A" stroke-linecap="round" stroke-linejoin="round"/>
<path d="M269.926 147.206H142.244" stroke="#2E353A" stroke-linecap="round" stroke-linejoin="round"/>
<path d="M269.926 155.952H142.244" stroke="#2E353A" stroke-linecap="round" stroke-linejoin="round"/>
<path d="M269.926 164.69H142.244" stroke="#2E353A" stroke-linecap="round" stroke-linejoin="round"/>
<path d="M269.926 173.427H142.244" stroke="#2E353A" stroke-linecap="round" stroke-linejoin="round"/>
<path d="M269.926 182.173H142.244" stroke="#2E353A" stroke-linecap="round" stroke-linejoin="round"/>
<path d="M275.612 71.7817H67.6562V192.205H275.612V71.7817Z" stroke="white" stroke-width="2" stroke-linecap="round" stroke-linejoin="round"/>
<path d="M71.6819 71.7818C71.6819 69.5565 69.8841 67.7598 67.6574 67.7598C65.4306 67.7598 63.6328 69.5565 63.6328 71.7818C63.6328 74.0071 65.4306 75.8038 67.6574 75.8038C69.875 75.8129 71.6728 74.0162 71.6819 71.8C71.6819 71.7909 71.6819 71.7909 71.6819 71.7818Z" fill="white"/>
<path d="M279.637 71.7818C279.637 69.5565 277.839 67.7598 275.613 67.7598C273.386 67.7598 271.588 69.5565 271.588 71.7818C271.588 74.0071 273.386 75.8038 275.613 75.8038H275.622C277.839 75.8038 279.637 74.0071 279.637 71.7909V71.7818Z" fill="white"/>
<path d="M173.791 71.7818C173.791 69.5565 171.993 67.7598 169.767 67.7598C167.54 67.7598 165.742 69.5565 165.742 71.7818C165.742 74.0071 167.54 75.8038 169.767 75.8038C171.984 75.8129 173.782 74.0162 173.791 71.8C173.791 71.7909 173.791 71.7909 173.791 71.7818Z" fill="white"/>
<path d="M173.791 192.351C173.8 190.126 172.003 188.329 169.776 188.32C167.549 188.311 165.751 190.108 165.742 192.333C165.733 194.558 167.531 196.355 169.758 196.364H169.767C171.984 196.373 173.782 194.577 173.791 192.36V192.351Z" fill="white"/>
<path d="M71.6819 192.351C71.6911 190.126 69.8933 188.329 67.6666 188.32C65.4398 188.311 63.6419 190.108 63.6328 192.333C63.6236 194.558 65.4215 196.355 67.6482 196.364H67.6574C69.875 196.373 71.6728 194.577 71.6819 192.36V192.351Z" fill="white"/>
<path d="M279.637 190.892C279.646 188.667 277.848 186.87 275.622 186.861C273.395 186.852 271.597 188.648 271.588 190.874C271.579 193.099 273.377 194.896 275.603 194.905C275.613 194.905 275.613 194.905 275.622 194.905C277.839 194.905 279.637 193.108 279.637 190.892Z" fill="white"/>
<path d="M81.8466 145.373C80.5051 146.604 79.2274 147.917 78.0228 149.285C77.0554 150.38 76.2158 151.584 75.5223 152.87C75.5223 152.87 75.1116 152.313 72.9396 149.304C70.7676 146.294 70.9866 143.941 70.9866 143.941L74.3815 140.685C74.3815 140.685 80.9614 141.606 81.8466 145.373Z" fill="white" stroke="#2E353A" stroke-linecap="round" stroke-linejoin="round"/>
<path d="M87.5156 131.693C87.5156 131.693 87.8533 134.429 88.629 134.702C89.4047 134.976 92.0147 134.383 91.3212 136.317C90.8466 137.53 89.9523 138.524 88.8024 139.126C88.8024 139.126 87.9537 145.802 87.4152 146.695C86.8768 147.589 86.2106 148.228 83.8834 147.407L79.6307 145.893C79.0649 145.866 78.4991 145.811 77.9424 145.729C76.902 145.574 76.902 145.729 75.5879 143.257C74.2737 140.786 72.8501 142.345 73.9817 139.089C75.1133 135.833 76.1081 133.736 78.4078 132.158C80.7076 130.58 87.5156 131.693 87.5156 131.693Z" fill="white" stroke="#2E353A" stroke-linecap="round" stroke-linejoin="round"/>
<path d="M87.6151 135.952C87.6699 136.736 87.5513 137.393 87.3414 137.411C87.1315 137.429 86.9124 136.8 86.8485 136.007C86.7847 135.213 86.9124 134.566 87.1223 134.547C87.3322 134.529 87.5239 135.149 87.6151 135.952Z" fill="#2E353A"/>
<path d="M63.2493 124.898C63.2493 124.898 61.707 116.736 61.707 113.872C61.707 111.008 67.1827 93.1324 67.1827 93.1324C67.1827 93.1324 62.9026 86.9672 62.5466 86.5112C62.1907 86.0552 62.5466 85.1887 63.4592 85.8545C64.1346 86.4382 64.7278 87.104 65.2206 87.8427L62.793 82.9816C62.793 82.9816 62.793 81.8051 63.6326 82.0696C64.4722 82.3341 66.5438 86.119 66.5438 86.119L64.1163 80.6013C64.1985 80.054 64.7004 79.6801 65.248 79.7622C65.394 79.7804 65.5309 79.8352 65.6495 79.9172C66.3522 80.3094 68.3143 84.3588 68.3143 84.3588L67.6481 80.1635C67.6481 80.1635 68.5607 78.6951 69.4186 80.6013C69.8383 81.5133 71.6179 87.8974 71.6179 87.8974L74.7482 86.3288C75.2227 86.0916 75.7977 86.2649 76.0623 86.73C76.2996 87.1496 76.2083 87.6785 75.8433 87.9886C75.0128 88.6818 73.6257 89.8674 73.1694 90.3234C72.3845 91.2354 71.6453 92.1931 70.9609 93.1872L69.8475 114.383L70.9609 124.068L63.2493 124.898Z" fill="white"/>
<path d="M63.2493 124.898C63.2493 124.898 61.707 116.736 61.707 113.872C61.707 111.008 67.1827 93.1324 67.1827 93.1324C67.1827 93.1324 62.9026 86.9672 62.5466 86.5112C62.1907 86.0552 62.5466 85.1887 63.4592 85.8545C64.1346 86.4382 64.7278 87.104 65.2206 87.8427L62.793 82.9816C62.793 82.9816 62.793 81.8051 63.6326 82.0696C64.4722 82.3341 66.5438 86.119 66.5438 86.119L64.1163 80.6013C64.1985 80.054 64.7004 79.6801 65.248 79.7622C65.394 79.7804 65.5309 79.8352 65.6495 79.9172C66.3522 80.3094 68.3143 84.3588 68.3143 84.3588L67.6481 80.1635C67.6481 80.1635 68.5607 78.6951 69.4186 80.6013C69.8383 81.5133 71.6179 87.8974 71.6179 87.8974L74.7482 86.3288C75.2227 86.0916 75.7977 86.2649 76.0623 86.73C76.2996 87.1496 76.2083 87.6785 75.8433 87.9886C75.0128 88.6818 73.6257 89.8674 73.1694 90.3234C72.3845 91.2354 71.6453 92.1931 70.9609 93.1872L69.8475 114.383L70.9609 124.068L63.2493 124.898Z" stroke="#2E353A" stroke-linecap="round" stroke-linejoin="round"/>
<path d="M82.459 195.233C83.6819 196.556 85.3428 197.386 87.1406 197.559C90.0062 197.751 114.437 193.318 114.437 193.318C114.437 193.318 120.314 197.969 120.743 198.362C121.172 198.754 122.066 198.444 121.464 197.523C120.925 196.811 120.296 196.173 119.593 195.635L124.284 198.371C124.284 198.371 125.461 198.489 125.297 197.586C125.132 196.683 121.445 194.431 121.445 194.431L126.793 197.167C127.341 197.121 127.752 196.647 127.706 196.1C127.697 195.954 127.651 195.808 127.578 195.68C127.231 194.96 123.316 192.744 123.316 192.744L127.459 193.656C127.459 193.656 128.974 192.88 127.131 191.832C126.218 191.357 120.003 189.159 120.003 189.159L121.765 186.14C122.039 185.684 121.902 185.101 121.455 184.809C121.053 184.544 120.524 184.599 120.186 184.946C119.438 185.73 118.169 187.043 117.685 187.463C116.718 188.193 115.714 188.858 114.674 189.478L88.5278 188.566L83.837 187.527L82.459 195.233Z" fill="white" stroke="#2E353A" stroke-linecap="round" stroke-linejoin="round"/>
<path d="M75.1306 151.711C75.1306 151.711 83.1342 160.038 83.3988 161.552C83.6635 163.066 64.5353 187.727 61.6423 190.144C58.7494 192.561 52.7536 198.562 52.7536 198.562L35.4141 188.958C35.4141 188.958 56.3127 157.202 57.4991 154.557C58.6855 151.912 62.0621 144.607 62.0621 144.607C62.0621 144.607 62.126 135.295 61.6697 128.035C61.2134 120.776 61.9435 117.574 62.3268 116.489C62.7101 115.404 66.0593 114.574 68.5234 115.048C70.9874 115.522 70.6863 115.814 70.6863 115.814C70.6863 115.814 73.4241 129.358 73.5518 130.023C73.6796 130.689 75.1306 151.711 75.1306 151.711Z" fill="#8EE26B"/>
<path d="M75.1306 151.711C75.1306 151.711 83.1342 160.038 83.3988 161.552C83.6635 163.066 64.5353 187.727 61.6423 190.144C58.7494 192.561 52.7536 198.562 52.7536 198.562L35.4141 188.958C35.4141 188.958 56.3127 157.202 57.4991 154.557C58.6855 151.912 62.0621 144.607 62.0621 144.607C62.0621 144.607 62.126 135.295 61.6697 128.035C61.2134 120.776 61.9435 117.574 62.3268 116.489C62.7101 115.404 66.0593 114.574 68.5234 115.048C70.9874 115.522 70.6862 115.814 70.6862 115.814C70.6862 115.814 73.4241 129.358 73.5518 130.023C73.6796 130.689 75.1306 151.711 75.1306 151.711Z" stroke="#2E353A" stroke-linecap="round" stroke-linejoin="round"/>
<path d="M72.6846 143.741C73.223 145.072 73.8345 146.376 74.5098 147.644C75.4224 149.176 76.9373 149.933 77.1655 151.028C77.3936 152.122 78.8903 155.825 78.8903 155.825C78.8903 155.825 73.7797 153.682 71.5347 150.854C69.2897 148.027 69.3262 143.367 69.3262 143.367C69.3262 143.367 71.6168 142.746 72.6846 143.741Z" fill="white" stroke="#2E353A" stroke-linecap="round" stroke-linejoin="round"/>
<path d="M68.332 170.809C68.332 170.809 73.6069 179.382 76.1074 184.325C78.608 189.269 81.9116 196.537 84.8045 196.957C87.6975 197.377 89.3675 193.099 89.5318 191.53C89.6961 189.962 87.3689 186.916 86.4107 180.486C85.4525 174.056 83.3991 161.552 83.3991 161.552L81.3914 159.218" fill="#8EE26B"/>
<path d="M68.332 170.809C68.332 170.809 73.6069 179.382 76.1074 184.325C78.608 189.269 81.9116 196.537 84.8045 196.957C87.6975 197.377 89.3676 193.099 89.5318 191.53C89.6961 189.962 87.3689 186.916 86.4107 180.486C85.4525 174.056 83.3991 161.552 83.3991 161.552L81.3914 159.218" stroke="#2E353A" stroke-linecap="round" stroke-linejoin="round"/>
<path d="M89.5323 191.53C89.6235 190.618 89.9612 187.937 88.4189 187.445C87.2781 188.676 85.891 189.652 84.3396 190.299C82.925 190.938 81.4375 191.394 79.9043 191.649C81.5287 194.467 83.2262 196.729 84.805 196.957C87.7071 197.386 89.3863 193.099 89.5323 191.53Z" fill="white" stroke="#2E353A" stroke-linecap="round" stroke-linejoin="round"/>
<path d="M71.5442 120.347L70.6316 115.787C70.6316 115.787 70.9419 115.495 68.4687 115.021C65.9956 114.547 60.812 115.085 60.4196 116.17C60.1914 116.827 59.3701 118.806 61.5329 121.241C64.6084 119.59 68.2315 119.262 71.5442 120.347Z" fill="white"/>
<path d="M71.5442 120.347L70.6316 115.787C70.6316 115.787 70.9419 115.495 68.4687 115.021C65.9956 114.547 60.812 115.085 60.4196 116.17C60.1914 116.827 59.3701 118.806 61.5329 121.241C64.6084 119.59 68.2315 119.262 71.5442 120.347Z" stroke="#2E353A" stroke-linecap="round" stroke-linejoin="round"/>
<path d="M71.9375 177.513C69.3548 175.36 66.5714 173.472 63.6328 171.849" stroke="#2E353A" stroke-linecap="round" stroke-linejoin="round"/>
<path d="M81.5101 136.317C81.5101 136.317 91.6126 131.839 90.1068 125.637C88.601 119.435 85.0236 116.644 80.9808 117.602C76.9379 118.56 77.668 120.776 77.668 120.776C77.668 120.776 73.6526 119.791 71.581 122.545C70.3489 124.105 70.1025 126.221 70.9513 128.017C69.1626 129.631 67.9397 131.775 67.4469 134.128C66.7259 138.013 72.3019 145.008 73.5887 145.683C74.8755 146.358 76.4086 144.507 76.4086 144.507C76.4086 144.507 75.1858 140.585 76.1622 140.284C77.1387 139.983 78.9 142.354 78.9 142.354C78.9 142.354 79.8126 143.54 80.6157 141.214C81.1451 139.627 81.4462 137.986 81.5101 136.317Z" fill="#FFB7B7" stroke="#2E353A" stroke-linecap="round" stroke-linejoin="round"/>
<path d="M63.03 280.963L73.1782 286.436C73.4885 286.6 73.6162 286.983 73.4519 287.293C73.3515 287.484 73.1599 287.621 72.9408 287.639L59.1879 288.971C58.038 289.08 57.0159 288.241 56.9064 287.092C56.8881 286.937 56.8973 286.782 56.9155 286.627L57.4722 282.368L63.03 280.963Z" fill="white" stroke="#2E353A" stroke-linecap="round" stroke-linejoin="round"/>
<path d="M73.26 286.436C70.0477 286.809 65.0466 286.49 61.6335 287.056C60.1003 287.393 58.5215 287.457 56.9609 287.265C57.1708 288.305 58.1291 289.017 59.1877 288.916L72.9406 287.585C73.2874 287.548 73.5521 287.238 73.5156 286.892C73.4973 286.709 73.4061 286.545 73.26 286.436Z" fill="white" stroke="#2E353A" stroke-linecap="round" stroke-linejoin="round"/>
<path d="M12.0609 280.051L8.76642 283.335C8.02721 284.064 8.01808 285.25 8.73904 285.989C8.74816 285.998 8.75729 286.007 8.76642 286.016L14.8352 291.835L22.273 292.491C22.8844 292.519 23.4137 292.053 23.4411 291.433C23.4593 291.151 23.3681 290.877 23.1856 290.667L18.9602 285.596L17.3449 282.003L12.0609 280.051Z" fill="white" stroke="#2E353A" stroke-linecap="round" stroke-linejoin="round"/>
<path d="M23.4958 291.616C20.8858 290.996 16.843 290.047 15.757 289.91C14.4154 289.746 10.3635 284.958 8.91243 283.189L8.76642 283.335C8.02721 284.064 8.01808 285.25 8.73904 285.989C8.74816 285.998 8.75729 286.007 8.76642 286.016L14.8352 291.835L22.273 292.491C22.8479 292.555 23.3772 292.181 23.4958 291.616Z" fill="white" stroke="#2E353A" stroke-linecap="round" stroke-linejoin="round"/>
<path d="M56.9516 193.582L40.2418 181.79C40.2418 181.79 33.0322 189.998 32.3751 194.558C32.3021 195.069 32.2474 195.607 32.2017 196.154C31.8185 201.617 32.8406 207.08 35.1677 212.033L48.7655 241.391L57.4991 282.304L63.0569 280.936L61.2317 237.469L50.7459 204.062L56.9516 193.582Z" fill="#0497FF" stroke="#2E353A" stroke-linecap="round" stroke-linejoin="round"/>
<path d="M35.9798 204.39L38.2796 208.649L33.3607 242.047L12.0605 280.042L17.2988 282.003L46.1371 245.978L53.0182 206.032L55.3179 196.2" fill="#0497FF"/>
<path d="M35.9798 204.39L38.2796 208.649L33.3607 242.047L12.0605 280.042L17.2988 282.003L46.1371 245.978L53.0182 206.032L55.3179 196.2" stroke="#2E353A" stroke-linecap="round" stroke-linejoin="round"/>
</svg>
