<svg width="20" height="21" viewBox="0 0 20 21" fill="none" xmlns="http://www.w3.org/2000/svg">
<g clip-path="url(#clip0_252_32)">
<path d="M10 0.861084C4.48035 0.861084 0 5.34347 0 10.8656C0 16.3878 4.48035 20.8702 10 20.8702C15.5197 20.8702 20 16.3878 20 10.8656C20 5.34347 15.5204 0.861084 10 0.861084ZM8.88027 8.22419C9.32054 8.64419 9.68038 9.10443 10 9.58514C10.3203 9.10514 10.6802 8.6449 11.1197 8.22419C11.9001 7.52395 12.9401 7.00371 14.2398 7.00371C16.4595 7.00371 18.2798 8.7642 18.2798 10.9256C18.2798 13.087 16.4595 14.8278 14.2398 14.8278C13.0001 14.8878 11.9996 14.4078 11.2594 13.7273C10.7592 13.267 10.3591 12.727 9.99929 12.1666C9.63945 12.727 9.2394 13.267 8.73915 13.7273C7.99901 14.4078 6.99922 14.8878 5.75884 14.8278C3.53912 14.8278 1.71876 13.087 1.71876 10.9256C1.71876 8.7642 3.53912 7.00371 5.75884 7.00371C7.0599 7.00371 8.09991 7.52395 8.88027 8.22419ZM3.10026 10.9256C3.10026 12.3063 4.26021 13.4471 5.76025 13.4471H5.78C6.70006 13.4873 7.26028 13.2268 7.80004 12.727C8.30029 12.2668 8.73986 11.6068 9.18013 10.8663C8.79983 10.2459 8.39977 9.66561 7.94045 9.24561C7.36047 8.70561 6.74028 8.38513 5.76025 8.38513C4.26021 8.38443 3.10026 9.52514 3.10026 10.9256ZM12.0603 9.2449C11.6002 9.66491 11.2002 10.2451 10.8206 10.8656C11.2608 11.6061 11.7004 12.2661 12.2007 12.7263C12.7404 13.2268 13.3006 13.4866 14.2207 13.4463H14.2405C15.7405 13.4463 16.9004 12.3056 16.9004 10.9249C16.9004 9.52444 15.7405 8.38372 14.2405 8.38372C13.2604 8.38443 12.6402 8.7049 12.0603 9.2449ZM14.4401 9.66491V10.4259H15.1803V11.1861H14.4401V11.9463H13.8799H13.6598V11.1861H12.8999V10.4259H13.6598V9.66561H14.4401M7.23982 10.5056V11.1056H4.90016H4.48035V10.5056H7.23982Z" fill="white"/>
</g>
<defs>
<clipPath id="clip0_252_32">
<rect width="20" height="20.0091" fill="white" transform="translate(0 0.861084)"/>
</clipPath>
</defs>
</svg>
