<svg width="20" height="21" viewBox="0 0 20 21" fill="none" xmlns="http://www.w3.org/2000/svg">
<path d="M8.27399 4.84404H3.77926C3.50557 4.84404 3.27926 5.229 3.27926 5.71479V7.81378C3.27926 8.2904 3.50031 8.68453 3.77926 8.68453H7.82136C8.09505 8.68453 8.32136 9.0695 8.32136 9.55529V10.9577C8.32136 11.4343 8.10031 11.8284 7.82136 11.8284H3.77926C3.50557 11.8284 3.27926 12.2134 3.27926 12.6992V15.6139C3.27926 16.0905 3.50031 16.4847 3.77926 16.4847H8.52662C8.80031 16.4847 9.02662 16.8696 9.02662 17.3554V18.8678C9.02662 19.3444 8.80557 19.7386 8.52662 19.7386H1.6582C1.38452 19.7386 1.1582 19.3536 1.1582 18.8678V2.50674C1.1582 2.03012 1.37926 1.63599 1.6582 1.63599H8.27399C8.54768 1.63599 8.77399 2.02095 8.77399 2.50674V3.97328C8.77399 4.44991 8.54768 4.84404 8.27399 4.84404Z" fill="white"/>
<path d="M11.1797 1.64515H12.6639C12.8428 1.64515 13.006 1.81014 13.0955 2.08511L16.1376 11.3976C16.3902 12.1767 17.0692 11.8559 17.0692 10.9668V2.50674C17.0692 2.03012 17.2902 1.63599 17.5692 1.63599H18.5902C18.8639 1.63599 19.0902 2.02095 19.0902 2.50674V18.8403C19.0902 19.3169 18.8692 19.7111 18.5902 19.7111H17.2113C17.0323 19.7111 16.8692 19.5461 16.7797 19.2711L13.6323 9.72027C13.3797 8.95034 12.7007 9.26198 12.7007 10.1511V18.8495C12.7007 19.3261 12.4797 19.7202 12.2007 19.7202H11.1797C10.906 19.7202 10.6797 19.3353 10.6797 18.8495V2.50674C10.6797 2.03012 10.906 1.64515 11.1797 1.64515Z" fill="white"/>
</svg>
