<?xml version="1.0" encoding="UTF-8"?> <svg xmlns="http://www.w3.org/2000/svg" width="629" height="636" viewBox="0 0 629 636" fill="none"> <path d="M310.985 0.00521066C285.03 0.125934 260.243 2.34176 238.433 6.20484C174.183 17.5668 162.518 41.3485 162.518 85.2058V143.128H314.347V162.436H162.518H105.538C61.4118 162.436 22.7739 188.984 10.6884 239.488C-3.25197 297.378 -3.8703 333.502 10.6884 393.947C21.481 438.941 47.2552 471 91.381 471H143.584V401.564C143.584 351.401 186.943 307.153 238.433 307.153H390.085C432.3 307.153 466 272.36 466 229.923V85.2058C466 44.0185 431.288 13.0788 390.085 6.20484C364.003 1.85886 336.941 -0.115513 310.985 0.00521066ZM228.877 46.591C244.56 46.591 257.367 59.6203 257.367 75.6407C257.367 91.6044 244.56 104.513 228.877 104.513C213.138 104.513 200.387 91.6043 200.387 75.6407C200.387 59.6203 213.138 46.591 228.877 46.591Z" fill="#CDCDCD"></path> <path d="M484.761 163V230.258C484.761 282.403 440.536 326.291 390.105 326.291H238.761C197.305 326.291 163 361.758 163 403.258V547.484C163 588.532 198.707 612.675 238.761 624.452C286.724 638.549 332.718 641.097 390.105 624.452C428.251 613.411 465.866 591.193 465.865 547.484V489.759H314.521V470.517H465.865H541.626C585.662 470.517 602.072 439.812 617.386 393.726C633.206 346.281 632.533 300.654 617.386 239.791C606.504 195.969 585.718 163 541.626 163H484.761ZM399.641 528.242C415.348 528.242 428.074 541.107 428.074 557.017C428.074 572.983 415.348 585.968 399.641 585.968C383.99 585.968 371.209 572.983 371.209 557.017C371.209 541.107 383.99 528.242 399.641 528.242Z" fill="#E7E7E7"></path> </svg> 