<svg width="20" height="18" viewBox="0 0 20 18" fill="none" xmlns="http://www.w3.org/2000/svg">
<path d="M10.2578 11.5502C9.95292 11.5502 9.70224 11.8596 9.71579 12.2442C9.72934 12.6038 9.97324 12.8881 10.2578 12.8881C10.5627 12.8881 10.7998 12.5954 10.7998 12.2191C10.7998 11.8512 10.5491 11.5502 10.2578 11.5502ZM10.2578 11.5502C9.95292 11.5502 9.70224 11.8596 9.71579 12.2442C9.72934 12.6038 9.97324 12.8881 10.2578 12.8881C10.5627 12.8881 10.7998 12.5954 10.7998 12.2191C10.7998 11.8512 10.5491 11.5502 10.2578 11.5502ZM10.2646 4.46802L5.9082 11.3663L6.24696 13.8413L6.47731 15.5386H6.48408L6.66701 16.8681H6.66024L6.74154 17.4702H13.8012L13.8825 16.8681H13.8757L14.0586 15.5386H14.0654L14.2415 14.2092L14.289 13.8663V13.8413L14.6277 11.3663L10.2646 4.46802ZM10.1629 14.2092C9.34316 14.1506 8.68598 13.3228 8.64533 12.3111C8.61146 11.3997 9.07216 10.6221 9.72257 10.3378V7.49488H10.8134V10.3378C11.4367 10.6137 11.8906 11.3495 11.8906 12.2108C11.8906 13.3563 11.1047 14.2844 10.1629 14.2092ZM10.2578 11.5502C9.95292 11.5502 9.70224 11.8596 9.71579 12.2442C9.72934 12.6038 9.97324 12.8881 10.2578 12.8881C10.5627 12.8881 10.7998 12.5954 10.7998 12.2191C10.7998 11.8512 10.5491 11.5502 10.2578 11.5502Z" fill="white"/>
<path d="M18.381 4.21728C19.2753 4.21728 20.0003 3.3226 20.0003 2.21888C20.0003 1.11516 19.2618 0.220483 18.3675 0.220483C17.6629 0.220483 17.0734 0.780704 16.8499 1.54996H3.14391C2.90001 0.680366 2.17507 0.0866988 1.36884 0.237206C0.650685 0.379351 0.088354 1.1068 0.00705319 2.00148C-0.0945728 3.20554 0.677785 4.21728 1.61952 4.21728C2.32413 4.21728 2.91356 3.65706 3.13713 2.8878H6.38239C4.4786 4.3009 3.11681 6.70901 2.79161 9.55192H1.61952V13.5571H4.86478V9.55192H3.88239C4.40407 5.77252 7.0599 2.8878 10.2713 2.8878C13.4827 2.8878 16.1385 5.77252 16.6602 9.55192H15.671V13.5571H18.9163V9.55192H17.751C17.419 6.72573 16.0572 4.3009 14.1534 2.8878H16.8634C17.087 3.65706 17.6764 4.21728 18.381 4.21728ZM18.3675 1.5416C18.6656 1.5416 18.9095 1.83425 18.9095 2.21052C18.9095 2.58679 18.6724 2.87108 18.3675 2.87108C18.0762 2.87108 17.8255 2.57843 17.8187 2.21888C17.8119 1.83425 18.0694 1.5416 18.3675 1.5416ZM1.62629 2.87108C1.33497 2.87108 1.08429 2.57843 1.07751 2.21888C1.07074 1.82589 1.32142 1.5416 1.61952 1.5416C1.91085 1.5416 2.16152 1.83425 2.16152 2.21052C2.1683 2.59515 1.93117 2.87108 1.62629 2.87108ZM3.78754 12.2109H2.7103V10.8814H3.78754V12.2109ZM16.755 10.8814H17.8323V12.2109H16.755V10.8814Z" fill="white"/>
</svg>
