<svg width="537" height="388" viewBox="0 0 537 388" fill="none" xmlns="http://www.w3.org/2000/svg">
<g clip-path="url(#clip0_544_25)">
<path d="M536.224 385.024H0.776012C0.570201 385.024 0.372818 384.943 0.227288 384.797C0.0817575 384.651 0 384.454 0 384.248C0 384.042 0.0817575 383.845 0.227288 383.699C0.372818 383.554 0.570201 383.472 0.776012 383.472H536.224C536.43 383.472 536.627 383.554 536.773 383.699C536.918 383.845 537 384.042 537 384.248C537 384.454 536.918 384.651 536.773 384.797C536.627 384.943 536.43 385.024 536.224 385.024Z" fill="#CCCCCC"/>
<path d="M483.226 249.655H168.165C166.827 249.655 165.544 250.187 164.598 251.133C163.653 252.079 163.121 253.362 163.121 254.7C163.121 256.039 163.653 257.322 164.598 258.268C165.544 259.214 166.827 259.746 168.165 259.746H177.089V380.443C177.089 381.782 177.621 383.065 178.567 384.011C179.513 384.957 180.796 385.489 182.133 385.489C183.471 385.489 184.754 384.957 185.7 384.011C186.646 383.065 187.177 381.782 187.177 380.443L187.254 259.746H463.438V380.443C463.438 381.782 463.969 383.065 464.915 384.011C465.861 384.957 467.144 385.489 468.482 385.489C469.819 385.489 471.102 384.957 472.048 384.011C472.994 383.065 473.526 381.782 473.526 380.443V262.406L474.993 259.746H483.226C484.564 259.746 485.847 259.214 486.793 258.268C487.738 257.322 488.27 256.039 488.27 254.7C488.27 253.362 487.738 252.079 486.793 251.133C485.847 250.187 484.564 249.655 483.226 249.655Z" fill="#CCCCCC"/>
<path d="M342.837 252.296H247.402C245.554 252.294 243.782 251.558 242.475 250.251C241.169 248.944 240.434 247.172 240.432 245.324V192.769C240.434 190.92 241.169 189.148 242.475 187.841C243.782 186.534 245.554 185.799 247.402 185.797H342.837C344.685 185.799 346.456 186.534 347.763 187.841C349.07 189.148 349.805 190.92 349.807 192.769V245.324C349.805 247.172 349.07 248.944 347.763 250.251C346.456 251.558 344.685 252.294 342.837 252.296Z" fill="#3F3D56"/>
<path d="M342.837 191.163H247.403C246.977 191.164 246.569 191.333 246.268 191.634C245.967 191.936 245.798 192.344 245.797 192.77V245.325C245.798 245.751 245.967 246.159 246.268 246.461C246.569 246.762 246.977 246.931 247.403 246.932H342.837C343.263 246.931 343.671 246.762 343.972 246.461C344.273 246.159 344.443 245.751 344.444 245.325V192.77C344.443 192.344 344.273 191.936 343.972 191.634C343.671 191.333 343.263 191.164 342.837 191.163Z" fill="white"/>
<path d="M303.259 228.372C303.259 228.372 291.834 225.739 285.551 230.566C279.267 235.394 293.548 246.365 293.548 246.365L303.259 228.372Z" fill="#2F2E41"/>
<path d="M295.679 223.397C301.631 223.397 306.455 218.571 306.455 212.618C306.455 206.665 301.631 201.839 295.679 201.839C289.727 201.839 284.902 206.665 284.902 212.618C284.902 218.571 289.727 223.397 295.679 223.397Z" fill="#A0616A"/>
<path d="M287.347 197.486C288.065 196.266 289.107 195.269 290.357 194.604C291.607 193.939 293.016 193.632 294.429 193.717C295.907 193.903 297.349 194.307 298.709 194.916L305.754 197.665C307.577 198.376 309.573 199.247 310.364 201.037C311.098 202.699 310.551 204.617 309.996 206.347L307.36 214.57C307.068 212.709 306.567 210.887 305.867 209.138C305.155 207.378 303.868 205.91 302.216 204.975C300.386 204.036 298.229 204.055 296.175 204.154C293.266 204.294 290.102 204.664 288.035 206.717C286.938 207.883 286.194 209.336 285.89 210.908C285.591 212.471 285.44 214.06 285.44 215.652C284.247 213.6 283.242 211.445 282.437 209.213C281.776 207.55 281.398 205.788 281.322 204.001C281.253 202.198 281.851 200.433 283.002 199.043C283.586 198.364 284.348 197.862 285.202 197.593C286.056 197.324 286.969 197.299 287.836 197.521L287.347 197.486Z" fill="#2F2E41"/>
<path d="M321.411 237.719C321.31 237.355 321.103 237.029 320.817 236.781C320.532 236.534 320.179 236.377 319.805 236.329C319.78 236.312 319.754 236.297 319.727 236.283L303.639 227.265C303.18 227.007 302.639 226.937 302.129 227.068C301.619 227.2 301.179 227.522 300.901 227.97L296.501 235.095L289.874 228.467L289.769 228.361C289.429 228.021 288.979 227.812 288.5 227.77C288.021 227.728 287.543 227.856 287.149 228.132L273.927 237.393C273.904 237.393 273.88 237.401 273.857 237.401C273.224 237.506 272.646 237.824 272.219 238.303C271.791 238.781 271.54 239.391 271.505 240.032L271.164 246.932H323.964L321.411 237.719Z" fill="#8EE26B"/>
<path d="M350.88 245.86H340.693C340.693 245.576 340.58 245.303 340.379 245.102C340.178 244.901 339.905 244.788 339.621 244.788H336.404C336.12 244.788 335.847 244.901 335.646 245.102C335.445 245.303 335.332 245.576 335.332 245.86H332.115C332.115 245.576 332.002 245.303 331.801 245.102C331.6 244.901 331.327 244.788 331.043 244.788H327.826C327.541 244.788 327.269 244.901 327.067 245.102C326.866 245.303 326.753 245.576 326.753 245.86H323.536C323.536 245.576 323.423 245.303 323.222 245.102C323.021 244.901 322.749 244.788 322.464 244.788H319.247C318.963 244.788 318.69 244.901 318.489 245.102C318.288 245.303 318.175 245.576 318.175 245.86H314.958C314.958 245.576 314.845 245.303 314.644 245.102C314.443 244.901 314.17 244.788 313.886 244.788H310.669C310.384 244.788 310.112 244.901 309.911 245.102C309.709 245.303 309.596 245.576 309.596 245.86H306.38C306.38 245.576 306.267 245.303 306.065 245.102C305.864 244.901 305.592 244.788 305.307 244.788H302.09C301.806 244.788 301.533 244.901 301.332 245.102C301.131 245.303 301.018 245.576 301.018 245.86H297.801C297.801 245.576 297.688 245.303 297.487 245.102C297.286 244.901 297.013 244.788 296.729 244.788H293.512C293.227 244.788 292.955 244.901 292.754 245.102C292.553 245.303 292.44 245.576 292.44 245.86H289.223C289.223 245.576 289.11 245.303 288.909 245.102C288.707 244.901 288.435 244.788 288.15 244.788H284.933C284.649 244.788 284.376 244.901 284.175 245.102C283.974 245.303 283.861 245.576 283.861 245.86H280.644C280.644 245.576 280.531 245.303 280.33 245.102C280.129 244.901 279.856 244.788 279.572 244.788H276.355C276.071 244.788 275.798 244.901 275.597 245.102C275.396 245.303 275.283 245.576 275.283 245.86H272.066C272.066 245.576 271.953 245.303 271.752 245.102C271.551 244.901 271.278 244.788 270.993 244.788H267.776C267.492 244.788 267.219 244.901 267.018 245.102C266.817 245.303 266.704 245.576 266.704 245.86H263.487C263.487 245.576 263.374 245.303 263.173 245.102C262.972 244.901 262.699 244.788 262.415 244.788H259.198C258.914 244.788 258.641 244.901 258.44 245.102C258.239 245.303 258.126 245.576 258.126 245.86H254.909C254.909 245.576 254.796 245.303 254.595 245.102C254.394 244.901 254.121 244.788 253.837 244.788H250.62C250.335 244.788 250.062 244.901 249.861 245.102C249.66 245.303 249.547 245.576 249.547 245.86H239.36C238.508 245.862 237.691 246.201 237.089 246.805C236.487 247.408 236.148 248.225 236.148 249.078C236.148 249.931 236.487 250.748 237.089 251.351C237.691 251.955 238.508 252.294 239.36 252.296H350.88C351.733 252.296 352.552 251.957 353.155 251.353C353.758 250.75 354.097 249.931 354.097 249.078C354.097 248.225 353.758 247.406 353.155 246.803C352.552 246.199 351.733 245.86 350.88 245.86Z" fill="#3F3D56"/>
<path d="M222.777 227.174V248.54H169.261C167.828 248.59 166.398 248.35 165.059 247.836C163.72 247.321 162.498 246.543 161.466 245.546C160.434 244.549 159.613 243.354 159.053 242.033C158.492 240.712 158.203 239.292 158.203 237.857C158.203 236.422 158.492 235.002 159.053 233.681C159.613 232.36 160.434 231.165 161.466 230.168C162.498 229.171 163.72 228.393 165.059 227.878C166.398 227.364 167.828 227.124 169.261 227.174H222.777Z" fill="#F2F2F2"/>
<path d="M224.091 248.375C224.091 248.593 224.005 248.802 223.85 248.956C223.696 249.11 223.487 249.197 223.27 249.197H168.308C165.323 249.197 162.46 248.011 160.349 245.9C158.239 243.788 157.053 240.925 157.053 237.939C157.053 234.953 158.239 232.09 160.349 229.979C162.46 227.867 165.323 226.681 168.308 226.681H223.27C223.487 226.681 223.696 226.768 223.851 226.922C224.005 227.076 224.091 227.285 224.091 227.503C224.091 227.721 224.005 227.93 223.851 228.084C223.696 228.238 223.487 228.325 223.27 228.325H168.308C165.76 228.327 163.317 229.341 161.517 231.144C159.716 232.947 158.704 235.391 158.704 237.939C158.704 240.488 159.716 242.932 161.517 244.734C163.317 246.537 165.76 247.551 168.308 247.554H223.27C223.487 247.554 223.696 247.64 223.85 247.794C224.004 247.948 224.091 248.157 224.091 248.375Z" fill="#8EE26B"/>
<path d="M222.777 232.105H165.269C165.247 232.105 165.226 232.101 165.206 232.093C165.186 232.084 165.167 232.072 165.152 232.057C165.137 232.042 165.124 232.024 165.116 232.004C165.108 231.984 165.104 231.962 165.104 231.94C165.104 231.919 165.108 231.897 165.116 231.877C165.124 231.857 165.137 231.839 165.152 231.824C165.167 231.809 165.186 231.796 165.206 231.788C165.226 231.78 165.247 231.776 165.269 231.776H222.777C222.821 231.776 222.862 231.794 222.893 231.825C222.923 231.855 222.941 231.897 222.941 231.94C222.941 231.984 222.923 232.025 222.893 232.056C222.862 232.087 222.821 232.104 222.777 232.105Z" fill="#CCCCCC"/>
<path d="M222.777 236.049H165.269C165.247 236.049 165.226 236.045 165.206 236.037C165.186 236.029 165.167 236.017 165.152 236.001C165.137 235.986 165.124 235.968 165.116 235.948C165.108 235.928 165.104 235.907 165.104 235.885C165.104 235.863 165.108 235.842 165.116 235.822C165.124 235.802 165.137 235.783 165.152 235.768C165.167 235.753 165.186 235.741 165.206 235.733C165.226 235.724 165.247 235.72 165.269 235.72H222.777C222.821 235.721 222.862 235.738 222.893 235.769C222.923 235.8 222.941 235.841 222.941 235.885C222.941 235.928 222.923 235.97 222.893 236.001C222.862 236.031 222.821 236.049 222.777 236.049Z" fill="#CCCCCC"/>
<path d="M222.777 239.994H165.269C165.247 239.994 165.226 239.99 165.206 239.981C165.186 239.973 165.167 239.961 165.152 239.946C165.137 239.931 165.124 239.912 165.116 239.892C165.108 239.872 165.104 239.851 165.104 239.829C165.104 239.807 165.108 239.786 165.116 239.766C165.124 239.746 165.137 239.728 165.152 239.713C165.167 239.697 165.186 239.685 165.206 239.677C165.226 239.669 165.247 239.665 165.269 239.665H222.777C222.821 239.665 222.862 239.683 222.893 239.713C222.923 239.744 222.941 239.786 222.941 239.829C222.941 239.873 222.923 239.914 222.893 239.945C222.862 239.976 222.821 239.993 222.777 239.994Z" fill="#CCCCCC"/>
<path d="M222.777 243.938H165.269C165.247 243.938 165.226 243.934 165.206 243.926C165.186 243.917 165.167 243.905 165.152 243.89C165.137 243.875 165.124 243.857 165.116 243.837C165.108 243.817 165.104 243.795 165.104 243.773C165.104 243.752 165.108 243.73 165.116 243.71C165.124 243.69 165.137 243.672 165.152 243.657C165.167 243.642 165.186 243.629 165.206 243.621C165.226 243.613 165.247 243.609 165.269 243.609H222.777C222.821 243.609 222.862 243.627 222.893 243.658C222.923 243.688 222.941 243.73 222.941 243.773C222.941 243.817 222.923 243.859 222.893 243.889C222.862 243.92 222.821 243.938 222.777 243.938Z" fill="#CCCCCC"/>
<path d="M212.689 204.665V226.03H159.173C157.74 226.08 156.311 225.841 154.971 225.326C153.632 224.812 152.41 224.033 151.378 223.036C150.346 222.039 149.525 220.845 148.965 219.524C148.404 218.203 148.115 216.782 148.115 215.347C148.115 213.912 148.404 212.492 148.965 211.171C149.525 209.85 150.346 208.656 151.378 207.659C152.41 206.662 153.632 205.883 154.971 205.369C156.311 204.854 157.74 204.615 159.173 204.665H212.689Z" fill="#F2F2F2"/>
<path d="M214.003 225.866C214.003 226.084 213.917 226.293 213.763 226.447C213.609 226.601 213.4 226.687 213.182 226.687H158.22C156.742 226.687 155.278 226.396 153.913 225.83C152.547 225.265 151.307 224.435 150.261 223.39C149.216 222.345 148.387 221.104 147.822 219.738C147.256 218.372 146.965 216.908 146.965 215.43C146.965 213.951 147.256 212.487 147.822 211.121C148.387 209.756 149.216 208.514 150.261 207.469C151.307 206.424 152.547 205.594 153.913 205.029C155.278 204.463 156.742 204.172 158.22 204.172H213.182C213.4 204.172 213.609 204.258 213.763 204.412C213.917 204.567 214.003 204.776 214.003 204.994C214.003 205.211 213.917 205.42 213.763 205.575C213.609 205.729 213.4 205.815 213.182 205.815H158.22C155.672 205.818 153.23 206.831 151.429 208.634C149.628 210.437 148.617 212.881 148.617 215.43C148.617 217.978 149.628 220.422 151.429 222.225C153.23 224.028 155.672 225.042 158.22 225.044H213.182C213.4 225.044 213.608 225.131 213.763 225.285C213.917 225.439 214.003 225.648 214.003 225.866Z" fill="#3F3D56"/>
<path d="M212.688 209.595H155.179C155.157 209.595 155.136 209.591 155.116 209.583C155.096 209.575 155.078 209.563 155.062 209.548C155.047 209.532 155.035 209.514 155.026 209.494C155.018 209.474 155.014 209.453 155.014 209.431C155.014 209.409 155.018 209.388 155.026 209.368C155.035 209.348 155.047 209.33 155.062 209.314C155.078 209.299 155.096 209.287 155.116 209.279C155.136 209.271 155.157 209.266 155.179 209.267H212.688C212.731 209.267 212.772 209.284 212.803 209.315C212.834 209.346 212.851 209.388 212.851 209.431C212.851 209.474 212.834 209.516 212.803 209.547C212.772 209.578 212.731 209.595 212.688 209.595Z" fill="#CCCCCC"/>
<path d="M212.688 213.54H155.179C155.157 213.54 155.136 213.536 155.116 213.527C155.096 213.519 155.078 213.507 155.062 213.492C155.047 213.477 155.035 213.458 155.026 213.438C155.018 213.418 155.014 213.397 155.014 213.375C155.014 213.354 155.018 213.332 155.026 213.312C155.035 213.292 155.047 213.274 155.062 213.259C155.078 213.243 155.096 213.231 155.116 213.223C155.136 213.215 155.157 213.211 155.179 213.211H212.688C212.731 213.211 212.772 213.229 212.803 213.259C212.834 213.29 212.851 213.332 212.851 213.375C212.851 213.419 212.834 213.46 212.803 213.491C212.772 213.522 212.731 213.539 212.688 213.54Z" fill="#CCCCCC"/>
<path d="M212.688 217.484H155.179C155.157 217.484 155.136 217.48 155.116 217.472C155.096 217.464 155.078 217.452 155.062 217.436C155.047 217.421 155.035 217.403 155.026 217.383C155.018 217.363 155.014 217.341 155.014 217.32C155.014 217.298 155.018 217.276 155.026 217.256C155.035 217.236 155.047 217.218 155.062 217.203C155.078 217.188 155.096 217.176 155.116 217.167C155.136 217.159 155.157 217.155 155.179 217.155H212.688C212.731 217.156 212.772 217.173 212.803 217.204C212.834 217.235 212.851 217.276 212.851 217.32C212.851 217.363 212.834 217.405 212.803 217.435C212.772 217.466 212.731 217.484 212.688 217.484Z" fill="#CCCCCC"/>
<path d="M212.688 221.428H155.179C155.157 221.428 155.136 221.424 155.116 221.416C155.096 221.408 155.078 221.396 155.062 221.381C155.047 221.365 155.035 221.347 155.026 221.327C155.018 221.307 155.014 221.286 155.014 221.264C155.014 221.242 155.018 221.221 155.026 221.201C155.035 221.181 155.047 221.163 155.062 221.147C155.078 221.132 155.096 221.12 155.116 221.112C155.136 221.104 155.157 221.099 155.179 221.1H212.688C212.731 221.1 212.772 221.117 212.803 221.148C212.834 221.179 212.851 221.221 212.851 221.264C212.851 221.307 212.834 221.349 212.803 221.38C212.772 221.411 212.731 221.428 212.688 221.428Z" fill="#CCCCCC"/>
<path d="M274.944 324.481V305.853C274.944 305.029 274.617 304.24 274.035 303.657C273.453 303.075 272.663 302.748 271.84 302.748H201.223C200.4 302.748 199.61 303.075 199.028 303.657C198.446 304.24 198.119 305.029 198.119 305.853V324.481H274.944Z" fill="#CCCCCC"/>
<path d="M274.944 331.467H198.119V355.529H274.944V331.467Z" fill="#CCCCCC"/>
<path d="M198.119 362.515V381.143C198.119 381.967 198.446 382.757 199.028 383.339C199.61 383.921 200.4 384.248 201.223 384.248H271.84C272.663 384.248 273.453 383.921 274.035 383.339C274.617 382.757 274.944 381.967 274.944 381.143V362.515H198.119Z" fill="#CCCCCC"/>
<path d="M236.142 316.72C237.428 316.72 238.471 315.677 238.471 314.391C238.471 313.105 237.428 312.062 236.142 312.062C234.857 312.062 233.814 313.105 233.814 314.391C233.814 315.677 234.857 316.72 236.142 316.72Z" fill="white"/>
<path d="M236.142 347.767C237.428 347.767 238.471 346.725 238.471 345.439C238.471 344.153 237.428 343.11 236.142 343.11C234.857 343.11 233.814 344.153 233.814 345.439C233.814 346.725 234.857 347.767 236.142 347.767Z" fill="white"/>
<path d="M236.267 378.157C237.553 378.157 238.596 377.115 238.596 375.829C238.596 374.543 237.553 373.5 236.267 373.5C234.982 373.5 233.939 374.543 233.939 375.829C233.939 377.115 234.982 378.157 236.267 378.157Z" fill="white"/>
<path d="M266.234 281.508V302.873H212.718C211.285 302.923 209.855 302.684 208.516 302.169C207.177 301.655 205.955 300.876 204.923 299.879C203.891 298.882 203.07 297.688 202.51 296.367C201.949 295.046 201.66 293.625 201.66 292.19C201.66 290.755 201.949 289.335 202.51 288.014C203.07 286.693 203.891 285.499 204.923 284.502C205.955 283.505 207.177 282.726 208.516 282.212C209.855 281.697 211.285 281.458 212.718 281.508H266.234Z" fill="#F2F2F2"/>
<path d="M267.548 302.709C267.548 302.927 267.461 303.136 267.307 303.29C267.153 303.444 266.944 303.53 266.726 303.53H211.765C210.286 303.532 208.821 303.241 207.455 302.676C206.088 302.111 204.846 301.282 203.8 300.236C202.754 299.191 201.924 297.949 201.358 296.583C200.791 295.216 200.5 293.752 200.5 292.273C200.5 290.793 200.791 289.329 201.358 287.962C201.924 286.596 202.754 285.354 203.8 284.309C204.846 283.263 206.088 282.434 207.455 281.869C208.821 281.304 210.286 281.014 211.765 281.015H266.726C266.944 281.015 267.153 281.101 267.307 281.255C267.461 281.41 267.548 281.619 267.548 281.836C267.548 282.054 267.461 282.263 267.307 282.418C267.153 282.572 266.944 282.658 266.726 282.658H211.765C209.217 282.661 206.774 283.674 204.973 285.477C203.173 287.28 202.161 289.724 202.161 292.273C202.161 294.821 203.173 297.265 204.973 299.068C206.774 300.871 209.217 301.885 211.765 301.887H266.726C266.944 301.887 267.153 301.974 267.307 302.128C267.461 302.282 267.548 302.491 267.548 302.709Z" fill="#3F3D56"/>
<path d="M266.232 286.438H208.724C208.702 286.438 208.681 286.434 208.661 286.426C208.641 286.418 208.622 286.406 208.607 286.39C208.592 286.375 208.58 286.357 208.571 286.337C208.563 286.317 208.559 286.296 208.559 286.274C208.559 286.252 208.563 286.231 208.571 286.211C208.58 286.191 208.592 286.173 208.607 286.157C208.622 286.142 208.641 286.13 208.661 286.122C208.681 286.113 208.702 286.109 208.724 286.11H266.232C266.276 286.11 266.317 286.127 266.348 286.158C266.378 286.189 266.396 286.23 266.396 286.274C266.396 286.317 266.378 286.359 266.348 286.39C266.317 286.42 266.276 286.438 266.232 286.438Z" fill="#CCCCCC"/>
<path d="M266.232 290.383H208.724C208.702 290.383 208.681 290.379 208.661 290.37C208.641 290.362 208.622 290.35 208.607 290.335C208.592 290.32 208.58 290.301 208.571 290.281C208.563 290.261 208.559 290.24 208.559 290.218C208.559 290.197 208.563 290.175 208.571 290.155C208.58 290.135 208.592 290.117 208.607 290.102C208.622 290.086 208.641 290.074 208.661 290.066C208.681 290.058 208.702 290.054 208.724 290.054H266.232C266.276 290.054 266.317 290.072 266.348 290.102C266.378 290.133 266.396 290.175 266.396 290.218C266.396 290.262 266.378 290.303 266.348 290.334C266.317 290.365 266.276 290.382 266.232 290.383Z" fill="#CCCCCC"/>
<path d="M266.232 294.327H208.724C208.702 294.327 208.681 294.323 208.661 294.315C208.641 294.307 208.622 294.294 208.607 294.279C208.592 294.264 208.58 294.246 208.571 294.226C208.563 294.206 208.559 294.184 208.559 294.163C208.559 294.141 208.563 294.119 208.571 294.099C208.58 294.079 208.592 294.061 208.607 294.046C208.622 294.031 208.641 294.019 208.661 294.01C208.681 294.002 208.702 293.998 208.724 293.998H266.232C266.276 293.999 266.317 294.016 266.348 294.047C266.378 294.078 266.396 294.119 266.396 294.163C266.396 294.206 266.378 294.248 266.348 294.278C266.317 294.309 266.276 294.327 266.232 294.327Z" fill="#CCCCCC"/>
<path d="M266.232 298.271H208.724C208.702 298.271 208.681 298.267 208.661 298.259C208.641 298.251 208.622 298.239 208.607 298.224C208.592 298.208 208.58 298.19 208.571 298.17C208.563 298.15 208.559 298.129 208.559 298.107C208.559 298.085 208.563 298.064 208.571 298.044C208.58 298.024 208.592 298.006 208.607 297.99C208.622 297.975 208.641 297.963 208.661 297.955C208.681 297.947 208.702 297.942 208.724 297.943H266.232C266.276 297.943 266.317 297.96 266.348 297.991C266.378 298.022 266.396 298.063 266.396 298.107C266.396 298.15 266.378 298.192 266.348 298.223C266.317 298.254 266.276 298.271 266.232 298.271Z" fill="#CCCCCC"/>
<path d="M194.088 142.06V5.83808C194.09 4.29026 194.705 2.80635 195.799 1.71188C196.894 0.617413 198.377 0.00176059 199.925 0H307.58C309.127 0.00177084 310.611 0.617428 311.705 1.71189C312.799 2.80636 313.415 4.29027 313.416 5.83808V142.06C313.415 143.607 312.799 145.091 311.705 146.186C310.611 147.28 309.127 147.896 307.58 147.898H199.925C198.377 147.896 196.894 147.28 195.799 146.186C194.705 145.091 194.09 143.607 194.088 142.06ZM199.925 1.29735C198.721 1.2987 197.567 1.77753 196.716 2.62879C195.865 3.48005 195.386 4.63422 195.385 5.83808V142.06C195.386 143.264 195.865 144.418 196.716 145.269C197.567 146.12 198.721 146.599 199.925 146.6H307.58C308.783 146.599 309.937 146.12 310.788 145.269C311.639 144.418 312.118 143.264 312.119 142.06V5.83808C312.118 4.63422 311.639 3.48005 310.788 2.62879C309.937 1.77753 308.783 1.2987 307.58 1.29735H199.925Z" fill="#E6E6E6"/>
<path d="M259.789 62.5593V34.5887C259.79 33.8147 260.098 33.0728 260.645 32.5255C261.192 31.9783 261.934 31.6705 262.707 31.6696H286.404C287.178 31.6705 287.92 31.9783 288.467 32.5255C289.014 33.0728 289.322 33.8147 289.323 34.5887V62.5593C289.322 63.3332 289.014 64.0751 288.467 64.6224C287.92 65.1696 287.178 65.4774 286.404 65.4783H262.707C261.934 65.4774 261.192 65.1696 260.645 64.6224C260.098 64.0751 259.79 63.3332 259.789 62.5593Z" fill="#8EE26B"/>
<path d="M213.744 75.5327V47.5622C213.745 46.7883 214.053 46.0463 214.6 45.4991C215.147 44.9518 215.889 44.644 216.663 44.6432H240.36C241.133 44.644 241.875 44.9518 242.422 45.4991C242.969 46.0463 243.277 46.7883 243.278 47.5622V75.5328C243.277 76.3067 242.969 77.0487 242.422 77.5959C241.875 78.1431 241.133 78.4509 240.36 78.4518H216.663C215.889 78.4509 215.147 78.1431 214.6 77.5959C214.053 77.0486 213.745 76.3066 213.744 75.5327Z" fill="#CCCCCC"/>
<path d="M250.711 115.102V87.1313C250.712 86.3574 251.02 85.6154 251.567 85.0681C252.114 84.5209 252.856 84.2131 253.629 84.2122H277.326C278.1 84.2131 278.842 84.5209 279.389 85.0681C279.936 85.6154 280.244 86.3574 280.245 87.1313V115.102C280.244 115.876 279.936 116.618 279.389 117.165C278.842 117.712 278.1 118.02 277.326 118.021H253.629C252.856 118.02 252.114 117.712 251.567 117.165C251.02 116.618 250.712 115.876 250.711 115.102Z" fill="#FF6584"/>
<path d="M392.324 242.981H367.941C367.71 242.981 367.482 243.034 367.274 243.137L361.12 246.218C360.918 246.304 360.745 246.448 360.624 246.632C360.502 246.815 360.438 247.03 360.438 247.25C360.438 247.471 360.502 247.686 360.624 247.869C360.745 248.053 360.918 248.197 361.12 248.283L367.274 251.364C367.482 251.467 367.71 251.52 367.941 251.519H392.324C392.66 251.539 392.99 251.425 393.243 251.203C393.495 250.981 393.65 250.668 393.674 250.332V244.169C393.65 243.833 393.495 243.52 393.243 243.298C392.99 243.076 392.66 242.962 392.324 242.981Z" fill="#3F3D56"/>
<path d="M393.673 244.169V250.332C393.649 250.668 393.494 250.981 393.241 251.203C392.989 251.425 392.658 251.539 392.322 251.519H387.465V242.981H392.322C392.659 242.962 392.989 243.076 393.241 243.298C393.494 243.52 393.649 243.833 393.673 244.169Z" fill="#8EE26B"/>
<path d="M392.139 196.875C393.243 196.399 394.436 196.161 395.639 196.177C396.841 196.194 398.027 196.464 399.118 196.971C400.209 197.478 401.18 198.209 401.969 199.118C402.758 200.026 403.345 201.091 403.694 202.242C403.802 202.608 403.885 202.98 403.942 203.356L438.039 220.268L445.93 215.038L455.747 226.343L443.699 236.131C442.25 237.299 440.464 237.968 438.604 238.04C436.745 238.112 434.912 237.582 433.377 236.529L398.783 212.6C398.526 212.71 398.263 212.805 397.996 212.888C396.844 213.236 395.632 213.337 394.439 213.184C393.246 213.031 392.098 212.628 391.072 212.001C390.045 211.373 389.163 210.536 388.483 209.544C387.802 208.552 387.339 207.427 387.123 206.243C387.06 205.899 387.017 205.552 386.997 205.203C386.901 203.456 387.343 201.721 388.262 200.232C389.181 198.744 390.534 197.572 392.139 196.875Z" fill="#FFB8B8"/>
<path d="M463.156 301.001H425.9C425.9 302.072 387.503 302.941 387.503 302.941C386.901 303.395 386.351 303.916 385.866 304.493C384.408 306.233 383.61 308.432 383.615 310.703V312.255C383.616 314.828 384.638 317.296 386.457 319.115C388.276 320.934 390.743 321.957 393.315 321.958H463.156C465.728 321.955 468.194 320.933 470.013 319.113C471.832 317.294 472.854 314.828 472.857 312.255V310.703C472.853 308.131 471.83 305.665 470.012 303.846C468.193 302.027 465.728 301.004 463.156 301.001Z" fill="#3F3D56"/>
<path d="M422.629 386.772H432.717V321.572H422.629V386.772Z" fill="#3F3D56"/>
<path d="M393.918 386.418C393.918 387.508 409.205 386.84 428.062 386.84C446.92 386.84 462.207 387.508 462.207 386.418C462.207 385.328 446.92 376.682 428.062 376.682C409.205 376.682 393.918 385.328 393.918 386.418Z" fill="#3F3D56"/>
<path d="M403.024 378.776L393.511 378.775L388.984 354.095L403.026 354.095L403.024 378.776Z" fill="#FFB8B8"/>
<path d="M405.45 388L374.773 387.999V387.611C374.773 386.042 375.082 384.489 375.682 383.04C376.282 381.591 377.162 380.275 378.271 379.166C379.379 378.057 380.696 377.177 382.144 376.577C383.593 375.977 385.146 375.668 386.714 375.668H386.714L405.45 375.669L405.45 388Z" fill="#2F2E41"/>
<path d="M388.796 363.471L369.829 320.93C368.246 317.344 368.071 313.294 369.339 309.585C370.607 305.876 373.225 302.781 376.672 300.916L417.812 278.851L436.584 277.254L453.901 275.68L454.025 275.891C454.185 276.161 457.908 282.593 455.392 289.646C453.483 294.996 448.517 299.175 440.633 302.067C422.23 308.816 400.972 314.585 392.686 316.751C392.32 316.845 391.978 317.015 391.682 317.25C391.386 317.486 391.143 317.781 390.97 318.117C390.796 318.449 390.693 318.813 390.667 319.187C390.64 319.561 390.692 319.936 390.818 320.289L408.438 359.886C408.622 360.389 408.688 360.926 408.632 361.458C408.575 361.99 408.397 362.502 408.112 362.954C407.826 363.406 407.44 363.787 406.984 364.066C406.529 364.346 406.015 364.517 405.482 364.566L392.316 365.525C392.204 365.536 392.093 365.541 391.982 365.541C391.308 365.541 390.648 365.345 390.082 364.978C389.517 364.611 389.07 364.087 388.796 363.471Z" fill="#2F2E41"/>
<path d="M407.68 378.776L398.167 378.775L393.641 354.095L407.682 354.095L407.68 378.776Z" fill="#FFB8B8"/>
<path d="M410.106 388L379.43 387.999V387.611C379.43 386.042 379.739 384.489 380.339 383.04C380.939 381.591 381.818 380.275 382.927 379.166C384.036 378.057 385.352 377.177 386.801 376.577C388.249 375.977 389.802 375.668 391.37 375.668H391.371L410.106 375.669L410.106 388Z" fill="#2F2E41"/>
<path d="M394.227 365.8L375.261 323.258C373.677 319.673 373.502 315.622 374.77 311.913C376.039 308.204 378.657 305.109 382.104 303.245L423.243 281.18L442.016 279.582L459.332 278.008L459.457 278.22C459.617 278.489 463.34 284.922 460.823 291.975C458.914 297.325 453.949 301.504 446.064 304.396C427.662 311.145 406.403 316.913 398.118 319.08C397.751 319.173 397.409 319.343 397.113 319.579C396.818 319.814 396.575 320.11 396.402 320.445C396.228 320.777 396.124 321.142 396.098 321.516C396.072 321.89 396.123 322.265 396.249 322.618L413.87 362.215C414.054 362.717 414.12 363.255 414.064 363.787C414.007 364.319 413.829 364.83 413.543 365.283C413.258 365.735 412.872 366.115 412.416 366.395C411.96 366.674 411.446 366.845 410.914 366.895L397.748 367.854C397.636 367.864 397.524 367.87 397.414 367.87C396.739 367.869 396.08 367.674 395.514 367.306C394.949 366.939 394.502 366.416 394.227 365.8Z" fill="#2F2E41"/>
<path d="M384.774 235.841C376.804 225.238 370.504 213.476 366.091 200.966C365.836 200.217 365.854 199.403 366.143 198.666C366.431 197.93 366.972 197.32 367.668 196.945L394.941 182.329C395.382 182.09 395.872 181.956 396.373 181.936C396.874 181.915 397.373 182.009 397.832 182.211C398.3 182.414 398.715 182.722 399.046 183.11C399.377 183.498 399.615 183.956 399.742 184.45C402.917 196.505 408.884 207.644 417.16 216.965C417.501 217.344 417.751 217.796 417.89 218.287C418.03 218.777 418.056 219.293 417.966 219.795C417.88 220.289 417.682 220.757 417.387 221.163C417.093 221.569 416.71 221.903 416.267 222.138L388.994 236.755C388.296 237.127 387.489 237.239 386.717 237.072C385.944 236.905 385.256 236.469 384.774 235.841Z" fill="#CCCCCC"/>
<path d="M386.634 234.442C386.781 234.626 386.987 234.752 387.217 234.799C387.447 234.847 387.686 234.813 387.893 234.702L415.167 220.085C415.299 220.016 415.414 219.917 415.501 219.797C415.589 219.676 415.648 219.536 415.673 219.389C415.701 219.234 415.693 219.074 415.65 218.922C415.606 218.77 415.528 218.63 415.421 218.514C406.9 208.918 400.757 197.451 397.489 185.04C397.452 184.887 397.379 184.744 397.277 184.624C397.175 184.503 397.046 184.408 396.901 184.346C396.765 184.284 396.616 184.256 396.466 184.262C396.317 184.268 396.171 184.309 396.04 184.381L368.767 198.998C368.56 199.11 368.399 199.29 368.311 199.508C368.224 199.726 368.215 199.967 368.286 200.191C372.619 212.478 378.807 224.029 386.634 234.442Z" fill="white"/>
<path d="M475.38 231.942L454.02 240.061L448.805 225.572C448.113 223.648 448.123 221.541 448.833 219.624C449.543 217.706 450.908 216.102 452.687 215.094C454.486 214.074 456.591 213.731 458.62 214.127C460.65 214.524 462.471 215.633 463.755 217.255L475.38 231.942Z" fill="#8EE26B"/>
<path d="M421.05 289.349C420.601 289.031 420.224 288.621 419.945 288.146C419.666 287.671 419.492 287.142 419.433 286.595C416.697 261.051 418.603 241.06 425.258 225.481C426.43 222.794 428.196 220.408 430.422 218.502C432.649 216.596 435.279 215.219 438.114 214.475L455.38 213.604L455.469 213.647C459.365 215.556 462.543 218.669 464.53 222.527C466.518 226.384 467.21 230.779 466.504 235.061C460.95 249.702 456.3 264.946 459.846 277.244C459.995 277.758 460.039 278.297 459.974 278.828C459.91 279.359 459.738 279.872 459.471 280.336C459.212 280.784 458.863 281.174 458.448 281.482C458.032 281.79 457.557 282.01 457.053 282.128L424.167 289.953C423.634 290.079 423.081 290.091 422.543 289.987C422.006 289.883 421.497 289.666 421.05 289.349Z" fill="#8EE26B"/>
<path d="M449.618 207.153C460.145 207.153 468.678 198.618 468.678 188.089C468.678 177.56 460.145 169.025 449.618 169.025C439.092 169.025 430.559 177.56 430.559 188.089C430.559 198.618 439.092 207.153 449.618 207.153Z" fill="#FFB8B8"/>
<path d="M396.731 203.188L381.877 209.747C381.312 209.996 380.672 210.01 380.096 209.787C379.52 209.564 379.057 209.122 378.807 208.557L378.44 207.725C378.191 207.159 378.177 206.519 378.4 205.943C378.623 205.368 379.065 204.904 379.629 204.654L394.483 198.095C395.048 197.847 395.689 197.832 396.264 198.055C396.84 198.279 397.303 198.721 397.553 199.285L397.921 200.118C398.169 200.683 398.184 201.324 397.961 201.899C397.738 202.475 397.295 202.939 396.731 203.188Z" fill="#CCCCCC"/>
<path d="M402.163 213.279L387.309 219.837C386.744 220.086 386.103 220.101 385.528 219.877C384.952 219.654 384.489 219.212 384.239 218.648L383.871 217.815C383.623 217.25 383.608 216.609 383.831 216.034C384.054 215.458 384.497 214.994 385.061 214.744L399.915 208.186C400.48 207.937 401.12 207.923 401.696 208.146C402.271 208.369 402.735 208.811 402.985 209.376L403.352 210.208C403.601 210.773 403.615 211.414 403.392 211.99C403.169 212.565 402.727 213.029 402.163 213.279Z" fill="#CCCCCC"/>
<path d="M413.619 252.692L380.503 226.56C380.239 226.653 379.971 226.732 379.699 226.798C378.53 227.071 377.317 227.096 376.138 226.869C374.959 226.643 373.841 226.172 372.856 225.485C371.865 224.798 371.032 223.907 370.413 222.872C369.793 221.836 369.402 220.681 369.266 219.482C369.044 217.566 369.476 215.631 370.491 213.992C371.507 212.352 373.046 211.103 374.86 210.449C375.992 210.043 377.198 209.88 378.397 209.972C379.596 210.064 380.763 210.409 381.819 210.983C382.876 211.558 383.8 212.349 384.53 213.305C385.26 214.261 385.78 215.361 386.055 216.532C386.14 216.903 386.2 217.28 386.233 217.659L419.199 236.682L427.403 231.957L436.491 243.858L423.753 252.939C422.262 253.993 420.471 254.539 418.645 254.494C416.819 254.449 415.057 253.817 413.619 252.692Z" fill="#FFB8B8"/>
<path d="M440.532 247.564L421.637 234.712L430.517 222.133C431.696 220.462 433.427 219.263 435.405 218.746C437.383 218.229 439.48 218.428 441.325 219.307C443.192 220.197 444.679 221.726 445.518 223.616C446.357 225.507 446.492 227.636 445.899 229.617L440.532 247.564Z" fill="#8EE26B"/>
<path d="M442.629 185.25C437.731 188.603 431.299 192.051 426.295 188.479C423.01 186.134 421.975 181.792 423.307 177.981C425.703 171.129 432.285 168.112 438.579 165.799C446.762 162.793 455.672 160.402 464.119 162.554C472.566 164.707 480.031 172.888 478.507 181.473C477.28 188.376 470.77 194.121 471.694 201.071C472.624 208.066 480.489 211.748 487.433 212.998C494.376 214.249 502.146 214.65 507.136 219.639C513.502 226.003 511.912 237.377 505.922 244.096C499.932 250.815 490.893 253.861 482.135 255.931C470.53 258.675 457.978 260.116 446.956 255.564C435.935 251.011 427.358 238.756 430.551 227.264C431.899 222.41 435.076 218.307 438.147 214.314C441.217 210.32 444.326 206.143 445.497 201.243C446.473 197.16 445.751 192.419 443.044 189.356C442.551 188.82 442.241 188.142 442.158 187.418C442.076 186.695 442.224 185.964 442.582 185.33L442.629 185.25Z" fill="#2F2E41"/>
<path d="M84.6418 277.875C79.7305 279.602 74.4573 280.035 69.3304 279.131C64.2035 278.228 59.3955 276.019 55.3698 272.718C45.1171 264.11 41.9026 249.93 39.287 236.799C36.7083 223.854 34.1295 210.908 31.5508 197.962L47.7474 209.117C59.3951 217.139 71.3051 225.418 79.3699 237.038C87.4347 248.657 90.955 264.519 84.4752 277.092" fill="#E6E6E6"/>
<path d="M83.2558 324.896C84.8951 312.952 86.5808 300.855 85.4309 288.784C84.4097 278.063 81.1396 267.591 74.4823 259.006C70.9485 254.457 66.6487 250.56 61.776 247.489C60.5054 246.687 59.3359 248.701 60.601 249.5C69.0322 254.829 75.5533 262.699 79.2244 271.975C83.2789 282.29 83.9301 293.535 83.2314 304.493C82.8088 311.119 81.9133 317.702 81.0109 324.277C80.9398 324.574 80.9842 324.887 81.1351 325.153C81.286 325.419 81.5322 325.618 81.8239 325.709C82.1215 325.789 82.4388 325.749 82.7069 325.597C82.9749 325.444 83.1722 325.193 83.2558 324.896H83.2558Z" fill="#F2F2F2"/>
<path d="M67.4681 303.761C65.3617 306.963 62.4664 309.569 59.061 311.327C55.6556 313.085 51.855 313.936 48.0253 313.799C38.183 313.331 29.9777 306.46 22.5914 299.937L0.744141 280.643L15.2034 279.951C25.6017 279.453 36.2682 278.989 46.1722 282.196C56.0762 285.404 65.2101 293.123 67.0211 303.377" fill="#E6E6E6"/>
<path d="M87.8899 331.762C79.9996 317.797 70.8476 302.277 54.4945 297.317C49.9475 295.942 45.1797 295.45 40.4478 295.866C38.9565 295.995 39.3289 298.294 40.8175 298.166C48.7492 297.507 56.6655 299.602 63.2338 304.097C69.5543 308.401 74.4755 314.383 78.6408 320.728C81.1922 324.614 83.4775 328.665 85.7633 332.71C86.4938 334.003 88.6289 333.07 87.8899 331.762Z" fill="#F2F2F2"/>
<path d="M100.533 346.46C100.267 343.379 99.1612 340.43 97.3355 337.934C95.5098 335.438 93.0344 333.491 90.1789 332.305V324.232H76.6415V332.56C73.9265 333.804 71.59 335.746 69.8701 338.188C68.1503 340.63 67.1085 343.484 66.8512 346.46L63.668 383.472H103.716L100.533 346.46Z" fill="#F2F2F2"/>
</g>
<defs>
<clipPath id="clip0_544_25">
<rect width="537" height="388" fill="white"/>
</clipPath>
</defs>
</svg>
